/* XPM */
static char *_44d9bbf802b4a368c3261e64cddee59VTXHdlmfQPPmsi5J[] = {
/* columns rows colors chars-per-pixel */
"64 64 163 2 ",
"   c #0E0E0E",
".  c #11110F",
"X  c #151515",
"o  c #191917",
"O  c #131419",
"+  c #18171C",
"@  c #17181C",
"#  c #1D1D1D",
"$  c #201F1E",
"%  c #1E201E",
"&  c #21211E",
"*  c #1E1E21",
"=  c #211F20",
"-  c #1F2023",
";  c #232323",
":  c #262825",
">  c #292926",
",  c #252529",
"<  c #28272C",
"1  c #27282B",
"2  c #2B2B2C",
"3  c #2E302E",
"4  c #30312F",
"5  c #2D2D31",
"6  c #262932",
"7  c #302F34",
"8  c #2F3033",
"9  c #323334",
"0  c #363837",
"q  c #393937",
"w  c #35363A",
"e  c #38373C",
"r  c #37393B",
"t  c #3A3B3C",
"y  c #3E403E",
"u  c #3D3D42",
"i  c #3F4144",
"p  c #424244",
"a  c #474946",
"s  c #484846",
"d  c #44454A",
"f  c #48474C",
"g  c #46484C",
"h  c #4A4B4D",
"j  c #4E504F",
"k  c #464950",
"l  c #4D4D52",
"z  c #4F5053",
"x  c #535354",
"c  c #575957",
"v  c #54555A",
"b  c #58575C",
"n  c #57585B",
"m  c #5A5A5D",
"M  c #565961",
"N  c #5C5D62",
"B  c #605F64",
"V  c #615F6A",
"C  c #5F6164",
"Z  c #5F6269",
"A  c #626365",
"S  c #64656A",
"D  c #68676D",
"F  c #67696D",
"G  c #6A6B6D",
"H  c #646770",
"J  c #6C6D72",
"K  c #6F6F79",
"L  c #676A71",
"P  c #706F74",
"I  c #6F7074",
"U  c #6D7079",
"Y  c #727276",
"T  c #767875",
"R  c #74757A",
"E  c #78777E",
"W  c #77787D",
"Q  c #7C7C7D",
"!  c #7E807F",
"~  c #81817F",
"^  c #767680",
"/  c #767980",
"(  c #7C7C83",
")  c #7E7E88",
"_  c #807F84",
"`  c #817F8B",
"'  c #7F8084",
"]  c #7F8289",
"[  c #828284",
"{  c #83838A",
"}  c #87888D",
"|  c #8B8C8E",
" . c #868791",
".. c #8C8D93",
"X. c #8E8E98",
"o. c #878A91",
"O. c #908F94",
"+. c #8E9095",
"@. c #8F9299",
"#. c #919194",
"$. c #93949B",
"%. c #97989D",
"&. c #99999E",
"*. c #9696A1",
"=. c #9699A0",
"-. c #9B9CA3",
";. c #9F9FA9",
":. c #A09FA5",
">. c #9EA0A6",
",. c #9EA1AA",
"<. c #A2A2A6",
"1. c #A4A4AB",
"2. c #A8A7AD",
"3. c #A6A8AE",
"4. c #ABABAE",
"5. c #A6A6B2",
"6. c #ACACB4",
"7. c #AEAEB9",
"8. c #B0AFB7",
"9. c #AFB0B5",
"0. c #AEB1BA",
"q. c #B2B2B5",
"w. c #B4B4BB",
"e. c #B7B9BD",
"r. c #BABABD",
"t. c #BCBCC3",
"y. c #BFBFC9",
"u. c #B7B6C2",
"i. c #C0BFC6",
"p. c #BFC0C5",
"a. c #BFC2C9",
"s. c #C2C2C5",
"d. c #C4C4CB",
"f. c #C7C8CD",
"g. c #CACACD",
"h. c #CED0CF",
"j. c #C6C6D0",
"k. c #CCCCD3",
"l. c #D0CFD5",
"z. c #CFD0D5",
"x. c #CED1D8",
"c. c #D2D3D5",
"v. c #D4D4DB",
"b. c #D8D7DD",
"n. c #D6D8DD",
"m. c #D9DADE",
"M. c #DBDBE3",
"N. c #E0DFE6",
"B. c #DFE0E5",
"V. c #E1E2E5",
"C. c #E4E4EB",
"Z. c #E8E7EF",
"A. c #E7E8ED",
"S. c #EAEAEE",
"D. c #ECECF3",
"F. c #EEEEF8",
"G. c #F0EFF7",
"H. c #EFF1F6",
"J. c #F2F2F6",
"K. c #F5F5FB",
"L. c #F8F7FD",
"P. c #F7F8FD",
"I. c #FBFBFE",
/* pixels */
"& & > # $ # o # = ; , ; : = : = = > $ ; ; $ < = = = ; ; > $ & & & & , $ = = ; = = = , = * = = ; = = ; $ # ; o $ & # $ ; + $ = $ ",
": ; > ; $ # > , > $ = ; ; ; ; ; $ = $ , , = ; = , ; ; & = $ & $ ; ; = = < ; = = = $ # = * * * = ; # ; # ; # # # # ; # + ; $ $ $ ",
"& $ t ~ 4 > $ , ; ; , , ; = ; 5 < 5 7 9 e e p f d u t p f s s s j f f h l h z N x f u u u 5 5 < > $ : $ ; * = = ; # 4 $ $ $ + $ ",
"> $ & G h ; 2 , = , , ; < 2 e u f x b B S P P R E R Y E Q E T Y P G J P P R { *.R G S S v f d d p 7 , ; = = = # # o [ s + $ $ $ ",
"; : ; ; A y $ $ < < 7 7 d l V D D ^ ` O.:.4.8.<.2.1.:.4.6.2.2.:.1.:.:.&.:.&.&.&.$.$.$.O.} W J A m x d t 5 , ; ; $ y x   $ = $ + ",
"; ; > # [ G x S 7 7 d v S P ` O.$.:.6.8.u.l.j.d.l.k.g.g.j.j.i.i.r.u.r.w.r.i.i.i.s.t.i.r.w.9.>...( Y m v l e ; + 9 J , $ = $ = $ ",
"> $ # h O.t m m e l B K ` -.-.-.:.:.w.i.v.Z.D.G.G.G.Z.Z.N.v.j.i.g.f.s.t.t.i.g.l.g.c.v.n.v.v.k.u.1.&.( M b p N ( b | 2 $ = $ o $ ",
"; ; 9 } G & + B b E ^ $.6.N.i.5.i.i.b.Z.L.L.I.L.I.L.L.L.K.N.b.l.C.b.k.f.k.b.M.b.A.S.K.K.D.S.D.B.k.6.$.) #.v d i < J Y   = $ $ o ",
"; ; p m u u * v e P ` $.:.i.i.i.s.g.S.I.I.I.K.L.L.L.L.I.L.I.N.b.D.Z.M.M.B.D.C.D.P.P.P.K.K.H.D.F.Z.j.6.-.$.d S - + f _ f $ # o & ",
"; $ 9 R _ u 5 * = E X.6.i.i.M.i.h.m.J.L.L.L.L.I.I.I.I.J.I.G.G.Z.N.M.N.D.D.S.F.D.L.P.K.K.K.K.K.H.F.M.w.-.@.i 1 6 9 > l f X $ & X ",
", 2 9 c l.6.* w u  .6.u.i.M.i.M.b.S.I.L.I.I.I.I.L.I.K.I.I.I.K.L.J.C.C.D.H.H.P.P.K.P.P.K.K.K.K.K.L.B.y.6.,.8 @ - 7 ~ Q > ; $ : $ ",
"< w w w P -.w , u b v.l.v.M.M.M.m.J.I.L.I.I.L.L.I.I.I.L.K.K.I.L.L.D.S.D.I.I.K.P.K.P.P.P.P.K.K.K.K.M.f.f.] w 6 * P g.j = o & . $ ",
"5 t i l N Y m * u i ` v.M.x.x.v.N.L.I.I.I.L.I.I.I.L.I.I.I.I.I.G.I.L.I.K.K.I.K.I.P.P.P.P.P.P.P.K.F.n.j.,.v w 2 - C 1 q 9 ; # $ $ ",
", d c Y f S U , 5 5 9 X.M.M.M.v.Z.J.I.I.I.I.I.L.I.K.I.J.N.i.8.w.t.c.S.I.P.I.I.P.P.L.P.P.H.P.K.J.F.M.3.v r < - 8 A 9 1 q 2 # # # ",
"< p k * d L i.u = 7 d $.5.C.v.i.Z.C.S.K.I.I.I.I.L.L.I.2.7.^ ` *.>.d.t.S.P.P.I.P.P.P.P.J.P.P.D.C.n.p.] i < 2 # x ' C T Q 9 @ # # ",
"9 u l e x K w.u * 7 v ` X.i.v.N.N.c.V.S.J.I.L.I.L.I.m.x  .*.` V S -.J w.I.P.P.P.P.P.K.P.P.P.C.x.p.} >.k < , - W n G s.4.B : = # ",
"9 t z u n ( d.Q u w u ..<.&.j.C.x.M.x.Z.D.F.L.K.F.I.6.d K u. .v l g * } I.P.P.K.K.H.L.H.C.M.b.e.#.#.! y w O w ] ] ^ k u 6 6 O - ",
"9 r x i C { 0.t...5 d v ..k.j.M.f.j.M.Z.M.C.Z.C.F.F.X.) 7...` u n ..g C J.P.K.K.A.H.D.C.v.f.k.<.+.| Z 8 6 M ] 0.] ] k M k 6 - @ ",
"c 9 m z S ..p.u.r.d e u Y f.6.t.v.j.C.M.M.x.M.M.C.D.*.) ) f N M n +.I ' H.K.I.J.H.V.M.M.M.c.6.$.p.H 8 i w =.u.5.0.^ M ) * % 6 * ",
"G T [ C ] 6.f.w.k.L , l r Y M.u.j.C.M.v.x.l.j.x.x.v.N - 6 l l N 5 @ : G n.V.V.B.A.A.c.f.f.6.6.3.U i w w i ,.] a.] / ] M - i @ @ ",
"S l *.X.{ ;.M.v.M.3.6 k u { 7.` x.Z.c.k.M.x.i.l.n.,., , i G x W x 3 - r t.m.h.m.m.B.n.p.p.1.{ r.i 1 i 6 L @.,.a. .-.{ S C - - : ",
"b u S j. ...M.M.b.K.A l l N ^ X.7.t.L.m.i.t.M.k.d.F @ 9 A $.' W h G 8 % ! V.d.m.k.d.m.f.w.o.( J y i i i 3.@.,.] 0.x.} g.v - i - ",
"c u ^ ^ 5.5.5.5.6.M.$.w b k M *.1.R 1.d.g.d.t.t.q.r - w m m h l a T 9 % h h.h.h.n.d.z.r.M 3.{ r 8 i i U ] @.@.U =.) @.>.L ; q 3 ",
"L k H ) *.k.u.*.t.d.d.) 5 M N V { o.S m 6.d.d.k.=.2 - h R p t p j c 2 % > [ g.n.z.p...d R ..n 6 8 w z @.=.,.] ] U ] l z i 2 ; # ",
"G A S X.5.u.M.7.y.u.t.M.Y d N l z ( N , n ' >.6.+.W | 6.} p 9 t 9 c h | >.h.g.r.] x - g W x 5 u i z ] >.3.] >.! ] ) Z C j w 2 % ",
"( -.z $.*.7.y.j.j.@.t.t.1.c u u l z M = N e.4.A , 9 n A x i 2 5 : 2 3 F c p F | %.n * i r 6 8 d k =.+.+.>./ Z H u l w i i : ; o ",
"9 _ ) -.) u.j.y.M.e.d.$.k.k.l u N d u = g I.I.c.( * 2 - d ( d 2 g i : 8 - T d.P.P.C ; 5 8 r u g ] @.+.=.] =.k i +.' 8 6 3 3 - # ",
"7 [ H ^ Y *.*.t.t.m.f.e.f.j.7.N d k u , r J >.r.Q 1 8 w , N N f z 8 @ - ; +.4.r.1.d , 6 w v f W >.@.=.@.] ' M i U C i 8 2 0 o # ",
"g [ [ R } -.{ t.w.t.g.n.<.-.7.w.S u u , 2 - ' w.} i ..[ L l ) $.u ; S F Z C I +.S - 2 u n A | $.} %.3.+.@.Z H M g r h 8 - % # % ",
"w G r.| ..v.k.a.w.d.n.g.m.R R R $.S 1 w < 5 n d.9.N { w.-...^ x.v r -.0.w.+.3.r.v - 5 g x | >.} ] @.>.=.] ! I L F Z z z % % % o ",
"# j j e 8 U 1.6.s.B.D.m.D.( / ) L p.A # 6 8 l p.t.,...d.*. ...j.) l { 6.+.{ 1.%.1 6 8 X Z p.>.} >.0.,.%.=.L I Z +.] n m o % o % ",
"& y 0 & * * J t.9.G k S I.p.R $.} <.q.p ; 5 8 t.M.6.] t.;.X.:.j.X.J ' 6.} $.w.A - 2 - - i %.&.9.f.a.a.a.a.+.C k i 0 8 2 % ; o o ",
"> q > & $ 4 A x 2 X 2 V c.E E 8.[ <.1.8 , 5 6 n X.@...t.*.^ ;.x.*.K $.1.( ' G i > > , ; , A D { 6.w.e.3.w.C c * 8 l - 1 9 % # o ",
"& & t q 4 y Q j = 2 7 N B v z P F ' Z - , r r g f d { 6. .M ^ 5.Y v J R r 3 2 : 3 > & ; = b L , D 4...( J , d - u F 2 5 i 3 o ; ",
"& & q > 4 q A s = x 5 7 u b p B C J t , , u g g d f K ..H V b u f N R Y 0 3 3 2 > & & & ; ; l e M U L C w p 9 1 p g 8 8 & < 2 o ",
"& & $ $ $ $ > > = = < = 2 e x d c C 5 5 * u z u d k S N l J N i l v d d 2 3 2 3 > > > & , = w b i i v i i ( d r p 8 ; ; ; o * # ",
"> & > 4 & & & > < , > = 4 2 7 e p y : : ; i z 9 i i l l Y x N i S Z 0 y : 3 % : > & > & : < : e z z R C g g m n 9 s 9 X ; ; @ o ",
"& & & o 9 4 & & = < , 2 > 4 > 2 g 9 2 ; ; q z y 9 e d 7 F h l t k n 8 3 : 3 > : & & & > ; # # : 2 r C u w z i i 9 9 : 9 = o o ; ",
"& 4 & & p q & ; $ $ > > > 2 2 q a 3 3 % # > p y i w l , [ g.3.w.} F > > 3 : : : & 3 $ $ ; & > $ 8 z m : Z 4.t 9 * 2 # 2 ; @ o * ",
"& & & & $ & $ > 9 > $ > 4 > $ s y & : : : : q 0 9 e u : F C N m C m 3 : : & 4 & > o & : ; $ > $ w < 8 1 y i u p ; , # 2 # o ; o ",
"& & q & 2 s > & > > 4 $ . $ > s 3 : > > : % 3 : 2 r 8 9 r 9 w 8 3 y 2 : > 2 : > : & & > ; $ ; $ : - < 2 q 4 > s ; ; # # # # @ # ",
"& > 4 > > 4 > & $ o > m 2.~ = s : : % > : % i i 5 5 ; t G I Y J C j 8 % % : % > : & : ; ; $ & & 1 1 3 9 t A 4 2 ; = # # # # # # ",
"> > & & & $ $ $ ; 4 q c ~ j 3 y - 3 2 - : % c T m v u w z c l g g g 3 r q 9 0 9 > # # ; 4 # $ = 2 # w q q A > > ; ; # # $ o # o ",
"y q 2 > > & q s f s 2 > q > y q 3 % - : y S W ! n f w ; g $.3.6.v q 0 A C I Y i u y 0 t s , , $ y 9 > 2 $ $ & & ; # # # $ # # o ",
"& & > & > 4 q y 9 9 P :.q.q.:.c y 8 w y i | } Z V d w e w V ` o.Y v n ' -.3.R R [ Q V w 2 = 7 2 ; & 3 > 4 > & & & & $ $ o $ o $ ",
"> & ; $ $ 4 4 9 y b A Q | b e , : 0 w y g x v i D N d S S R _ i l F S I [ +.G m s d M 9 5 7 = = - > & ; > & 4 & & & & $ $ $ $ o ",
"& & > > > > > > , , < S E u w e u i h m } I m z X.S z ..X.J ` S W %.v N F u * 6 5 = u u u e = 2 : & ; ; & 4 $ & & & & $ $ o $ o ",
"& & $ $ > 2 9 q s f S O.$.{ ( ( } ] -.1.Y ] I R  .M v V R L ^ A ( 1.R U C n v l u w 5 f B B V x x c y 2 4 & > & $ & & $ o $ o $ ",
"& $ $ ; 7 g m A A G A G P G G A A _ [ _ A 4 2 5 2 2 2 , 7 t p t t p 9 > t m G B A A Y G G G G A G G A x s y q 0 2 > ; # # # # o ",
"& > & $ ; : > ; : & ; = ; ; $ o : e y x x > > > 7 $ : 2 u : > $ $ # > t > ; 4 t 9 ; $ ; > > y < : 3 3 4 9 w w 9 < > ; # # # # # ",
"$ ; ; $ = ; * o : ; & ; ; ; ; ; = = @ ; 4 ; , 9 < # = q h > 7 , 7 ; e x : ; 9 7 4 ; # ; & > p t # ; & & ; ; * # ; $ # # # @ # # ",
"; = $ $ # ; ; ; # # $ $ ; = ; & ; : ; o $ # $ ; ; = # , : # $ # o ; # # # ; o o # ; # # $ X , 2 o $ $ $ # = # = # # # o # # # o ",
"# $ $ * & ; # # $ ; ; ; ; ; = # # * : # ; ; $ $ # & # # o ; ; : ; # # = ; * # $ # $ ; $ > # # ; $ ; * # o o o # # # # # # # # # ",
"# # # ; # ; ; ; ; # * # # $ # ; : # = # ; & ; ; ; ; : # ; = $ @ = : ; @ ; # # : $ X ; # * ; ; o # $ # # = ; # ; o # # # # # # # ",
"; ; = # # # # ; ; # # ; # ; ; ; ; # # $ ; o & $ # # & ; , ; : = ; # $ ; o ; ; # = # = # # o ; ; # = # # * # o o # @ # # # @ o # ",
"# = - ; ; ; ; # ; # # # ; ; ; # # ; ; # * # > & # < # & X   o X X + o : ; # X @ # 2 # # 1 o = # $ # # # # # # * # # # # # # # # ",
"# # # $ * # ; # # ; # & # # # = ; + > = # ; q.s.#.T G 4.c c A j A A 9 ~ h.~ x G q.2.> o & # ; = * o ; $ * o o # # # # # @ # # # ",
"; ; ; * ; ; # ; & * - ; ; ; & - = = $ o : ; g.h.r.~ G S.c.s.V.c.c.J.m #.I.c.S.s.s.s.& & ; # # o ; o $ @ ; ; $ $ # # # # # # # o ",
"# ; # ; # $ # # # # - # & # # ; # < = # ; ; r.g.r.~ c b.T &.s.4.q.g.c [ h.4.s.<.q.q.; = # # ; ; * # * o ; o o + # # + o # # @ # ",
"; # % ; # ; ; & ; = & = ; * ; # # # = = = o w 2 & $ & > 4 & , = > 3 : & 4 & > & < > + = & # $ o # # ; # ; o # $ # # o # $ # # # ",
"# * & # $ $ $ $ $ & $ $ # ; # # > $ $ $ $ > o $ > $ & $ o = # $ $ $ ; X $ $ $ o $ X 2 $ # # $ $ # # $ o $ o $ & # $ # # # # # # ",
"# # # # # # # # # # # $ # # # # o o $ o $ X $ $ o o $ $ o $ $ $ # $ o $ & $ o $ o $ o X # # o # # # # # $ X #   o . X X X X o X ",
"9 9 9 9 4 0 9 4 9 9 4 9 0 4 9 9 q 9 9 9 e 4 q 9 4 q 4 4 q 9 9 2 > e q 2 4 3 4 9 9 q 3 9 w q 4 4 9 4 9 9 4 4 y q t 9 q y q t t 9 ",
"x x x x x x x x x x x x x x x v x j x x x x j x x x x j x j x c x j x c x x c x x j c c h x x x x j x v j m | O.O.~ [ | | | O.Q "
};
