/* XPM */
static char *result[] = {
/* columns rows colors chars-per-pixel */
"64 64 256 2 ",
"   c #3D0C00",
".  c #3C3113",
"X  c #491600",
"o  c #531800",
"O  c #4A0A00",
"+  c #4B2706",
"@  c #592709",
"#  c #56330E",
"$  c #492C19",
"%  c #582C16",
"&  c #4C351B",
"*  c #483619",
"=  c #583519",
"-  c #4C300B",
";  c #682805",
":  c #6B310B",
">  c #783408",
",  c #663918",
"<  c #7B3A15",
"1  c #752C09",
"2  c #453B29",
"3  c #4A3924",
"4  c #543827",
"5  c #473E33",
"6  c #543C33",
"7  c #522E20",
"8  c #693D27",
"9  c #7D3B21",
"0  c #6C1800",
"q  c #79451A",
"w  c #6A4118",
"e  c #4E4325",
"r  c #574329",
"t  c #4C4636",
"y  c #554835",
"u  c #68432C",
"i  c #774426",
"p  c #695336",
"a  c #795035",
"s  c #695124",
"d  c #766951",
"f  c #882908",
"g  c #963504",
"h  c #9B3D12",
"j  c #8C3610",
"k  c #AA3B08",
"l  c #803F23",
"z  c #CA3E1A",
"x  c #974318",
"c  c #934A18",
"v  c #A74B1B",
"b  c #B84A19",
"n  c #AD511B",
"m  c #B55014",
"M  c #BE6217",
"N  c #994520",
"B  c #95522A",
"V  c #8A4D35",
"C  c #974937",
"Z  c #975936",
"A  c #88532A",
"S  c #B24D25",
"D  c #B85727",
"F  c #A8512D",
"G  c #A5653C",
"H  c #B86439",
"J  c #BB632C",
"K  c #97663B",
"L  c #C84A18",
"P  c #D34D17",
"I  c #C7581A",
"U  c #DA581B",
"Y  c #CB4E0E",
"T  c #E65B1D",
"R  c #EA5B1D",
"E  c #E75818",
"W  c #F85A1B",
"Q  c #C9691B",
"!  c #EB641E",
"~  c #E8681D",
"^  c #F56A1E",
"/  c #EB721A",
"(  c #F4731D",
")  c #FE711E",
"_  c #D74C22",
"`  c #C45D24",
"'  c #C75B26",
"]  c #DC5D22",
"[  c #D55B25",
"{  c #C95C35",
"}  c #CB5229",
"|  c #E54E25",
" . c #E55B22",
".. c #EC5D24",
"X. c #E35E2C",
"o. c #F15D21",
"O. c #E35C32",
"+. c #CD652C",
"@. c #C7652B",
"#. c #D56424",
"$. c #D7662B",
"%. c #CA6333",
"&. c #CA6B37",
"*. c #D46A33",
"=. c #DB6B34",
"-. c #DC6C3D",
";. c #D56937",
":. c #DA743D",
">. c #D67438",
",. c #D07231",
"<. c #E46223",
"1. c #EC6323",
"2. c #EC6A26",
"3. c #E5632C",
"4. c #ED642A",
"5. c #EB6B2C",
"6. c #E36C29",
"7. c #F36425",
"8. c #FB6324",
"9. c #F36B24",
"0. c #FB6B26",
"q. c #F4662B",
"w. c #FA662B",
"e. c #F46C2B",
"r. c #FA6B2C",
"t. c #EC7323",
"y. c #E4722D",
"u. c #ED732C",
"i. c #E97727",
"p. c #F37225",
"a. c #FA7225",
"s. c #F5712C",
"d. c #FB722C",
"f. c #F6792B",
"g. c #E56E32",
"h. c #ED6C33",
"j. c #E56D3C",
"k. c #E96934",
"l. c #F46C32",
"z. c #FA6D32",
"x. c #F56A38",
"c. c #E47233",
"v. c #EB7333",
"b. c #EB7B34",
"n. c #E4743A",
"m. c #EB743B",
"M. c #EC7D3A",
"N. c #E47A3A",
"B. c #F47333",
"V. c #FA7332",
"C. c #FC7A35",
"Z. c #F3733A",
"A. c #FC743B",
"S. c #F47B3D",
"D. c #FC7B3B",
"F. c #F37934",
"G. c #825F49",
"H. c #8E7455",
"J. c #AB6644",
"K. c #BD6E42",
"L. c #B0704D",
"P. c #9E7C63",
"I. c #A85D46",
"U. c #DC6E45",
"Y. c #CA7547",
"T. c #D47442",
"R. c #D97A47",
"E. c #DB7D57",
"W. c #CD6E4E",
"Q. c #E77945",
"!. c #F47B43",
"~. c #F87B47",
"^. c #EF7B54",
"/. c #F2813D",
"(. c #BE8B5E",
"). c #B69475",
"_. c #DB8755",
"`. c #D4814D",
"'. c #E68347",
"]. c #F48547",
"[. c #E58454",
"{. c #D78B62",
"}. c #DA9569",
"|. c #CC9071",
" X c #E79767",
".X c #F29F6D",
"XX c #F79669",
"oX c #E79C75",
"OX c #F59D70",
"+X c #E98962",
"@X c #F9A67B",
"#X c #F7A577",
"$X c #F1A776",
"%X c #D1A276",
"&X c #B19C87",
"*X c #DAAC8F",
"=X c #F7AA88",
"-X c #F9B68A",
";X c #E8BD95",
":X c #F6B895",
">X c #E5AD90",
",X c #DFAE9B",
"<X c #EBC196",
"1X c #EDC39B",
"2X c #E6C39A",
"3X c #FAC49A",
"4X c #EBC7A4",
"5X c #F8CAA7",
"6X c #FCD4AD",
"7X c #F9CFB2",
"8X c #FDD4B2",
"9X c #FDDAB7",
"0X c #FFE1BD",
"qX c #FBDCC6",
"wX c #E1CFC5",
"eX c #FEE2C6",
"rX c #FFE3CC",
"tX c #F3EDCE",
"yX c #F9E9C8",
"uX c #F3F3CE",
"iX c #FCF4CE",
"pX c #EDECD8",
"aX c #F3EED2",
"sX c #FCECD4",
"dX c #F4EEDA",
"fX c #FCEDDB",
"gX c #FBE5D4",
"hX c #EEF4DB",
"jX c #EFF2D3",
"kX c #F5F1D4",
"lX c #FBF3D5",
"zX c #F5F2DC",
"xX c #FAF3DC",
"cX c #FEF9DC",
"vX c #FAF9D6",
"bX c #EAF4C8",
"nX c #FDEEE4",
"mX c #F7EEE9",
"MX c #ECF9E7",
"NX c #F5F4E3",
"BX c #FBF5E3",
"VX c #F4F9E4",
"CX c #FEFAE3",
"ZX c #F5F6EC",
"AX c #FAF6EB",
"SX c #F5FAED",
"DX c #FCFAEC",
"FX c #F5F6F2",
"GX c #FAF7F2",
"HX c #F6FAF3",
"JX c #FAFBF5",
"KX c #FCF6FB",
"LX c #F6FDF9",
"PX c #FBFCFB",
"IX c #F2F3F9",
"UX c #EDFDF3",
/* pixels */
"JXJXLXJXJXJXJXJXJXJXJXJXJXJXJXJXJXPXPXSXJXJXJXKXKXPXPXPXJXJXJXJXDXHXLXLXLXPXKXKXLXJXJXJXJXJXJXJXJXJXJXJXJXJXPXJXLXJXJXJXJXGXJXLX",
"JXLXJXPXJXJXJXJXJXJXDXJXJXJXJXJXPXPXJXDXDXJXPXPXPXPXPXPXJXJXJXJXJXJXHXHXLXPXPXPXHXHXHXJXJXDXGXPXJXLXJXPXJXJXJXJXHXKXGXLXJXLXFXGX",
"PXJXJXLXPXJXLXJXJXJXJXJXJXJXJXJXLXLXDXDXJXJXHXLXUXLXLXPXPXPXDXDXCXZXHXJXPXPXPXPXLXHXLXHXPXPXJXPXJXLXJXJXJXLXJXJXJXFXJXJXJXJXJXLX",
"JXJXPXJXJXJXJXJXJXJXJXJXJXPXJXJXPXPXJXAXDXJXJXDXDXDXCXBXCXCXCXcXcXCXCXCXBXBXBXJXMXLXJXLXPXJXKXJXPXJXJXJXJXJXPXJXJXJXJXJXJXJXFXGX",
"PXJXJXJXPXJXJXJXLXJXLXJXPXPXJXJXLXHXPXJXDXCXcXvX6X3X@X#X.X.XoX X X+XXXOX=X5XeXCXGXPXHXLXPXPXKXJXJXJXJXPXGXJXPXJXJXJXJXJXJXGXJXLX",
"JXJXJXJXJXPXJXJXJXJXJXJXJXJXJXLXPXJXGXAXDXcX6X}.`.N.#.~ i.i.:.>.N.y.q.<.$.:._.}.qXnXGXJXPXPXPXGXJXJXJXJXJXJXJXJXPXJXJXJXJXLXJXGX",
"PXJXJXJXPXPXJXJXLXLXLXJXLXJXPXPXPXGXJXCX6X+X:.n.i.y./ ) a.a.y.=.b.i.f.9./ ( y.n.U.OXqXDXDXAXJXPXPXJXJXJXJXJXPXJXLXGXLXGXJXJXJXFX",
"JXJXJXJXPXJXPXJXJXLXLXLXJXPXJXJXFXPXcX;X`.=.Z.x.f.e.^ ) ) ) s.u.u.2.( / / / ( r.z.[ {.9XCXBXSXJXJXJXJXPXJXJXJXJXGXLXJXGXLXGXLXJX",
"JXJXJXPXJXLXLXJXLXPXJXLXJXJXLXJXPXBX:X:.>.F.!.m.A.q.d.f.f.p.V.e.s.D.f.p.u.b.f.( a.l.g.E.9XSXDXUXLXJXJXJXJXJXGXJXJXJXKXHXHXGXFXHX",
"JXJXJXJXPXJXLXLXLXLXFXJXJXJXJXDXfX6XR.S.t.p.!.].^.Q.F.b.b./.m.S.C.u.!.Q.Q.[.>./.s.0.z.g.{.yXVXJXHXPXJXJXFXLXJXLXKXHXJXHXGXHXLXGX",
"JXJXLXJXJXJXPXJXJXJXJXHXJXJXGXDXyX Xy.t.d.2.*.&.Y.Y.J ,.].+.&.J $.!.R.N V 9 A ; [ o.A.z.U.=XfXAXKXJXJXLXJXJXJXPXJXJXJXGXGXHXGXHX",
"JXJXJXJXJXJXLXLXPXHXJXDXJXGXDXCX-X$.F.a.9.u.g ; @ , : j }.K.j < v {.Z = 7 $ % j =.7.w.z.!.T.qXBXDXJXJXJXJXJXJXJXJXHXJXLXLXGXLXGX",
"JXJXJXJXPXJXLXLXPXGXJXFXJXDXDXsX_.y.f.9.0.C.&.c u & y 6 6 G.a 7 a a e e t e @ H !.1.( a.N.>.oXcXAXJXKXHXPXJXJXJXJXJXJXJXGXJXKXHX",
"JXJXJXJXJXLXLXJXLXJXJXDXDXDXDX7X>.u.C.9.d.5.].v + 4 2 t 2 t y y y 4 y e t - x -.B.! a.f.b.R.Y.eXAXJXJXGXJXJXLXGXJXJXFXJXHXFXHXFX",
"JXJXJXJXLXJXJXPXJXHXJXDXDXDXDX*X:.s.e.B.<.A.Z.n.D 1 = 3 t t 2 r y e * # ; D Q.m.5.! 9.r.B.g.R.3XAXJXJXJXJXJXJXFXFXJXJXFXGXHXFXGX",
"JXJXJXJXJXJXJXJXJXGXDXDXDXCXxX|.n.s.e.A.B.x.l.Z.!.J > A r 4 r e r = A B b !.m.!.d.~ 9.D.e.B.g..XCXJXJXJXJXJXJXFXGXLXJXFXHXFXGXFX",
"LXLXLXJXJXGXJXJXPXPXZXJXAXDX9X`.m.r.z.z.4.V.B.C.f.6.=.`.Y.: , 8 : A '.b.6.F.Z.Z.e.! p.0.l.Z.h. XxXPXJXJXJXJXHXFXHXGXGXFXGXGXGXGX",
"LXLXHXLXGXJXJXJXLXLXDXJXDXCX6XT.B.r.V.r.4.V.s.9.f.2.B.S.+.h x Z G x =.e.p.C.l.B.d.E a.C.e.l.l.R.fXJXJXJXJXHXHXHXFXJXGXGXGXHXGXDX",
"HXLXHXHXJXJXJXPXPXLXSXSXZXBX3XR.t.a.f.e.7.V.V.f.d.^ e.V.h.h.} ' [.:.~.m.B.B.e.V.z.9.r.d.a.s.B.R.sXJXSXJXJXGXHXHXHXHXGXHXGXGXGXAX",
"JXHXHXHXJXJXJXPXPXLXHXMXDXCX-XN.i.( f.s.7.V.r.r.s.! w.V.z.~.1.5.=.k v Y.;.].~.B.z.4.0.d.a.) 2.Q.rXJXSXHXHXHXHXHXGXFXGXFXAXDXGXGX",
"JXJXHXHXJXJXJXKXPXIXLXSXSXCX-X>.i.t.p.B.e.V.r.r.d.7.l.z.x.B.w.A.].h o @ < Y.n.e.A.3.l.D.a.9.d.Q.rXDXGXJXGXSXGXGXFXGXFXGXGXDXAXGX",
"JXHXHXUXJXJXJXPXKXPXLXMXSXCX-X`.'.b.s.s.7.V.d.V.V.2.4.x.A.l.w.9.!.S + & - Z W.x n T.Q.:.N./.B.T.rXJXHXHXHXHXHXHXHXHXGXZXGXGXAXDX",
"GXJXUXHXLXJXJXJXKXPXLXMXSXCX:XY.H R.M.f.~ ( 0.a.s.1.l.Z.A.e.9.9.V.-.1 - & $ p # w G.a , q c ` R.sXDXSXFXGXZXJXFXGXGXGXGXGXGXGXDX",
"JXJXHXHXSXHXJXJXPXPXSXSXJXJX*XA @ B R.'.y.b././.F.6.l.l.h.Z.y.b.B.m.&.; & $ 3 2 e e . . @ o f W.rXDXDXZXDXFXJXFXHXFXDXGXDXAXGXAX",
"KXPXLXHXHXSXDXDXJXPXDXFXLXKX).= u = K L.G L.G B >.$.a.V.!.Q.H c x u.Q.T.B % 2 2 * $ . $ @ 1 U.Q.qXDXDXZXHXHXZXGXDXFXFXGXDXGXDXAX",
"KXKXHXHXSXDXSXSXJXPXKXKXPXPX&Xp d * w q , ; @ < g m.u.y.R.x w o n b.Z.j.F 1 @ % = u = < F { x.Q.qXDXDXAXGXZXGXGXGXZXFXDXAXAXAXAX",
"PXJXLXSXDXSXSXSXDXKXDXmXIXKX&X& y r w j h v x h *.c.` [.J.@ & + S !.~.l.[ b n h v W.&.Q.~.~.o.R.rXGXAXAXDXDXGXDXZXFXDXAXDXAXAXAX",
"KXLXHXJXDXSXSXDXKXKXGXFXIXPX&X= & = H R.U.^.+XE.T.x h Z i & 7 = { x.z.e.a.5.l.k.] m.v.A.z.w.q.>.rXDXAXAXGXAXGXGXFXDXDXZXAXAXAXAX",
"KXLXHXJXGXJXDXDXPXGXHXLXFXJX>XJ.c D !.~.^.W.C I.P.V 8 7 7 7 X B S.d.9./ i.i.f.C.A.o.z.d.a.0.d.R.eXDXDXAXGXAXDXAXAXAXAXDXAXAXAXBX",
"LXKXLXLXJXGXKXGXPXFXMXUXmXBX>XE.].D.A.L f j % & 8 $ 4 6 6 8 A &.C.a.a.~ ~ i.f.s.0.o.d.d.a.~ 9.:.qXDXDXAXDXAXAXFXFXZXAXAXAXAXAXAX",
"HXJXHXJXJXKXGXKXPXLXUXMXZXCX=Xj.Z.B.m.` 1 @ & e & & 6 6 7 G.^.<.d.9.u.u.s.z.w.d.d.! ^ p.f.f.w.^.qXAXAXAXDXAXGXAXAXAXAXAXAXNXAXNX",
"GXFXHXHXKXKXGXKXKXUXUXMXSXxX@XZ.l.D.v.Q.H q , - , w # @ 9 h k.e.r.d.C.3.1.V.d.r.0.E p.C.y.Z.x.U.rXAXAXAXDXZXDXDXAXAXAXAXAXAXZXAX",
"FXHXSXHXHXGXGXFXFXHXHXSXZXCX@Xg.F.V.V.b.=.Q.>.@.:.@.g b *.Q.5.2.V.z.B.2.9.d.0.0.w.W 2.!.&.J U.E.qXDXDXDXSXSXDXAXCXBXBXAXAXAXZXFX",
"FXFXSXSXFXFXGXDXHXZXSXZXUXDX@Xc.V.p.s.s.2.D.B.l.B.B.U 6.s.B.e.B.l.d.s.9.! a.9.a.w...m.n > q j I.gXDXNXNXJXAXVXDXBXAXBXAXBXDXFXZX",
"FXJXSXSXJXGXGXFXHXFXSXZXFXAX@Xc.s.p.f.s.~ V.B.D.B.h.B.V.B.s.2.e.d.V.s.9.! s.s.V.z.] %.; + a # 8 4XmXJXAXJXGXZXZXDXDXAXAXAXAXAXNX",
"GXHXHXHXHXFXGXGXHXZXHXZXZXBX@Xc.F.s.d.a.<.u.s.v.C.3.B.B.B.V.5.9.r.d.r.~ ^ V.V.z.x.L %.1 . + X i wXwXgXBXnXnXPXMXGXGXAXNXBXBXNXBX",
"GXHXAXSXGXGXGXGXHXDXZXZXFXBX@Xc.s.s.V.s.2.d.V.s.V.! B.s.B.a.2.e.r.d.r.! 2.V.B.4.| O.^.F O O 0 I.gXAX9XyXsXxXZXLXIXFXZXAXBXxXBXBX",
"GXFXSXSXGXGXDXAXHXDXDXZXFXCX#Xg.C.a.s.s.1.B.V.B.B.! s.e.s.a.9.9.d.r.d.! 1.e.4.3.x.O.-.U.I.h H W.=X>X%X(.J.|.xXNXFXFXDXNXBXcXBXBX",
"GXDXAXSXGXGXGXDXGXZXDXZXFXBX#Xy.Z.s.s.s.1.s.s.s.V.1.e.s.d.d.0.^ d.0.d.7.<.U ] 3.3.$.=.T.U.U.Q.;.{ { D ,.} W.qXBXFXGXAXBXBXVXBXVX",
"GXDXAXSXGXGXAXDXGXDXDXZXZXBX#Xg.V.a.d.V.2.s.B.V.s.2.9.s.s.0.2.9.d.8.z.9.#.Y U g.P L L L M m L L L L I #.] %.eXfXmXmXAXVXVXvXVXVX",
"GXDXAXSXDXDXAXDXDXAXDXZXZXxXOXv.B.a.d.a.<.B.d.e.V.! 9.d.r.s.9.1.a.s.9.w.U U l.4.] O.$.I #.I #.#.$.@./ Q #.%.6XcXAXGXAXNXNXVXVXNX",
"GXDXSXDXGXGXGXAXDXAXAXAXDXBX.Xv.B.e.V.e.1.e.V.s.V.! e.e.r.d.7.9.s.d.9.2.U #.k.3.O.3.-.$.*.*.=.*.$.Q M M ' J 6XCXAXmXAXNXzXzXVXVX",
"AXAXAXNXAXAXAXAXDXNXAXZXZXBX.Xc.B.s.B.s.1.d.e.e.V.T e.r.r.s.7.9.9.r.V.2. .[ [ L L L S m n n v v v v x v S H 4XSXmXAXZXNXVXzXzXVX",
"AXAXNXAXAXAXAXAXAXZXBXNXZXxX.X5.B.s.d.e.1.e.V.s.B.! 9.r.0.d.7.7.0.0.r...] ] =.' { D D ' %.{ %.%.W.}.|.$X>X>XqXCXAXmXNXNXzXNXhXNX",
"AXAXVXNXAXAXmXNXAXNXAXNXZXxX.Xu.B.s.B.a.~ e.B.s.V.T e.l.e.z.q.7.d.0.w.o. .[ _ L } b } L _ z z S 7XxXlXcXcXcXBXVXZXVXNXVXNXzXNXNX",
"AXDXVXVXAXAXAXAXDXBXAXNXZXxX.Xy.B.s.s.s.<.a.B.s.s.! e.e.w.l.7.q.r.w.z.w.4.U P L P k } _ | | | { qXCXxXxXBXCXVXVXVXVXzXzXxXBXxXBX",
"AXAXVXVXAXAXAXBXDXBXAXNXMXxX.Xy.s.s.s.s.1.s.e.s.V.1.e.l.l.z.q.q.z.r.w.w.1.l...4...P 4.4.q.q.4.&.8XCXBXBXSXSXVXNXxXzXxXxXxXNXNXNX",
"ZXNXVXNXAXAXAXNXAXNXAXmXNXxX.Xc.v.s.d.r.! s.s.B.B.R 7.w.w.r.7.q.0.z.z.o...z.q.q.o. .l.e.q.q.4.*.9XBXDXDXSXNXNXVXzXcXzXxXzXxXBXzX",
"VXVXVXMXAXAXNXVXBXAXmXmXAXcX Xn././.9.r.R V.v.B.V.o.W 8.r.0...4.e.w.z.1...5.e.e.q.T e.l.e.w.q.$.6XCXdXBXNXzXNXNXBXxXNXxXdXzXxXzX",
"VXhXhXVXmXAXNXVXmXBXAXmXdXcX$XT.D Q.Z.l.q.B.m.v.e.o.8.8.8.r.4.4.r.w.w.1.1.e.l.q.4.T e.e.e.w.w.=.8XcXxXxXBXxXBXNXmXxXzXzXxXfXxXkX",
"NXVXVXVXNXNXZXNXBXzXNXNXhXkX).i + l E.^.k.Z.v.S.A.4.w.w.w.e.1.4.e.0.0.7...e.l.e.e.T e.w.r.0.w.=.8XcXzXxXxXNXxXNXzXzXzXzXxXdXdXkX",
"NXxXBXxXmXZXNXNXCXzXNXzXhXMX(.+ 7 % J.H S >.@.b =.3.q.r.e.q.1.1.w.q.w.7...e.w.q.q.T q.z.w.w.w.=.8XcXzXxXxXzXmXxXzXdXnXzXkXxXxXkX",
"nXBXNXxXNXAXNXNXVXhXzXdXpXDXH.e p # + i % X X : h ;.l.q.0.9.4...w.w.z.7...z.z.q.q. .w.w.w.w.w.-.8XcXxXxXxXzXzXzXdXzXxXzXxXdXkXkX",
"mXBXxXzXxXNXmXNXvXvXkXkXsXBXd * r # # i < i i > F -.l.w.0.R q...e.w.w.....e.l.q.l. .q.w.q.w.w.=.8XCXkXxXzXzXmXxXxXzXzXzXxXzXxXxX",
"NXNXzXzXNXNXNXhXhXkXlXlXfXfX).& % ; L.Y.' R.:.=.m.3.l.w.r.o...o.w.w.w.1.R w.l.q.q.R q.w.q.w.w.=.6XcXkXxXxXkXxXzXxXzXxXzXxXkXkXkX",
"zXhXhXzXdXNXhXNXvXlXsXgXfXrX*XZ l S [.g.3.l.z.V.V.U z.w.7.z.....w.q.0.....q.w.q.q. .q.w.0.q.0.*.7XxXdXkXzXzXxXzXzXzXzXkXsXdXlXdX",
"VXhXhXhXVXzXhXhXzXkXnXgXnXlX XT.j.h.l.V.T z.z.x.z.R 8.w.o.w.....e.7.r.R R w.8.8.w.E 8.w.8.o.8.=.7XcXdXxXkXzXkXzXdXdXkXkXdXkXdXaX",
"zXzXhXhXzXBXhXjXkXfXmXgXgXyX+XQ.x.0.r.r.R z.x.x.x.E 8.8.o.w.....0.7.r.E E w.7.q.q.E w.w.w.w.8.=.5XcXaXkXzXzXkXkXkXdXaXkXdXaXaXaX",
"xXzXzXzXfXNXhXjXlXdXmXnXcXiX X=.B.B.e.t.! s.l.z.x.1.w.r.r.z.4...e.7.w.T T w.7.q.7.T 7.7.w.7.7.*.6XlXaXaXlXkXkXkXkXkXaXtXkXtXkXaX",
"fXdXdXfXfXfXkXkXkXaXpXpXhXyX}.@.&.&.,.,.` *.;.&.&.` ' +.$.$.%.D %.+.+.@.` +.+.+.+.` +.+.+.*.$.H 9XkXaXuXkXkXaXaXkXaXaXkXkXkXkXaX",
"fXdXaXdXfXfXdXdXxXkXNXhXhXkX5X<X5X4X4X1X<X3X:X5X4X2X2X2X<X1X2X2X1X1X1X<X<X1X1X1X<X;X;X;X<X<X;X;XyXaXaXaXkXaXtXaXuXkXtXjXaXtXkXtX",
"dXdXaXaXfXsXaXdXtXaXdXpXhXjXiXiXlXxXcXlXiXcXsXfXxXcXvXvXlXlXcXcXcXvXlXlXcXlXlXcXcXlXcXlXcXcXcXcXtXjXaXtXkXuXkXuXjXaXaXtXaXkXaXtX",
"hXhXjXtXdXdXdXkXkXkXdXpXpXpXiXtXlXkXuXbXuXiXtXsXaXkXtXtXyXsXaXaXuXtXuXlXlXkXsXlXsXtXaXyXtXtXtXtXkXtXkXjXkXkXkXtXtXaXtXjXaXaXaXtX",
"hXhXjXkXzXzXdXzXkXkXjXkXzXdXVXaXlXuXbXbXuXkXaXzXkXkXuXtXlXsXfXdXkXiXtXkXkXsXkXkXkXaXcXaXlXiXuXlXaXtXdXtXkXaXuXjXkXtXtXkXtXaXtXaX"
};
