/* XPM */
static char *_f087ef011144516c1c66c6c151ae690wgpDkfFikXkH4t0Y[] = {
/* columns rows colors chars-per-pixel */
"64 64 186 2 ",
"   c #170D0F",
".  c #160D13",
"X  c #1B0E14",
"o  c #130711",
"O  c #1D1116",
"+  c #1D1319",
"@  c #1A1519",
"#  c #211217",
"$  c #23151C",
"%  c #28171D",
"&  c #25191E",
"*  c #2A1B1E",
"=  c #241720",
"-  c #261B22",
";  c #2A1D24",
":  c #2B1F28",
">  c #301F27",
",  c #272125",
"<  c #2D2126",
"1  c #2E2229",
"2  c #2E282C",
"3  c #312226",
"4  c #382527",
"5  c #32242B",
"6  c #38262D",
"7  c #34292E",
"8  c #3A2B2F",
"9  c #3A302F",
"0  c #3B2730",
"q  c #352A31",
"w  c #3A2D34",
"e  c #382B35",
"r  c #363134",
"t  c #3C3136",
"y  c #3D3339",
"u  c #3E383C",
"i  c #402C35",
"p  c #413235",
"a  c #43353B",
"s  c #44393E",
"d  c #4A3B3D",
"f  c #453B42",
"g  c #4A3D43",
"h  c #454244",
"j  c #4C4146",
"k  c #4D4349",
"l  c #4C494B",
"z  c #514246",
"x  c #52454B",
"c  c #54494E",
"v  c #5B4C4E",
"b  c #554B52",
"n  c #5A4D52",
"m  c #565054",
"M  c #5C5156",
"N  c #575458",
"B  c #5D5359",
"V  c #604F57",
"C  c #625255",
"Z  c #63555B",
"A  c #64595E",
"S  c #6A5A5C",
"D  c #5F5D60",
"F  c #655B62",
"G  c #6B5D63",
"H  c #6E5F69",
"J  c #666165",
"K  c #6B6166",
"L  c #6D6469",
"P  c #6D6A6C",
"I  c #716265",
"U  c #73666B",
"Y  c #78676F",
"T  c #74696E",
"R  c #7A6A6D",
"E  c #6E6C71",
"W  c #746C71",
"Q  c #7B6D73",
"!  c #757174",
"~  c #7C7276",
"^  c #767877",
"/  c #7D747A",
"(  c #7E797C",
")  c #77757A",
"_  c #806F75",
"`  c #817275",
"'  c #83767C",
"]  c #847A7E",
"[  c #8A7B7D",
"{  c #857C82",
"}  c #8A7E84",
"|  c #858285",
" . c #8B8186",
".. c #878689",
"X. c #8D848A",
"o. c #8D8A8D",
"O. c #918184",
"+. c #92868C",
"@. c #93898E",
"#. c #9A8A8D",
"$. c #8F8A90",
"%. c #958B92",
"&. c #998D93",
"*. c #9C8F98",
"=. c #969295",
"-. c #9B9195",
";. c #9C949A",
":. c #9E999D",
">. c #95949A",
",. c #A19295",
"<. c #A2959B",
"1. c #A39A9E",
"2. c #A49CA2",
"3. c #A99EA4",
"4. c #A5A1A5",
"5. c #AAA1A5",
"6. c #A7A4AA",
"7. c #ACA4AA",
"8. c #ADA9AD",
"9. c #B1A6AC",
"0. c #B3A9AE",
"q. c #ADAAB1",
"w. c #B4ACB3",
"e. c #B9AEB4",
"r. c #B5B2B5",
"t. c #BBB3B6",
"y. c #B6B3B9",
"u. c #BCB4BA",
"i. c #B4B8BD",
"p. c #BCBABB",
"a. c #C1B6BC",
"s. c #C2BBBF",
"d. c #BCBCC2",
"f. c #C4BCC2",
"g. c #CABEC5",
"h. c #BCCACD",
"j. c #BFCED1",
"k. c #C4C1C6",
"l. c #C9C2C6",
"z. c #C5C4C9",
"x. c #CCC4CA",
"c. c #C6C9CE",
"v. c #CDC9CD",
"b. c #D3C6C7",
"n. c #D1C5CC",
"m. c #D2CBCE",
"M. c #D4D0CF",
"N. c #C5CDD3",
"B. c #CDCBD1",
"V. c #D4CCD3",
"C. c #D9CED4",
"Z. c #CAD1D5",
"A. c #C9D5D9",
"S. c #C8D6D9",
"D. c #D7D1D5",
"F. c #D9D1D6",
"G. c #DBD5DA",
"H. c #D4DADF",
"J. c #DEDADD",
"K. c #D2D3D8",
"L. c #E0D7DC",
"P. c #E2DBDF",
"I. c #E8D8DB",
"U. c #CEDEE1",
"Y. c #D4DDE2",
"T. c #DEDEE2",
"R. c #E4DCE1",
"E. c #E9DEE4",
"W. c #D3E2E5",
"Q. c #E3E2E5",
"!. c #EAE3E6",
"~. c #E5E5E9",
"^. c #ECE5EB",
"/. c #E5E9EE",
"(. c #EBE9EC",
"). c #F1EAED",
"_. c #ECECF1",
"`. c #F3EEF2",
"'. c #F5F3F4",
"]. c #F9F4F6",
"[. c #F6F8F7",
"{. c #FCF8F7",
"}. c #F6F6F9",
"|. c #FCF6F9",
" X c #F7F9F8",
".X c #FEFEFE",
/* pixels */
".X.X.X.X.X.X.X.X.X.X.X.X.X.X.X.X.X.X.X.X.X.X.X.X|..X.X.X.X.X!.4.O.b..X{..X.X{..X}..X}.|..X|..X.X.X.X.X.X.X.X.X.X.X.X.X.X.X.X.X.X",
".X.X.X.X.X.X.X.X.X.X.X.X.X X.X.X.X.X X'..X.X.X.X.X!.m.v.v.*.c B v r I =.#.0.t.t.V._..X.X|..X.X.X.X.X.X'..X.X{..X.X.X.X.X.X.X.X.X",
".X.X.X.X.X.X.X.X.X.X.X.X.X.X.X X.X}..X.X.X/.c.q.0.l.x.m.q.D : *.P < 9 9 3 o.0.1.>.) } d.T..X.X X.X.X.X.X.X.X.X.X.X.X.X.X.X.X.X.X",
"{..X.X.X.X.X.X.X.X.X.X.X.X.X.X.X'..X}.c.q.o.L N ..p.4.] b f e <.~ S ` M , c C m N b f b E o.8.`..X'..X.X.X.X X.X.X.X.X.X.X.X.X.X",
".X.X.X.X.X.X.X.X.X.X.X.X.X X.X.X.Xc.2...E ! $.>.:.:.:.w.q.{ f q.t.&.@.T ^ -.1.1.} } H f e ) d.2.y..X.X`. X.X.X.X.X.X.X.X.X.X.X.X",
".X.X.X.X.X.X.X.X.X.X.X.X.X.X}.T.6.:.) E $.y.g.B.V.f.d.w.f.d.g w.e.} @.;.5.a.M.M.d.g.q.>.) N ) 2.;.=.)..X.X[..X.X.X.X.X.X.X.X.X.X",
".X.X.X{..X.X.X.X{..X.X.X.X XG.8.6.{ { q.B.f.>.E B u f l H { b d.T w g X.-.W T X.6.g.f.w.q.*./ F N 1.| J.{..X{..X.X.X.X.X.X.X.X.X",
"{..X.X.X.X.X.X.X.X{..X.X'.z.8.8.) 2.z.f...f - : - - 1 2 + 5 g %.5 7 , k f = O 7 e F q.B.V.d.2.2.( r =.J G..X.X|..X.X.X.X.X.X.X.X",
".X.X.X.X.X.X.X.X.X.X.X.Xm.8.w.=.w.d.e.k : e : 2 : : - 2 7 : b +.; 1 1 1 : : q 2 : 1 : F V.g.d.e.0.P 9 =.K '..X.X.X.X.X.X.X.X.X.X",
".X.X.X.X.X.X.X.X X.X.X|.:.D.4.0.u.e.e : e + : : : : : : 1 : b +.= , 1 7 5 1 2 : : : e + a 9.w.f.7.#.u j :.X.]..X.X.X.X.X.X.X.X.X",
".X.X.X.X.X.X.X.X.X'..Xp.:.L 2.r.f.e - - - : 2 : - 1 - - : : b { + ; ; 1 7 5 5 ; 1 q : : o f f.C.0.1.c u b.! M..X.X.X.X.X.X.X.X.X",
".X.X.X.X.X.X.X.X.X.X|.8.J   T s.( . t ; 2 : : 5 - : : = : = x / = 1 : , 2 1 1 1 - : : e f = g g.p.[ 2 < j ~ | .X.X.X.X.X.X.X.X.X",
"{..X.X.X.X.X.X.X.X.X!...N m J r.u 7 ; & 5 5 ; 1 - - - - < $ x Q & 1 ; ; 1 < ; ; : = : : = y = *.+., 7 4 7 A ! (..X.X.X.X.X.X.X.X",
".X.X.X{..X.X.X.X.X.X5.@.J G.{ ;.w * 0 - & < 1 * : = ; : 5 & c W + , ; , 5 ; - ; : y : = 0 q f 3.A * , h t m ] b..X.X.X.X.X.X.X.X",
".X.X.X.X.X.X.X.X{..X..1.W '.w.X.< 7 7 * 8 O < , * $ < ; 3 & c K O < * * < ; ; 5 q + e 5 : : H 9.U * 8 &.1.t K t..X.X.X.X.X.X.X.X",
".X{..X.X.X.X.X.X.X{.{ X.T .XD.T 3 < ; 3 < 5 * 5 & & 1 & ; & x A O < * $ , * < 7 : 2 : : : 0 Y %.w < K 0.8.A T 1..X.X.X.X.X.X.X.X",
".X.X.X.X.X.X.X.X.X~...| L .XD.L & 7 1 < 1 ; ; , - , ; - ; - n F O - ; ; ; - 1 w ; ; 1 - q w F M , 8 ..v.s.T | o. X.X.X.X.X.X.X.X",
".X.X.X.X.X.X.X.X.XQ.{ | j T.m.N , , , 2 , ; , & 7 1 ; ; 5 - B F . q ; X 5 7 $ = w 5 7 ; 1 e ,.q , 7 1.L.h.| o....X.X.X.X.X.X.X.X",
".X.X.X.X.X.X.X|..Xk.:.J , m y.W , q s l l b n g : 1 > > , $ n Z O + $ ; ; + ; f 1 - < ; 5 q M a q ; ..m.i.o.r.^ .X.X.X.X.X.X.X.X",
".X.X.X.X.X.X.X.X.Xy.{ N @ b 6.l j ( | { &. .U L G b a = $ & M n + $ 1 1 ; ; ; $ - ; 1 $ g F 7 7 1 u t.m.4.6.r.| .X.X.X.X.X.X.X.X",
".X.X.X.X.X.X.X.X.X%.) u m &., F &.:.z.R.C.J.m.+.w g b g 0 # n V O 5 ; ; 6 ; $ : w n ' { X.' ;.X.T ! %.6.8.6.p.!  X.X.X.X.X.X.X.X",
".X.X.X.X.X.X.X.X.X( -.r h u u ;.k.^.'.G.8. .H g e = : e i > n g $ $ ; w 6 : t M ' u.e.7.' u u M @.=.J r ( u.6.! {..X.X.X.X.X.X.X",
".X.X.X.X.X.X.X.X XL ( r 7 = W R.).k.( j 1 5 f g f > > > 0 5 n a ; ; i g e g x a { m.R.R.F.2., , u ( <.J @ L D.F '.{..X.X.X.X.X.X",
".X.X.X.X.X.X.X|.V.F P 2 r W m.v. .T J L K X.V.).E.g.%.x 5 > V 0 % > 0 a a > 6 g 9.e.).R.&.l @ 2 O n &.&.h 2 ( ! `.{..X.X.X.X.X.X",
".X.X.X.X{. X.X{.:.T A - B n.n.;.=.X.@.-.} W / %.3.a.a.#.g > c i # > i V V > f f f ( n.f.&...( T b q M %.L & u l ~.]..X.X.X.X.X.X",
".X.X.X.X.X.X.X.XP ( f - +.E.} g $ f A K L g $ - : 5 a n Z Y Y V i a Z _ G x g V n f s e a f u b L } j 0 w q q ; f..X|..X.X.X.X.X",
".X X.X.X.X{.[.M.B ( - B n.B X 1 x Z X.X.{ V y 5 y : = > > a a c V g g g i i F G G 5 $ $ & & @ - = 1 / / 5 q ; k -..X|.|..X.X.X.X",
".X.X.X.X.X[..X( ( u l D.g $ 7 7 w x 2.7.} g : $ ; > 0 0 > 6 n ,.} i V ; b #.2.#.y - , 1 & , 1 , $ 1 X g Q y 1 }  .L..X.X.X.X X.X",
".X.X.X.X.X.X).J ( - t.F X q w 7 q - g [ <.v $ 6 5 7 1 ; 1 ; F e.} n A 7 Y e.f.V ; q 1 $ ; ; O = ; ; 7 : n Y - U &.5..X.X.X.X.X.X",
"[..X X.X.X.X7.^ b J &.. 7 5 $ 5 0 g a > i 0 0 6 : 7 5 5 w 1 A 2.Y g n - b f.3.b $ ; ; ; 1 1 $ - 1 w % ; 3 G n w -.+.(..X.X.X.X.X",
".X.X.X.X.X'.^ ( r 5.u - s ; 0 7 G G V V g > : = $ ; 1 = 1 t F 2./ B b u 7 g H V 0 , ; 1 - - e s G g > 0 ; w Y t K O.t..X X.X.X.X",
".X[..X[..Xc.J B L =.$ q e 5 ; ; g &.} Y Y G V b x g c b Z W F  .f.f q f H f f e , q < 5 k M Y %.} s T 5 5 ; x K 3 X. ..X|..X.X X",
".X.X.X'..X..K s ;.x : 5 t w n 5 : b *.w.3.{ { 3.e.d.:.} d.6.N } G.t h ) ( F } :.>.:.} } ..$.6.$.f } b : 5 ; % G 0 g Q f.}.|..X.X",
" X.X]..X`.L m M X.1 5 5 5 e M { e + f } g.f.d.q.d.d.q.d.q.H b *.f.2 F 2.:.6.y.f.g.g.Y.d.d.d.>.N } ) e e 5 % > a G > n } .X]..X.X",
".X.X.X.X0.m a X.x # t e ; 5 > x q.{ g } d.d.w.g.w.3.g.$.Y Z b 2.R.( F ! u.w.y.q.d.B.B.j.d.6.d.q.6.u = : % 6 > ; G f 6 Q C..X.X.X",
".X]..X.X[ v d ` : 5 6 7 > > > $ g Y.C.} H Z N f f f g { g b F f.2.5.-.f { 6.H E F H ) } 6.6.6.d.D = : + : e % > g S 6 U 2..X.X|.",
".X|..Xm.G j U a ; 0 > 0 6 : 0 0 = F H = e = e e : : + Y { B 3.} 0.9.;.G y ( + : e = : h 3.6.6.*.= : , - q - 5 > 6 Z e G %.J..X|.",
".X.X|.+.j d ` 3 > 6 i 0 0 6 > > e : H e e e : : : b 2.} 6 H %.g.|.`.3.H q 2.E y : e e N f.2.} f - : - : 5 = 7 ; - g b l &.7..X.X",
"|.].).H g Z z ; 0 6 a ; 0 w 5 > : = g H : 0 : f H 3.V.b f 3._ +.0.&.{ G U f.7.%.g e e = { d./ 5 q @ 1 1 : 1 : 5 ; ; W w +. .|..X",
".X.X5.x s W 8 5 7 ; i > w : 6 7 : : : H i : g V H f.H f 3./ t > : t t { *.a.f.*.6.H 5 f V *.f = : : - 2 1 - 0 5 7 $ b b K %.x..X",
".X{.P u P c   , # = : e g g a ; e : : g Z g g e 1.} x 0.} 0 g } g n T a ~ 3.e.F &.g.*.0 H H = : + = O = . - ; > : 0 t F g %.;..X",
".Xp.l h D u m ! &.f.C.E.|.E.Q f : : Z 0 _ } Z g s.} e._ g > g 7.s n  .* C  .<.+.e } <.&.Q f : f B H } +.Q U B M g s $ x k L { !.",
".X^ h l 5.Q..X.X.X|..X|.L.7.L b = g f.g f d.g Z e.e.' w x f G %.r v &.< K T ] 1.} 6 g 0.U g H g ,.%.+.g.|..X.X|..XV.<.H G a G d.",
".X| P o.{..X)..X.Xe.H Y f G } 5 : e *.e.g Z 5 *.a./ q q } b H *.t M 5.< K R j ' } f g { V } 5 F F n G = H +.{ ' <.|.|.|.W f K l.",
"'.'..X.X{..X.X-.Y g g g k ,.T 7 w & f G.w.= V e.~ B c q ,.s A 0.w v 5.* v [ 2 A %.f g Q } f = i } f Y f U G Q ( j L u.F.x.;.e.|.",
".X.X'.D.9.9.;.4 g Z F V w a g y ; , 1 U f.Z } H ;  .' M 2.T ' 5.M P | m ~ | v I ' { V +.Q $ > X g x Q F B g ( 5 L j t x K y.^.^.",
"|.P.^ < d c d K g V v a : 6 g 6 ; ; 5 5 _ 3.{ F I X.*.7.3.t.3.1.9.0.<.0.p.1.<.-.2.{ ' Z f : = e 0 f F g B / F O k 9.o.u.@.7 & s ",
"1.K d d g C ` g S V V V g > $ 3 - $ < 1 a { H H U K n S M A A F c c A Z x c M M n Y 3.g o $ 0 $ : f 6 g A g + s { L 0.W 1 k Q T ",
"z [ ' [ S 4 S I d 9 d v v p 2 4 ; $ - ; $ $ ; $ $ $ - : - & ; ; : : 5 : $ = : ; $ ; 6 - $ 5 0 > > : 5 6 + ; 6 b t } z $ B ~ d 8 ",
"4 4 4 p [ ` * d d C C d z p 2 * ; - 5 ; ; : $ ; 1 ; - ; ; ; 5 5 7 e 5 : : 0 7 5 e : 5 5 5 > 5 > = : : % > $ = 6 ] F c T d @ h K ",
"Z z v d d R C z 9 # * d d ; < * ; 5 ; e 5 X = ; ; 5 7 5 5 i e > 5 e e : 1 : - 5 $ $ ; 5 > 5 > : - 5 % > f > g H n d t ; O d K ] ",
"d S v C C S v d z C v 3 5 w 8 , # : : $ a x 5 5 ; 5 6 : ; ; - - 5 : : 1 e 5 5 ; 7 7 5 5 > ; : = $ 0 6 g Z Y H V n c t c U  . .c ",
"I d z d z I O.[ v 4 i V R Q W c n e 7 g e f I g 1 = $ 5 6 $ $ w 5 ; 7 5 > $ > = 5 ; # ; e f g i x g b Q Q Q Z V F Y { U T Q K } ",
"8 8 t $ * 3 z I ` G C v V g g n C A n x U A g H <.} C e : ; % ; ; ; 7 ; : : e 5 $ g x g b Q %.' _ c F Z b x S { } %.G f K Q { &.",
" .&.] / I 3 O * 3 i G [ +._ H M S _ d % g S G G A Q U V F U n a w 5 : 6 Z V n x g U G k f B Q F x c C x H } 3.} n > n Q } X.%.<.",
"] } { [ ~ O.I p * * = $ i g x M C x g i ; ; p v a v n v S C x g d g x n Y g f E Q V 7 5 5 6 g x G / ' &.} Y g # > F %.} X.%.*.*.",
"..@.-.X.Q ' #. .p 4 3 % % $ , $ 4 * a R p % # ; 4 w d z z S S ` S R #.[ O.Z 3 3 ; + & ; ; - - 1 = > : > 6 = = V Y / *.<.2.7.2.q.",
"p.z.v.p.@.]  .] R j ; % 3 4 $ < # % d [ S a > * - 3 * $ 4 S O.O.R G _ R [ d % 7 $ 7 5 $ < < 7 } Y g w 0 > f H } H *.q.f.g.B.g.d.",
"(.}.(.G.1.] [ ] I ` I d 3 7 $ $ 4 * p I Q U g 5 4 * * * p C ` [ I S _ I Q 4 # $ 7 * + - q ; e V.L.&.} } { { } { { g.L.^./._./.g.",
"_.}.'.T.0.] |  .I ' O.' U S n x p z v C I R Y S z t v S R I [ #.I S _ _ Q 3 < 4 , < 7 ; , f K |.V.+.} *.} { } / } E._._.T././.A.",
"Y.W.R.G.r.+.[ ] R U _ ` } ,.g.1.S ` I C I S _ ` U <.I.b.O.C [ ,.I C ` [ Q 3 * * , ; 5 5 f F ' Q.a.O.&.+.{ Z g 5 } g.K.H.B.Y.Y.Y.",
"k.z.z.i.4.=.@.#._ U ' Y _ +.g.O.S v d z R I _ ` ` _ _ C d C O.#.S C [ [ R C z 3 5 t f K $.{ } V.<.{ ~ x : + e 5 d.d.d.N.N.A.d.U.",
"i.i.d.2.-.1.,.9.#.Z Y _ W C n 6 % # * i I I ` ` d * X X # C O.O.S S O.` R O.#.` Q &.%.{ Y N } -.-.m 5 $ : 0 e e d.d.d.N.A.S.j.U.",
"i.d.N.q.5.e.9.a.,.S C i % * $ & % * * 4 I _ S d * % 4 4 4 S #.#.` S [ #.` O.,.,.*.Y f q + 5 1.;.T 7 & 8 e : : e w.f.N.d.N.S.W.U."
};
