/* XPM */
static char *RFZfcmVkLg__[] = {
/* columns rows colors chars-per-pixel */
"64 64 207 2 ",
"   c #020105",
".  c #0B0005",
"X  c #03020B",
"o  c #0B020C",
"O  c #030A0D",
"+  c #08090B",
"@  c #130004",
"#  c #1A0104",
"$  c #120807",
"%  c #12010B",
"&  c #1A020E",
"*  c #130A0E",
"=  c #050313",
"-  c #090415",
";  c #050A14",
":  c #0A0914",
">  c #04041B",
",  c #09061B",
"<  c #040B1D",
"1  c #0B0A1B",
"2  c #130313",
"3  c #1B0213",
"4  c #120914",
"5  c #10051A",
"6  c #140D1C",
"7  c #1C0C1C",
"8  c #1C0C17",
"9  c #001012",
"0  c #0B1216",
"q  c #03121B",
"w  c #0C111D",
"e  c #05181E",
"r  c #13121D",
"t  c #1B141E",
"y  c #240000",
"u  c #2C0000",
"i  c #2A000F",
"p  c #21000D",
"a  c #300002",
"s  c #35010D",
"d  c #210411",
"f  c #2D0213",
"g  c #230A16",
"h  c #230C1A",
"j  c #390016",
"k  c #330F1B",
"l  c #2A121E",
"z  c #060321",
"x  c #070421",
"c  c #060522",
"v  c #020522",
"b  c #080520",
"n  c #090623",
"m  c #030A24",
"M  c #0B0B23",
"N  c #0D072B",
"B  c #060C29",
"V  c #0A0E2D",
"C  c #0A0C2A",
"Z  c #130C25",
"A  c #180A2A",
"S  c #0D1323",
"D  c #0A1920",
"F  c #0B132B",
"G  c #051226",
"H  c #131323",
"J  c #1A1523",
"K  c #141924",
"L  c #1B1926",
"P  c #13142B",
"I  c #1A152B",
"U  c #161D2C",
"Y  c #1B1B2A",
"T  c #1C0A30",
"R  c #0D1933",
"E  c #0C1232",
"W  c #141632",
"Q  c #161C32",
"!  c #1B1E36",
"~  c #141E3C",
"^  c #1C1C3C",
"/  c #1C1332",
"(  c #200F21",
")  c #251426",
"_  c #2E1624",
"`  c #201825",
"'  c #2D1B2B",
"]  c #291B2A",
"[  c #341C2A",
"{  c #361A27",
"}  c #201631",
"|  c #221E33",
" . c #231E3E",
".. c #28133A",
"X. c #3D1633",
"o. c #1D212C",
"O. c #14212A",
"+. c #1F2231",
"@. c #14223A",
"#. c #1F233F",
"$. c #1D2F33",
"%. c #23222D",
"&. c #2B252E",
"*. c #39212F",
"=. c #242334",
"-. c #2C2435",
";. c #232A36",
":. c #2B2A34",
">. c #2B2D3C",
",. c #262639",
"<. c #342634",
"1. c #342C3C",
"2. c #3A2836",
"3. c #2C323D",
"4. c #253131",
"5. c #33313B",
"6. c #3C323B",
"7. c #4A0716",
"8. c #530F1A",
"9. c #400821",
"0. c #500F27",
"q. c #5E1725",
"w. c #4C1131",
"e. c #5A1636",
"r. c #6F1F3C",
"t. c #761536",
"y. c #452A38",
"u. c #52303E",
"i. c #622A37",
"p. c #72273C",
"a. c #261F40",
"s. c #1F2340",
"d. c #252343",
"f. c #2B2443",
"g. c #272947",
"h. c #2D2B42",
"j. c #2C2E4C",
"k. c #322F4D",
"l. c #3B2A45",
"z. c #333343",
"x. c #3A3343",
"c. c #343944",
"v. c #36364C",
"b. c #39344A",
"n. c #343B4C",
"m. c #3C3C4A",
"M. c #3C3A45",
"N. c #353754",
"B. c #4D3442",
"V. c #413C4C",
"C. c #463C44",
"Z. c #5C3E4A",
"A. c #423D52",
"S. c #463C5E",
"D. c #6E2844",
"F. c #763442",
"G. c #433F62",
"H. c #36414A",
"J. c #3D434D",
"K. c #3F4558",
"L. c #3F5553",
"P. c #46414A",
"I. c #52404C",
"U. c #444352",
"Y. c #4A4B54",
"T. c #4B4C5B",
"R. c #474557",
"E. c #514354",
"W. c #554F5D",
"Q. c #4C535E",
"!. c #60485E",
"~. c #604A57",
"^. c #69515E",
"/. c #554A68",
"(. c #595764",
"). c #5E5E6A",
"_. c #525965",
"`. c #5A5C71",
"'. c #555675",
"]. c #625E6D",
"[. c #6B5D6C",
"{. c #615F74",
"}. c #65656F",
"|. c #666574",
" X c #6B6776",
".X c #6C6D7B",
"XX c #676875",
"oX c #746A78",
"OX c #82697F",
"+X c #697082",
"@X c #727586",
"#X c #82768A",
"$X c #7E829B",
"%X c #888391",
"&X c #98869A",
"*X c #8B939C",
"=X c #878DA5",
"-X c #989EAA",
";X c #A799AC",
":X c #B3A6B3",
">X c #B4BBC5",
",X c #BBC0D3",
"<X c #CCC6D4",
"1X c #CAD0DC",
"2X c #DFD9E3",
"3X c #F8F1FF",
"4X c #FEFEFF",
/* pixels */
"        +                             .     X X X X X o X X     X X X X X X X X X                                         +     ",
"                            +   .           X X X X X X o X X X X X X X X X X                                                   ",
"            +                           o X X X X X X o = X X X X X X X X X X                                   .               ",
"                +                   X . X X o X X X = X X o X X X X X X X X X X X X X X     X   X       X     X           +     ",
"                                  o   X X X o X = X = o = X X X X = = X X X = X X X X X X X X X   X   o                     +   ",
"                    X       +         X o X = = = = = = = = = o = X X X X X X X X X = X = X X X X   X X +                       ",
"                                    X X X = X = = = - = = - = = = X = X = X = X X X X = = X = o X X X X X     X       +         ",
"                  X   X       X X X X X X = = - - - - - - - > - = = = X = = X = = X = X = - = = X X X X X X X                   ",
"                        X . X X X o X X = = = = , , , , > - > > - = = - = = = = = = = = - , - - = X X X X X X X                 ",
"        X   X       X     X X   X X = = = = - , , , , , , , , , > > > = = = = = = = = - - 6 6 - = = - X X X X X X X     X       ",
"          .         X     X   + X = = = = , , , , , , , , , , > > > = > = > = = - - > > - - : : 4 : - = = X X X +     X +       ",
"          X   X X     X X   X X X O = - - 1 , , , n n , x , , > > > > = > = > > = > , - - - , 1 1 1 - = X = X X X X X     X .   ",
"                    X       + X O = = = > , , b n n , x x x z z > v > > > > > > > > , , : - 1 1 1 : - - = X X = + X   X   X     ",
"          o     X X   + X o X X = X = = - , x , , x x x x z x z v v v v v v x < , , : > - - , : 1 1 : : - o o X X X X X         ",
"              X X   X   X X + X = = = = - > > > > z x x z z n n v v B B B n B M M < , - = - = - , : , - - = X X X X             ",
"          X       X   X .   o o X X = = = = > > v z z x z v v n n N N V V V C M Z Z 1 , < : ; X = - - = = = = X X   X           ",
"              X   X X X o % %   +   + X = = = > m > v v > n N Z T T N V ~ R F W Z Z Z = X O   + = = = = = X X O X X o           ",
"            X   X X X o o . # & . * . + X = < m > > V s.W P N.R.l.a.a.g.E B F C > | 6 X : @ @ g 4 : : = : X = + X X   X         ",
"            X X O X X X . % _ u.s u # . o 2 , = s.R @.R E a.f./ G.a.a.j.g.j.g.m Q < = J d s t.r.3 : : : = = = X                 ",
"            X     X X o o . 3 k p.q.y # @ 2 5 k.> V m B V a./.a.^ / ^ g.k.k.N.R.= K J 3 9.p.t.7.d : : ; = O X X X + X           ",
"            X   X O O X   . . @ u 8.p.a i #  XU C m B C E ^ R.s.E F W f.f.I f.`./.3 f e.D.0.y p 2 , : ; X X X X   X +           ",
"              X X O       o * # # u 8.i.f W.].S S P n C E ^ '.N.~ F I } A A I A &XX.w.e.j f . 4 : : = = = ; X X X +             ",
"      .       X       X o . . . @ # # # 2.:Xx.- 1 v.F +.^ B =X$XP =.| Z > 5 Z 5 ;X!.X.% @ *   O X O X X X + X O X +             ",
"        .       X     X       * $ .     &.2X:X#XA.M ,.m Q v.+X,Xb.A.| Z ,.I -.].3XW.X = +   +     X X X X X X X X               ",
"                        X X o o     9   c.4X<XV.J =.>.J.4.H o.5.h.,.z.,.z.K 1 z.1X*X9   O   * % X   X   X     X                 ",
"          . .             X o X + 0     *X>XY X I K H +..X).t 3.c.@Xn.w < K 1 = Y >X$.X 9 O . @   X   X   X       X             ",
"                    O   X X o o X o * ] ;XL X w = X r X 5.P.l %.H J.= O , X 6 6 o 6.&Xo o X X   X                               ",
"          .   .     X   X X X o o % % OXE.X D O.D }.]..X}.:.&.-.:.v._.K.Q.U.Z 7 ) % [.Y.X X X ; X X X   X                       ",
"                      O   O X - 3 % 6.}.  %.- J o.w Q.$Xr 4 [.%XE.X >.-XT.:.<.J 2 7 - .XD = X - X     X X                       ",
"                        O   X o o % XXr   r 6 6 .XH o.Y.Y 5.L <.<.1.J J.K w -.= : = = c._.X : X X   X                           ",
"              .         X + X X X 4.H.O r r H X =.x.X x.T.>.P < Q U Y.I X 3.K O q e X - |.J ; X X     X                         ",
"                      O X X X X 9 Y.0 9 O 0 : r 6 r | A.z.,.n.`.n.;.J.R.= o.e O O O S - ] U.= O X O X                           ",
"                X   X O   X +   H.n.O : O : t X + (.m.1 m.XXXX.X)._.V.Y T.;.X q ; X ; I : v.;.X = O X X       X                 ",
"                  +     :     o.c.K ; X X   X = o 5.M.%.L w M o.I 1 L L 3.3.; q - r X - L K z.X X   X X X X                     ",
"            X   X X X X + X   &.L X : X : = X X &.= r :.>.,.Y K =.+.>.D X r 0 : 7 X o X r X : Y X X   X X X     X               ",
"          X     X X X X   O r r     o o r o = 6 U.= = 1 w =.L H S K G X - L &.2 o 3 2 o - : X K ; X X     X   X       X         ",
"                O   X X   = t L o 8 o   2 1 6 T.R.L H = X H < < < q X ; Y 6 6.7 3 @ & .   %.  o.: O     X X                     ",
"          O X O X :   X = X : 5.Z.y.' 8 ) <.H {.+.< > = , H = O O G S w r L oXB.*.2.g _ *.6.Y.5.X + X   X X                     ",
"            X   X ; X X = X = -.^.Z.B._ ' | > ! M G F K < : 1 < < S S < 6 -.Z.7 & y.u.l 2.I.u.O X   X X X X                     ",
"            X X + X : 1 = = = X & { [ h 2 = Z = > > m m = D =.L w w X O , X X o @ 8 g l l @ . + X X X X       X                 ",
"            O + X X : : > - = - [ { h 3 5 5 x x v > > > > = = = = = = X = X X X o . . g [ *.g . X X X   X       X               ",
"          O   + + = : : 1 M J I h g 3 2 - - , > v > < > = = X = = = X = O O O X o . . @ & d g 8 X X X X X X   X       X         ",
"          + + X X : : 1 M H P I 3 3 2 5 - > > > > > > > > = = = o = = X O X X O     o % . @ & g o X X X X                       ",
"          O   X + = : < 1 M n M , 5 5 , 5 , = > > > > = = = = = = = = X X X         . o % % % o X   X   X X X   X               ",
"                X = = , < M M n , > , < > = > = > = > > > = > = = o X X X X X   O X   . o o X X X X X   X         X X           ",
"      O     O   X O X = > x N n v < > > > > > = = = = = = > = = = X = X X X   X     X X X X X = X X X X X   X X                 ",
"                : o X = > > > v v m > m < M > , = = = = = > > = = = O X X X X       X o X X X X X X   X X X   X X               ",
"              O X X = , , , x > v v v > M < > = = = = = = = > = = X X = = X X X o o X X X X = O X   X   X   X   X               ",
"          o + X + X = ; = : , , > > m > > > > - = = = = > = = = X = X X X X X X   X   X X X X X   X     +         X X         o ",
"          X   X + X o X = = = - , , , M n < < > = > > = = = = = = X X = X = X X X X X X X X   X                                 ",
"                  X X o o = = - > , b , 1 1 b , = - = > - : = = = X X X = X X X X   X     X     X   X               X     X     ",
"        X         X X X = o = = , > > > , , , : < , : - : : : : = o = o = X X X X X X X   X X X                                 ",
"                X     X O X = = = = > = = - : = - - = ; ; = : : X = X : = X X X   X   X X                                   X   ",
"                    X X X = X = = = = = = = = = = = = = = X = : = o = X X X X X X X   X X X X                                   ",
"                    X X X = = X = = X = = = X = O X X X + X X X o = o X X X X X X X   X X       X             .           .     ",
"                    X X X X X = = X X X X X X X X X X X X O X X X X X = + X X X X X         X                                   ",
"            +         X X X = X X X X X X X o +   X X X   X X + X X X X X X o X   X   X   X   X         +           +           ",
"                      X X X = X X + X o X X X X X X     X X   X X O X X + X X X X   X   o   X                     +           + ",
"                        X X X X X   X   X X   X       X   o X   X X X X   X + X   X   X   X     +   +                           ",
"        +           X   X X = X X X   o + X X     X     +   X   + X X X X X X   +   X X +     X             +           +       ",
"    +                 X X X X X X   X   X   X       X       X X X X X           X         O         +                 +         ",
"                        X X X X X X   X X X   X X   X   X   X X X X X X   X   X     X                   +                   +   ",
"                    X   X X X X X   X           X   X   X   X     X X X   X X       +             +                             ",
"                        X X = X X       X   X       X X X   X   X X   X X   X X                               +                 "
};
