/* XPM */
static char *RFZfc3Rhci4_[] = {
/* columns rows colors chars-per-pixel */
"64 64 242 2 ",
"   c #010102",
".  c #0A0303",
"X  c #050905",
"o  c #090906",
"O  c #02020B",
"+  c #0A030C",
"@  c #06090B",
"#  c #0B0B0B",
"$  c #130203",
"%  c #1B0103",
"&  c #14030A",
"*  c #1B040B",
"=  c #120B0D",
"-  c #1C0B0D",
";  c #110906",
":  c #12110E",
">  c #010313",
",  c #0B0314",
"<  c #040914",
"1  c #0B0C13",
"2  c #01041B",
"3  c #0C041B",
"4  c #030A1B",
"5  c #0B0C1B",
"6  c #120114",
"7  c #130C14",
"8  c #1C0B13",
"9  c #13021B",
"0  c #120B1B",
"q  c #1A0818",
"w  c #0F1014",
"e  c #0D111B",
"r  c #00111D",
"t  c #131313",
"y  c #181513",
"u  c #181916",
"i  c #14141C",
"p  c #16191C",
"a  c #1B1B1C",
"s  c #1A151A",
"d  c #230203",
"f  c #25050A",
"g  c #2A0608",
"h  c #240D14",
"j  c #2B0C13",
"k  c #250A18",
"l  c #27111B",
"z  c #351418",
"x  c #33090A",
"c  c #1C201F",
"v  c #030423",
"b  c #0B0423",
"n  c #030C22",
"m  c #0A0D22",
"M  c #04032B",
"N  c #0A042A",
"B  c #020C2A",
"V  c #0A0E2B",
"C  c #130C24",
"Z  c #150724",
"A  c #031226",
"S  c #0C1224",
"D  c #03132C",
"F  c #0C122C",
"G  c #08192D",
"H  c #03182A",
"J  c #121524",
"K  c #191324",
"L  c #141924",
"P  c #1B1B23",
"I  c #12152B",
"U  c #141B2C",
"Y  c #1B1D2A",
"T  c #1C152B",
"R  c #020D31",
"E  c #040F3A",
"W  c #031533",
"Q  c #0C1233",
"!  c #031935",
"~  c #0B1B35",
"^  c #03143E",
"/  c #041B3C",
"(  c #0A1339",
")  c #121733",
"_  c #131B34",
"`  c #1B1D34",
"'  c #141D39",
"]  c #191E3C",
"[  c #1A1430",
"{  c #2B1422",
"}  c #261A28",
"|  c #331627",
" . c #331E34",
".. c #1D222C",
"X. c #0A2239",
"o. c #1B2233",
"O. c #1D223B",
"+. c #182739",
"@. c #242325",
"#. c #25242C",
"$. c #2B2B2C",
"%. c #27292E",
"&. c #3D2129",
"*. c #34342F",
"=. c #232532",
"-. c #2B2731",
";. c #262A35",
":. c #2B2B34",
">. c #21253C",
",. c #252B3C",
"<. c #2A2C3B",
"1. c #2F223C",
"2. c #362938",
"3. c #2D313D",
"4. c #2C3137",
"5. c #313034",
"6. c #34353C",
"7. c #393A3D",
"8. c #393938",
"9. c #472935",
"0. c #041B44",
"q. c #001D49",
"w. c #071945",
"e. c #121D42",
"r. c #072347",
"t. c #1D2443",
"y. c #19294A",
"u. c #17314C",
"i. c #0B2956",
"p. c #132E5C",
"a. c #122D54",
"s. c #143159",
"d. c #1A3558",
"f. c #0D345D",
"g. c #222443",
"h. c #242A44",
"j. c #232C4C",
"k. c #292D49",
"l. c #2D3244",
"z. c #2C314E",
"x. c #263145",
"c. c #323542",
"v. c #343945",
"b. c #3C3C44",
"n. c #3B3D4B",
"m. c #363949",
"M. c #252E56",
"N. c #2C3455",
"B. c #26335D",
"V. c #293759",
"C. c #363955",
"Z. c #3A2A45",
"A. c #052D67",
"S. c #1A3765",
"D. c #0D3C75",
"F. c #1A3C73",
"G. c #163E79",
"H. c #0A3565",
"J. c #283864",
"K. c #343D61",
"L. c #203E70",
"P. c #323D73",
"I. c #252F64",
"U. c #413A4A",
"Y. c #4E3041",
"T. c #3D414D",
"R. c #3D4352",
"E. c #3F4659",
"W. c #1A426A",
"Q. c #1A4578",
"!. c #0E4073",
"~. c #25476F",
"^. c #374368",
"/. c #224374",
"(. c #244777",
"). c #3B4977",
"_. c #414145",
"`. c #44444C",
"'. c #49494D",
"]. c #47484D",
"[. c #454653",
"{. c #4B4C55",
"}. c #4D4F5B",
"|. c #44495B",
" X c #514E53",
".X c #5B4357",
"XX c #4E535B",
"oX c #54545B",
"OX c #5A5B5D",
"+X c #545358",
"@X c #695256",
"#X c #454A65",
"$X c #444A66",
"%X c #4D5364",
"&X c #4D536B",
"*X c #5B5B63",
"=X c #5B5C6A",
"-X c #555866",
";X c #495278",
":X c #545B75",
">X c #424B74",
",X c #615F66",
"<X c #7F5C63",
"1X c #5D6167",
"2X c #5D6277",
"3X c #65656B",
"4X c #676975",
"5X c #6C717C",
"6X c #74747D",
"7X c #767677",
"8X c #71736E",
"9X c #856572",
"0X c #1D4B89",
"qX c #455187",
"wX c #57628D",
"eX c #656C88",
"rX c #6E7489",
"tX c #727282",
"yX c #7A7B83",
"uX c #70768A",
"iX c #767C8A",
"pX c #787A86",
"aX c #6A759B",
"sX c #757C93",
"dX c #717AA3",
"fX c #817F8A",
"gX c #7C8285",
"hX c #7F859C",
"jX c #838487",
"kX c #888A95",
"lX c #9C9C9E",
"zX c #858DA9",
"xX c #9598A8",
"cX c #969CB8",
"vX c #8992B0",
"bX c #A09EAB",
"nX c #9EA2B0",
"mX c #A6A6AD",
"MX c #A8ABB7",
"NX c #B4B4BE",
"BX c #9EA5C2",
"VX c #A9AFC8",
/* pixels */
"                                                                  . .                       O O                                 ",
"                o o     o o                                 o +                   #     O   O                                   ",
"                @ o                       o         o o     o         # : o       t     o   O         o           o       # #   ",
"                  o o         @ @ o       o o O             o o .       .         o     o     o       @           o o     o #   ",
"                    o       o y : #           O   O                   @ @     o           X   u @           o @   o o o         ",
"                o o o         @ X           O O O O O                 # t @ @ t O   a @       : =     o     o #       # #       ",
"                @ @                     O O O O O O O     # p c p w @   O   O       a t   X           # o             o @ o     ",
"                                      O O O O O K c.*XyXjXjXgXgXpXgXuX5X4X}.<.K O O       t a   X     o         y o             ",
"      o       o             @.:   @   O O i <.6XMXbX4Xb.P @ 1   4 m U |.3X&X4XtX*Xm.O O O   P   :     #     o             o #   ",
"                      o #   t     O O @ *XxXfX*X4X1 O O O O @ O < 2 $XeXO.> C 3 <.=X4X-.o >   O @ @ o # o o #       . o     o   ",
"        o t             o       O O ..kXjX*XO  Xs O w O O i > > ' aXeXz.h.` > > > > -.3X[.O O O             o       o @         ",
"    X   = ..o               @ @ O ;.kX3.;.1 P 7.  #.O O O S O ,.vXwXV.V.j.I 2 O O O O O {.}.< O         o             o         ",
"    @     o   o o     o   o     4 zXT.e 6.  _.a #   1 O O > J zXaX;X^.N.] ` S O 0     O O c.T.1                                 ",
"    o           t             O iX2XU ..< 1 7.      t < < > cXzX^.I.J.M.) S e O   O   @ O O n.<.    o     @     o @       o     ",
"        o o     a o       o   _.rXt.4 ,.@ 4.$.    p   O > uXnX).).L.B.y.' L 1 w t         O O [...# @ .   : #   o @     @ o     ",
"                        o     6Xn.S 5 =.O _.    .   @ O %XcXwX).J.J.B.] F S @ w X   : X O O O 5 7.O                   o :       ",
"y   o                 O o   -.oXi O P 1 a 5.    y o   5 BXdXqXP.J.j.t.) S i O   # : o     O   O c.=.O       X o  Xo     @   @   ",
"                  1   O O < 1 i     O @ 2.l   .     O 2XcXwXqXP.M.e.) S I L @   #         o +   #.v.O O   #     #   O       o   ",
"      o           o O O , O @ O O   e   P . o   #     VXvXdXqXI.M.) F m S e O X     :   @.# . O 4 R.< O   #         +           ",
"      # : o             O 1 < O O P L o O # y y     O ,.sXhX).I.k.' F 4 < O   : :   y o w   i < O T.e O   X o   o     o   o     ",
"      @ a #   X @ #   O p `.> O O n.;.O 6.7 $.@.  .   O C.zX;XK.k.] ) m < O   1     o o c o     O ,.P   O   y         7 1 1     ",
"        y       1 1     oXb.O e Y 5X..{.P O   . @ p ..<.hXuX^.y.j.' m m e <     t           O O < o.=.O     u #       1 o @     ",
"            o         a 6X1 O e 5X5Xo.%X> Y c.{.6.6...>.,.E.%XC.h.Q m 4 4 1       X o X : #     O o.=.O @   o o   . O           ",
"  :       o u #   @   ,XyXi 5 O iX|.R.4X`.{.5 O   O > O O O >.C.>.I S 4 O O   o   X u X     O O O o.;.  o                       ",
"  a o           o   @.bX`.:.P O xX2XU %XJ O o.c.l.m.<.< > O O U l.I J > > O         o       @   O 3.,.              O           ",
"  #           o   1 3X@ 1 i U.<...L L 4 > >.,.c.Y 2 O > 4 < O O Y ;.5 < @                 X @ O O 3.;.O       X o               ",
"        X     : @ 7.t   @ -., < O l.;.> 5 < 2XxX:Xh._ I O O O O < =.J 5 O       :     o o     O O x.;.          t o   O       o ",
"        t     # t 6.    =.i O Y c.` Y < > ` VX#Xz.t.k.O.2 O @ O O 5 =.1 O       =     o o       O 3.=.O         o               ",
"    # t c o     $.a o O 5 :.O 3Xn.c.,.> < :XzXN.z.N.N.z.` >     O O P P O O   . .               O m.>.      @       O     @ o   ",
"    @ o : .     +X  O   1 b.O *X=.K 3 O O iXkXC.N.N.e.g.` O X ..O O O %.  O .       .         O O m.;.  o @ :   o + @   O # @ o ",
"              c 7.      O 6.1 :.} i 5 i 4 2XcX^.B.I.j.k.` > < %.O O O K 7 . . +   . . .         O m.o.  X   #   o .             ",
"              5.%.  t i O 5.> i *XJ O 5 n.` rX;Xk.j.e.1.m O # p . . 8 . } O . = .     . .   .   O m...O O   o                   ",
"  o   o t o   ].1   @ O   1 a  X2.#.@   ].E.< h.,.+.U L e + # ; . $ d * + p O 6 +   + 7 . . .     3.:.  X   1 w X   o o . .     ",
"  i y # o     _.o   O @ @   +X_.@ 1   1 O 3.U T.4.o.i O     . . . $ % % + y 6 6 , , 1 ; $ $ .   O %.].  O   @ p               . ",
"o *.@.# o   # '.O O     @ i  XU.7 O *Xn.4 e m > 4 < O O   . . ; & 7 $ % % ; - & * 8 = & % &   O   e 1X        o                 ",
"  o         t OX    %.:.O ;.U.'.:.O }.n.S #XuX:XC.,.J O         5 0 % d % % f f f l = ; * & O O O   *Xi O       X           .   ",
"        1 @ @.OX  1 yXw @ 0 mXVX-.5 > h.2 >.eX$X|.x.I 1 O . . ; < < 8 d d d g j k { q - 8 &   O O   _.].    o   o .             ",
"            $. XO O *X].P 1 =.yXO O > <.C.k.&X$XC.h.J , .   .   , 9 l g g g f j { } C 0 7 +       O ..3X    o t X               ",
"          O _.OX    {.6X#.6.> O [.<.> > 1.$XK.$XC.>.3 O . . ; - 7 h l j z j | | 1.[ ) F m >         O oX%.    #             .   ",
"    o :   o _.{.O @ P 6X}.O O O -.oXJ > > g.g.g.k.` m >       . $ j k { &.| Y.9.Z.g.e.^ B 4 <   < O O 6.OX                      ",
"  o = t     _.].O   O }.[.O O O O 6.T.> 2 > z.] >.I > O O   . . . % { 2.| 2..XY.Y.K.).p.i.W ~ O > < >   1Xi                   O ",
"      o   @ U._.  O O `.5 O K 5 < 6.3.e O _ l.>.) 5 > O O .     $ * + T Z.| 9.9X.XU.I.L.A.r.! ~ A 4 > < c.b.        . o o       ",
"    c u     '.8.O O O -X> T #.:.;.p ;.=.O o.|.:X2 < O O O o O o 6 } T O.1..X9X@X&.} e.S.!.D.F.S.y.A 2 < 4 XX@         o o     O ",
"    : o     _.%.  @ } ;.J b.<.<.b.c.=.L L > > ..> < m J S 5 5 3 I ` _ _ 1.&.x z z k [ w.Q.Q.0XG.V.G A > O T...                  ",
"  o     t   b.6.o J i O b.<.<.<.:.T...L < 4 S L }.%X%Xl.I > m ) V V ~ +.T q l &.&.j k b d.G.0XG.s./ A 2 2 U 6.X         O   O O ",
"  o          X%.1 +XP [.fXiXtXpX5X-X3.;.}.1XgX2XE.h.A 2 V ' ' Q e.R t.) > 6 } & j j f * ' /.0XG.0.! v A 2 < ;.e                 ",
":         # '.#.4XMXb.6.1.[.c.l.[.R.,.m.nX4Xo.O O 4 F Q Q Q ( ( E ( ) m C } I ,.O - x g 0 y.G.A.q.X.D ! 4 > e ..O               ",
"        o   5.jX  O , Y b.> O } I < e e < < < < S B A W e.e.w.E E ( o.C 6 C _ j.I $ x d & 2 S.L.S.p.a.! B 4 > 3.< o           O ",
"  @ o       1 ].*X@     ].].  O 6.n.U.n.+X..L O < n ! ! / J.i.0.0.' K { q q D N.F > % g f > H ~.Q.L.L.S.y.D 2 e :.          O O ",
"  : @   O     o 1 s } #   a +X:.3 {.=X<.`...e < 2 A r./ a.S.f.s.^ B 5 l s O F C.F > + * & O r d.Q.G.F.p.i.~ 2 O #.1             ",
"  o o                 @ @   t %.m.T n.b.T...,.> B X.B.^ i.S.F.s.u.G >.C 9 > 2 t.V 2 , 6 + O < u.Q.D.A.w.^ W B > P p o           ",
"              o o o   @ +     @ J =X;.L ..< L S _ M.^.0.I.~./.d.d.H z.m v _ > A I 3 9 9 3 > < X.Q.D.i.w.R D G < L P O       O O ",
"          o     5.u 7XOX  @       a jX*.    O 4 o.~ t.v ! ! D H A < D B Q z.L O 5 < Z b b 2 O H Q.D.H.f.r.H H 4 L P     .       ",
"  O         o i lXmXjX:.@           8.8X#   O < > > 2 2 2 / ~ X.@ r 2 y.M.j.o.O + > b N M v O 2 W.(.Q./.u.! o.G P 1 O   .       ",
"        o     %.7X:     o     o       7.@ O < m ] k.V.y.W R.u.H 4 r 2 y.V.X.J O , , Z M N v O 2 s./.S.s.r.A +.o.e O   .         ",
"  @     o     o @.      o             @.6.O > 2 2 Q j.N.M h.A 2 < < D / u.Q O + 6 9 b N v v O > W p.w.W B 2 U L O   .           ",
"                                  .   o 3XO < > 2 v ) z.h.2 4 < < ,.+.H G A O O 6 6 b b 2 2 , 3 M M M M M m 2 O O               ",
"                                    o   ,X    > > 2 m h.>.2 < O #.c.+.r r < > , 6 6 9 3 3 3 9 Z N N N N m 3 , O O               ",
"                                  . . *.8.  o @   O O e w   o   O , O O O < 6 Z q 6 6 , , , 9 9 Z N b 3 3 , , O                 ",
"                                  . : OX: . #   O O . @ @   ;   + + X X     + + 9 6 + + O + , 9 3 3 , , , , + O O .             ",
"                                + O  X2.. O       O O O   O .   &     X   X 7 0 6 & .     O O > + + + O O O + O .               ",
"                                O } oX.           O , 7 & + + . + .           . +         . O O O + O + .     .                 ",
"                                  -.}       o       o . . . . . . .               .         O     O .                           ",
"                                + .   o             . . .   . .   .             .                                         .     "
};
