/* XPM */
static char *_4423fc49a2948bcaeb22845694993fblkWIWWW7YBUSpJHO[] = {
/* columns rows colors chars-per-pixel */
"64 64 221 2 ",
"   c #050505",
".  c #080606",
"X  c #070805",
"o  c #090906",
"O  c #050609",
"+  c #090709",
"@  c #070909",
"#  c #0A0B0B",
"$  c #17160E",
"%  c #0C0E11",
"&  c #070512",
"*  c #110F11",
"=  c #0D1114",
"-  c #131313",
";  c #1B1712",
":  c #1D1C15",
">  c #1E1D19",
",  c #161518",
"<  c #130F0E",
"1  c #211D16",
"2  c #221E1A",
"3  c #25151F",
"4  c #1F201A",
"5  c #242216",
"6  c #24221C",
"7  c #29251D",
"8  c #2B291F",
"9  c #3F3413",
"0  c #2D270F",
"q  c #1C1B20",
"w  c #252422",
"e  c #2A2621",
"r  c #2D2A24",
"t  c #2F2B29",
"y  c #312C26",
"u  c #322C28",
"i  c #353226",
"p  c #35312C",
"a  c #3A352C",
"s  c #3E392D",
"d  c #393227",
"f  c #393432",
"g  c #3D3A37",
"h  c #2F3034",
"j  c #321728",
"k  c #441D20",
"l  c #423B2D",
"z  c #443D32",
"x  c #473E39",
"c  c #5A2539",
"v  c #564515",
"b  c #79631A",
"n  c #584923",
"m  c #4A443B",
"M  c #524A3C",
"N  c #65582A",
"B  c #7D6528",
"V  c #684F16",
"C  c #6E2743",
"Z  c #4B4947",
"A  c #544E45",
"S  c #5C5346",
"D  c #565452",
"F  c #645C4E",
"G  c #665D56",
"H  c #67614E",
"J  c #6A6459",
"K  c #736857",
"L  c #7A735B",
"P  c #5D5C61",
"I  c #7B7D6D",
"U  c #7A7364",
"Y  c #7C7D73",
"T  c #78797C",
"R  c #6F6A6B",
"E  c #C13130",
"W  c #9A5F35",
"Q  c #B34C27",
"!  c #8B772A",
"~  c #D2441C",
"^  c #9A3047",
"/  c #857D50",
"(  c #847A69",
")  c #857E72",
"_  c #AC7851",
"`  c #7D8577",
"'  c #7F806E",
"]  c #978955",
"[  c #A79444",
"{  c #8A866B",
"}  c #948D6B",
"|  c #999667",
" . c #848474",
".. c #8D8C74",
"X. c #878977",
"o. c #928D75",
"O. c #968A7A",
"+. c #8A9176",
"@. c #8D937C",
"#. c #869077",
"$. c #959274",
"%. c #9A9576",
"&. c #95947B",
"*. c #9B957B",
"=. c #95997C",
"-. c #9D9A7B",
";. c #9C9875",
":. c #A29C7C",
">. c #A0977B",
",. c #A5A17D",
"<. c #A8A17D",
"1. c #AAA677",
"2. c #C5885B",
"3. c #C09867",
"4. c #C3AD64",
"5. c #7C7B81",
"6. c #948C83",
"7. c #929682",
"8. c #949A81",
"9. c #9C9D85",
"0. c #9E9D8A",
"q. c #9A9581",
"w. c #A39E83",
"e. c #A29E8A",
"r. c #A89A87",
"t. c #A49E98",
"y. c #9DA283",
"u. c #9EA18A",
"i. c #A4A284",
"p. c #A9A484",
"a. c #ADA985",
"s. c #A4A48B",
"d. c #ABA68A",
"f. c #A6A98D",
"g. c #ADAB8C",
"h. c #B3AD86",
"j. c #B3AD8C",
"k. c #BAAF8C",
"l. c #B5B18D",
"z. c #B9B38D",
"x. c #B3B087",
"c. c #ABA792",
"v. c #A6A992",
"b. c #ACAC92",
"n. c #A8A596",
"m. c #B3AE92",
"M. c #B9AF92",
"N. c #B5A996",
"B. c #AEB192",
"V. c #B4B394",
"C. c #BBB594",
"Z. c #BEB995",
"A. c #B4B49A",
"S. c #BCB69A",
"D. c #BDBA9B",
"F. c #B7B899",
"G. c #9E9CA1",
"H. c #BDBBA2",
"J. c #BAB3A2",
"K. c #BAB6B6",
"L. c #AEA9AD",
"P. c #C1B694",
"I. c #C2BA95",
"U. c #C2B69A",
"Y. c #C2BC9C",
"T. c #C9BE9E",
"R. c #C1AF8B",
"E. c #C4BDA1",
"W. c #CABFA4",
"Q. c #C4BDAA",
"!. c #CBBFA9",
"~. c #C3BEB9",
"^. c #C6C19E",
"/. c #C9C29E",
"(. c #D3C59E",
"). c #C5C1A3",
"_. c #CAC4A4",
"`. c #CEC9A6",
"'. c #C6C2AA",
"]. c #CBC5AB",
"[. c #CEC9AB",
"{. c #D1C7A6",
"}. c #D2CAA6",
"|. c #D1C6AA",
" X c #D2CBAD",
".X c #D9CFAD",
"XX c #D6D0AD",
"oX c #DBD3AC",
"OX c #CCC5B2",
"+X c #CEC9B3",
"@X c #CBC4BB",
"#X c #CFCBBF",
"$X c #D4CCB3",
"%X c #D9CEB4",
"&X c #D4CDBA",
"*X c #D9CEBA",
"=X c #D2C6B4",
"-X c #D6D0B4",
";X c #DAD2B5",
":X c #D7D0BB",
">X c #DCD2BB",
",X c #DED8B6",
"<X c #E1D5BE",
"1X c #E2D9BE",
"2X c #E0D6B5",
"3X c #CDCAC6",
"4X c #D5CFC3",
"5X c #DDD4C2",
"6X c #DDD6C6",
"7X c #DFDBD8",
"8X c #E1D5C2",
"9X c #E2D6C2",
"0X c #E4D9C3",
"qX c #E9DDC6",
"wX c #E3DACB",
"eX c #EADDC9",
"rX c #E1D3C8",
"tX c #E8DED3",
"yX c #EDE1CB",
"uX c #E9E1C7",
"iX c #EDE3D7",
/* pixels */
"% # = % % = = = = = = = = = % % # # + + + . @ # < o o < # o o X X @ o o X o o X + + X # # o +                 X               O ",
"# % % % = = = = = = = % % = # # % % # # # + @ < $ X X @ # o o o @ . . # . o o . + + @ X # o @ #   + X +     @ .         O   +   ",
"# # % % = = = = = = % % % % % # # + @ @ # # + # $ o # o < o . . . o o o # . + o X @ # @ X + X       @                     @     ",
"+ # % % @ & % % = % % % % % # % + % # % < # # # # o o o o o . @ o # # # # # # o X + X . X . + @     X                           ",
"# # # # % # % @ % % % % % % % # % % # O     + - , - , w w q - - O           # # o . + . + X @ .         * X         O           ",
"@ + @ # # % % % # # % % @ = = = O   % g 5.G.L.K.~.K.K.3X3X~.~.K.L.G.R Z h > @   # + + # @ @ . . . @   : D                     O ",
"+ + + # # % # # # % % # # # *   w T K.7XiXtXwXwXwX6XwX6X7X6XwXwXwXyXiXtX6XOXn.D     # o . + +       .   X X                     ",
"@ . # # # % % # % # % # - & % D @XwXwX5X4X5X5X*X5X6X6X6X5X>X5X4X*X5X5X5X8X>X>XwXn.w   # . o X X +     +     X               O   ",
"@ @ X # # # # # # # # # @ ; :.yX5X&X>X8X8X5X6X8X5X9X8X<X5X8X5X8X5X<X8X5X>X>X X*X0X~.x   + @ X .   .   X                         ",
". @ X # # @ # < # # * = 5 4.2X#X&X5XrX<X8X5X8X<X<X8X*X8X9X8XrX8X4XrX5X>X<X*X%X$X=X5X9XD   . X     . .                   O O     ",
"X @ @ X # # # # # < @ : [ (.&X&X4X6X8X>X8X9XrX>X*X>X2X8X8X8X8X8X*XrX4X*X*X8X>X*X|.$X*XwXZ   # . + + .                   O       ",
"  + # # @ # # # * < @ ! ] 4X$X=X5X6X8X<X9X0X>X;XqX2X|.2X0X8X<X0X8X<X%X*X>X*X>X>X=X!.4X%X>Xf   + @ @           + O               ",
". . . # + # # # # O n ! t.5XOX4X5X6X<X8X8X>X<X.X>.S z M o.1X0X0X0X%X<X%X!.>X>X*X*XW.|.&X<X=Xw   + . X X     O                   ",
". + . X # o . # # : B g 6X!.+X4X5X8XrX8X8X0X XS 1 w 7 3 3 { qX8X8XqX].S f K Y.,X=X XW.*X&XeXQ.* X +                       O     ",
"X + # # o # + # O N 9 5.5XQ.4X4X6X9X2X8X<X<XJ ; r e 6 7 e r N.eX<X%XF 7 y > y r.;X|.!.=X4X&XyX6.  . . . @   O                   ",
"  @ X o # * # . : b Z 6X].@X5X6X9X9X0X5XuXM.2 6 6 7 w 6 r 2 ( yXeXr.j a y y 6 y P.$X!.W.>X&X&XtXD   # .   O     O           O   ",
"+ X + o o # @ # n N K.5XQ.@X5X6X8X<X8X<XuXq.1 e 6 e 6 7 6 2 H eX0XF e y r y y 1 F .XW.W.*X*X&X8XOX>     X @       X X           ",
"X X # o o # j C W r.4X&XQ.&X>X8X1X<X0X0XyXO.1 w 2 7 7 2 7 2 L yX Xs 6 7 8 y y r d P.!.E._.*X$X$X0X6.  + . X @                   ",
"+ . o # # 2 ^ ~ 2.=X&X=X~.*X>X5X9X<X0X9XqXN.7 7 6 2 6 r 7 2 ( yXOXz 7 7 r r t y d >.=XW.W.=X%X=X].;XZ   . . .     @           O ",
". + # o # c E Q N.#X5XOX+X$X>X6X9XwX0X0XqX_.y e 7 e e r r y r.yX=Xz e 7 y y t t x N.|.!.U.|.*X|. X).M.*   . X             @     ",
". # # . < c Q 1.:X&X#XOX|.{.[.8X0X9X0X0X8XqXJ 2 y 7 r 7 7 x %XqX<XA 2 t r y y u M  XW.!.W.E.=X|.|.U..XJ   +   .       X         ",
"o . . #   k _ *X:X$X&X'.W.|._.:X8X8XwX0X0XeX=Xm 3 r 7 r j ( eX8XeXG 7 r 7 y y u F <X%XW.W.U.|.=XW.].$XM.* @ .   .         .   @ ",
"o o + # O V R.<X=X+X+XE.C.T.|.>X<X<X<X8X0X<XeX=XR f u e A |.0X8XyXO.j r 8 r y r O.qX*X|.E.U.W.$X].)._.2XA     X   .         +   ",
". # + O v _ 4X%X$X=X!.U.D./.`.;X>X8X8X8X0X<X<X1X0XW.S.r.|.<X8X0X<X0X) d r 7 r K <X0X0X*XT.T.W. X*X|.`.2Xe.    X     X X X + -   ",
"o # O v B n.0X&X$X=XE.E.T./.|.$X:X,X;X2X8X>X<X:X>X<X<XqX0X<X<X8X0X<X0XJ.) O.d.<XeX0X9X9X$XU.T.{.$X{.{.}.-Xu     . X             ",
"#   9 b J wX-X$X&X X)._.I.W. X.X;X$X*X>X;X-X>X;X;X%X%X*X*X<X<X8X<X<X8X0XyXyXeX8X<X<X9X8X*XE.U.T.|. X X_.2XU   +   X             ",
"  ; ! r H.>X:X:X*X].Y.E.U.W.|.$X X X$X-X-X-X$X-X.X%X;X%X>X<X<X<X<X<X8X8X<X<X<X8X0X>X<X1X<X].U.T./.}..X[. XY.;   . . X X         ",
"# B 0 U 0X+X:X;X&X_.E.Y.P.W.|.|.[.[.$XXXXXXX X X.X=X%X X1X0XqX8X<X>X<X2X<X<X<X<X<X;X%X$X;X XM.U.I._./._.^..XS   . . X           ",
"] v w +X:X+X:X:X$X'.].U.U._.`.].`. X X-XXX[.$X$X[.].$X%Xd.K %.>X<X%X>X<X0X<X0X<X,X;X$X|.|..XP.z.I.U.(./.`.}.-.    X             ",
"[ $ X.,X$X:X:X:X_._.].E.U.E.`._._. XXX.X$X-X.X X XoXU.F 7 7 2 F 2X0X>X2X<X<X<X<X:X-X$X[.^./.C.j.T.U.I.T././._.a   .             ",
"] } '.$X[.:X:X:X'.OX].Q.E.E.W./.).[. X$X-X$XXX X;X:.u ; e y r w U 0X<X<X<X<X2X*X;X%X.XW.V.C.C.j.P.T.I.I./.Y..XU                 ",
"] D.-X+X$X-X4X+X'.|.].W.E.E.U.W._.[. X X-X$X$X,Xo.2 w 7 r y r r 7 >.1X%X*X2X%X>X-X-X[.S.d.m.U.z.z.I.I.I.).^._.j.;   X           ",
"1.].+X$X+X&X:X+X_.+X'.).E.E.T.T.).$X X X X$X;XX.6 4 e 6 r r w e r y z.,X%X:X;X-X$X.X`.C.j.S.Y.E.j.U.P.Z.^.).Y.`.A   .   X       ",
"H.+X].[.$X+X#X+X'.+X!.).U.Y.)./.).`. X X X;XM.e 4 7 e 6 6 7 6 6 7 3 S  X.X$X-X.X$X X_.l.j.S.Y.C.C.P.I.z.U._.I.}.*.  .   X X     ",
"[.[.'.[.+X+X+X[.].+X'.'.E.S.Q.E._.[.].[. X,X{ : 6 6 6 2 6 5 6 2 5 7 r ( .X`.$X-X.X$X].M.j.C.S.S.E.z.U.P.Z.`.T.^.U.a             ",
"[.OX+X+X+XOXOX'.!.+XQ.!.E.S.D.Y._. X_.`..XS.p 6 7 7 2 2 2 2 2 6 2 2 w s P.`.$X X$X$X$XS.d.C.S.S.Y.z.U.P.l._.^.I./.L     X       ",
"'.OX'.OX+X@XOXOX].'.Q.+XD.S.S.E._.|.`.`.oX{ : 7 r w 2 6 : 6 6 6 5 6 5 > %..X|..X X X`.Y.j.j.D.E.^.Y.M.U.l.)._.E.T.d.;           ",
"'.].].].+X'.'.'.!.'.OXOXD.M.Y.T.'.`.`.[.-XK : r 7 6 > > > 2 6 6 4 4 4 : F .X X X X$X`.E.d.a.S.Y.E.).k.P.x.I.`.E.Y.I.A           ",
"'.].'.].].).'.].Q.].+XOXE.m.C.U.'._._.`.;XH : 6 7 6 6 6 : : 6 6 6 > 4 : s /.$X$X X X[.Y.w.d.C.T.E.`.V.C.k.z./.T.Y.U.} #         ",
"'.].OX].OXJ.].;X=X#X+X=XD.j.Z.Y.)._./._.-XL : e 6 5 5 6 6 : : 6 6 > 1 : d U.-X X[. X`.S.w.<.V.Y.).].Z.l.k.x.T.I.Z.Z.x.d         ",
"].'.'.[.'.b.OX>X-X$X&X&XD.g.D.Y.{./._.`..X%.1 7 5 6 6 6 w 7 2 6 : > 6 : s I.;X[. X[.`.S.w.:.k.Q.].).Y.M.z.x.I.I.I.Z.z.L   X     ",
"].].].].H.u.'.-X-X-X$X:XD.j.z.I.^.).^.`.[.z.y 7 r 5 5 5 6 6 6 5 : : 4 : z /..X X[. X`.D.w.:.M.Y._._.T.V.P.h.^.P.Z.Z.z.p.6       ",
"+X X[.).A.u.].-X4X5X-X$XD.j.C.Y.^.Y./.`.`.).m 4 8 6 7 4 6 6 1 6 : 2 6 : M }.[. X X X].E.p.d.m.U.).).^.C.z.k.I.C.Z.Z.z.z.F     X ",
"[.+X+X'.s.u.OX>X>X>X;X:XD.b.S.P./.Y.^.{._.XXF : r e e 4 4 6 6 5 1 > 6 : L .X).`.$X|.].Y.w.p.j.U.)._.).U.j.k.z.I.z.C.z.l.%.#     ",
"[.+XOXA.9.s.Q.5X:X:X:X-XV.m.Z.D.^.I./.^._..Xw.r r r r 8 6 6 6 5 > 6 1 5 :..X_. X X$X_.S.p.w.a.S.)._.).Y.j.z.C._.C.Z.z.j.k.f   @ ",
"+X'.H.s.9.s.J.,X-X$X;X-Xm.V.C.Z.Z.Z.Y.^.^.`.[.M r i r 8 6 6 2 5 1 2 $ l T.}.|. X X[.|.S.:.w.a.S.).).E.).z.z.z.E.^.C.C.a.z.J     ",
"'.H.d.0.s.s.J.:X;X$X-X[.m.M.z.Y.D.Z.Z.^.)._. Xa.l y i r w 5 4 4 4 $ $ L .X`.|.$X$X[.[.j.:.:.w.C.).).H.^.z.z.h.Y.D.C.C.j.j.*.<   ",
"F.B.s.e.n.v.H.-X-X X$XE.m.b.C.^.Z.z.D.).)._._. Xi.i : w 6 7 : $ * s { /.`. X`.[.$X[.).g.r.-.w.j.E.).Y.^.C.j.h.^.Y.Z.z.j.a.h.a   ",
"A.s.s.s.u.J.OX[.-X$X[.C.m.m.z.Y.C.C.C.^.^.^.[.`.XX,.l 4 ; ; 5 M } U.}._.`.`.`.`. X|.E.m.w.>.w.m.Y.).Y.).S.j.h.z.Y.z.z.j.h.j.K   ",
"u.y.s.s.u.'.+X'.-X-X_.C.V.m.l.Z.Z.z.U.Z.^._.`./.[.[.I.} L { <.XX.X_.W._._.`.`.[.[. XE.j.>.>.:.j.D.).^.Y.Y.j.j.z.D.x.j.l.a.h.o.* ",
"0.e.i.e.J.+X+X'.[.;X'.l.b.V.C.C.Y.Z.Y.^.^.`./.).)._. X$XXX X-X[.)._.W.)._.`.`.]._.[.Y.i.:.-.:.g.D.).H.Y.D.j.j.C.Y.C.V.l.a.a.p.f ",
"9.i.e.v.'.+X+X].[.-X[.V.b.m.D.).V.V.C.D.D.D.).).E.)._.).D.E.)._.[.[._.W._.'.)._.[.`.d.w.w.;.:.g.D.H.^.Y.Y.j.j.Z.E.V.l.l.a.p.a.J ",
"9.i.s.J.OX'.+X]._.;X[.j.d.j.C.D.l.j.l.C.D.D.H.^.T.D.).H.F.B.m.D.'.[.]._._.).)._.[._.p.d.q.%.-.a.D.D.^.Z.D.l.1.Z.Y.Z.x.j.r.:.a.o.",
"-.8.s.H.'.].OX].).[.`.g.s.m.C.Y.C.C.l.C.Y.D.D.D.^.D.D.D.F.b.b.b.F.).]._.^.)._./.)._.w.s.-.%.-.a.D.D.).Z.Y.V.p.z.I.I.z.j.a.p.p.%.",
"q.y.F.'.'.OX].&X'.].`.a.s.j.C.Y.l.D.l.j.D.Z.D.).D.^.D.D.S.S.F.f.s.A.).].).E._._.).S.-.i.*.%.;.<.V.Y.^.I.Z.z.:.x.Z.Z.z.j.,.:.,.;.",
"%.f.S.'.'.'.[.$X'.).`.j.i.j.z.F.l.D.C.l.V.C.D.Y.D.D.F.F.S.H.H.F.g.y.B.).).T.Q.E.`.m.$.p.*.%.%.,.z.D.).D.Z.V.:.h.z.Z.z.a.,.>.,.,.",
"=.v.H.H.'.'.`.-X'.F._.j.i.b.V.S.l.C.U.Z.l.V.F.D.D.S.F.V.B.F.H.H.A.s.y.D.).).).D.).j.-.e.%.o.o.,.l.D.T.D.P.C.:.1.Z.D.l.d.:.:.<.-.",
"y.B.F.'.'.).[.-X[.g.D.b.s.g.C.V.j.V.V.C.C.F.B.H.F.S.V.F.b.b.H.H.H.A.y.v.H.H.).E.E.V.-.0.o.o.o.:.l.D.D.D.Z.C.w.:.V.Z.j.j.:.:.,.%.",
"y.B.H.H.'.'.+X#X:Xb.B.l.0.l.C.V.l.V.V.g.g.V.B.V.F.V.F.b.f.b.A.).H.H.v.y.A.D.H.Y.E.S.O.*.X. .o.-.d.D.D.C.S.V.i.-.j.C.h.a.:.-.-.;.",
"v.A.H.H.).'.+X+X-XA.s.V.0.g.F.d.d.b.g.g.f.b.B.f.B.V.b.V.b.v.b.v.F.H.A.y.s.F.H.D.E.c. .X. . .o.%.d.H.D.F.C.V.s.-.a.l.a.p.-.*.$.$.",
"u.b.A.H.).'.'.+X:XH.8.V.s.b.V.l.p.B.v.s.u.0.u.u.v.B.b.m.v.f.v.v.v.v.u.f.y.f.A.A.A.` T Y `  .+.%.p.H.D.V.F.V.p.;.i.l.x.y.-.%.=...",
"f.V.A.S.).).'.+XXX_.9.v.i.a.B.l.d.f.B.s.u.8.7.@.8.f.v.v.v.v.f.7.7.` #.u.y.8.b.B.7.I Y Y Y  .$.+.g.D.V.V.V.l.i.%.p.l.l.,.$.$.*.$.",
"f.f.V.D.D.H.H.'.'.'.y.y.s.p.b.f.y.9.y.y.9.7.@.@.+.y.v.b.v.8.#.` ` ` @.u.y.@.u.B.X.I I I I ..+.{ g.F.l.B.V.B.,.;.,.a.a.-.$.$.$.o.",
"p.V.V.C.D.F.F.).'.^.s.-.` #.B.d.8.=.y.y.=.7.8.@.+.#.y.y.8.7.7.` #.#.=.8.y.8.@.u. .I ' ' { ..{ } V.F.B.x.l.f.,.} ;.,.,.%.;.o.+..."
};
