/* XPM */
static char *e03718e4193a4229f03f5a6b8188fdd0xol9cWeLyHUIQsS7[] = {
/* columns rows colors chars-per-pixel */
"64 64 241 2 ",
"   c #17112A",
".  c #19122C",
"X  c #1D1532",
"o  c #1E1539",
"O  c #150F29",
"+  c #221633",
"@  c #251935",
"#  c #291A37",
"$  c #22173B",
"%  c #24193B",
"&  c #2C1C3B",
"*  c #321E3D",
"=  c #381E3E",
"-  c #32203E",
";  c #251943",
":  c #2A1C45",
">  c #2B1C4C",
",  c #251845",
"<  c #321E42",
"1  c #321E4C",
"2  c #381F4C",
"3  c #2E1F53",
"4  c #321E52",
"5  c #2D204D",
"6  c #352242",
"7  c #3B2344",
"8  c #35234D",
"9  c #3B244C",
"0  c #3C2A48",
"q  c #342254",
"w  c #3B2354",
"e  c #3B255B",
"r  c #39265A",
"t  c #2F2152",
"y  c #3C2966",
"u  c #45264A",
"i  c #452A4B",
"p  c #46284A",
"a  c #452B54",
"s  c #4C2B52",
"d  c #432B5C",
"f  c #4B2D5C",
"g  c #452657",
"h  c #552E55",
"j  c #532C5B",
"k  c #5B2E58",
"l  c #4C3555",
"z  c #54335B",
"x  c #5B345B",
"c  c #573458",
"v  c #41314B",
"b  c #64355D",
"n  c #4B2D62",
"m  c #432C67",
"M  c #552E64",
"N  c #4C3266",
"B  c #583668",
"V  c #4B3377",
"C  c #573673",
"Z  c #623C6D",
"A  c #673864",
"S  c #763C6B",
"D  c #633D74",
"F  c #6C3C74",
"G  c #663C7B",
"H  c #753E74",
"J  c #5D426D",
"K  c #694268",
"L  c #78446D",
"P  c #6A4676",
"I  c #744373",
"U  c #7B4974",
"Y  c #794779",
"T  c #755478",
"R  c #864879",
"E  c #86537C",
"W  c #964B7E",
"Q  c #553C8E",
"!  c #5A3E8F",
"~  c #5B3C84",
"^  c #5C3F90",
"/  c #573F90",
"(  c #623A80",
")  c #5D4191",
"_  c #774783",
"`  c #775582",
"'  c #634392",
"]  c #6B4694",
"[  c #644A96",
"{  c #6D4996",
"}  c #6D4C98",
"|  c #734A96",
" . c #754D98",
".. c #7B4E99",
"X. c #7A4C95",
"o. c #7C529B",
"O. c #75529B",
"+. c #6C4383",
"@. c #7E6184",
"#. c #884B85",
"$. c #974C86",
"%. c #895486",
"&. c #935484",
"*. c #97578A",
"=. c #84539C",
"-. c #8B569D",
";. c #8C589F",
":. c #8A5698",
">. c #92599F",
",. c #975894",
"<. c #804F9A",
"1. c #A5578C",
"2. c #A75C96",
"3. c #B05491",
"4. c #9B6697",
"5. c #916890",
"6. c #A5628E",
"7. c #A76898",
"8. c #B5689B",
"9. c #A9739D",
"0. c #B7729F",
"q. c #8D5BA1",
"w. c #845AA0",
"e. c #935CA1",
"r. c #9A5EA2",
"t. c #A05FA3",
"y. c #9462A5",
"u. c #9B62A5",
"i. c #9D69A9",
"p. c #A364A6",
"a. c #AB65A6",
"s. c #A46AAA",
"d. c #AB6BAA",
"f. c #A869A7",
"g. c #B36CAB",
"h. c #B969A7",
"j. c #AC72AE",
"k. c #A976A5",
"l. c #B372AE",
"z. c #BA73AF",
"x. c #B877A6",
"c. c #AE78B2",
"v. c #B576B0",
"b. c #BB76B1",
"n. c #B57BB4",
"m. c #BD7BB3",
"M. c #B16BB2",
"N. c #C05E9C",
"B. c #C3699E",
"V. c #C66BA7",
"C. c #C372AD",
"Z. c #CC73AC",
"A. c #C37BAD",
"S. c #C777A9",
"D. c #D475AD",
"F. c #C376B1",
"G. c #CB75B1",
"H. c #C47BB4",
"J. c #CB7CB5",
"K. c #C878BA",
"L. c #D47CB4",
"P. c #DB7BB5",
"I. c #D577B4",
"U. c #C96CAF",
"Y. c #E47BB4",
"T. c #EA7AB5",
"R. c #EA7DB6",
"E. c #EB7AB4",
"W. c #E97CB6",
"Q. c #D27AC4",
"!. c #B685AA",
"~. c #BA86B9",
"^. c #B18AAB",
"/. c #C682AE",
"(. c #C483B4",
"). c #CC82B6",
"_. c #C484B9",
"`. c #CB84B9",
"'. c #CD8BBC",
"]. c #C58CBA",
"[. c #D384BA",
"{. c #DB83BA",
"}. c #D48ABD",
"|. c #DB8CBD",
" X c #D283B4",
".X c #CB96BC",
"XX c #D694BE",
"oX c #D480AF",
"OX c #E484BA",
"+X c #EC83BA",
"@X c #E48CBE",
"#X c #ED8BBE",
"$X c #E681B7",
"%X c #E891BE",
"&X c #D789C4",
"*X c #CB98C4",
"=X c #D493C2",
"-X c #DC93C2",
";X c #D59BC3",
":X c #DC9CC7",
">X c #CC8FC0",
",X c #E28CC1",
"<X c #EB8EC1",
"1X c #E988C4",
"2X c #E493C2",
"3X c #EB94C3",
"4X c #E59AC5",
"5X c #EB9AC6",
"6X c #E39DCA",
"7X c #EC9DC9",
"8X c #E994CB",
"9X c #F194C4",
"0X c #F39BCA",
"qX c #F897CA",
"wX c #F79BD3",
"eX c #D8A5CB",
"rX c #D9ACD0",
"tX c #E4A3CC",
"yX c #ECA3CB",
"uX c #EBAACE",
"iX c #E3AACD",
"pX c #F1A4CD",
"aX c #F1A9CF",
"sX c #E5ABD1",
"dX c #EDACD1",
"fX c #ECA7D5",
"gX c #F3ACD2",
"hX c #F7A8D7",
"jX c #EBB2D4",
"kX c #E7B5D6",
"lX c #F3B3D5",
"zX c #F5BBDA",
"xX c #F6B4DB",
"cX c #E9B1CF",
"vX c #FBBBE3",
"bX c #F8C3DD",
"nX c #EAC1DE",
"mX c #FBC4E6",
"MX c #FCC6E9",
"NX c #FEDBF3",
"BX c #FDD3EF",
/* pixels */
"Q Q Q Q Q ^ [ ^ ' '  .o...<.>.>.a.a.U.G.G.I.P.Y.T.T.E.T.E.E.E.E.E.E.E.R.R.+X+XY.OXL.Z.C.g.a.t.e.-.<.X.| ] ' ' ! ! Q ) [ / Q Q ) ",
"[ [ ) Q Q ! ) ' ' ]  .=...-.>.t.a.g.C.G.I.P.Y.Y.Y.E.E.Y.E.E.E.E.E.E.E.+XR.+XW.Y.P.L.G.G.z.a.t.r.e.<.X.X.] ' ' ^ ! ! ) ) Q Q Q ) ",
") ) Q Q Q ! ! ' ' ] ....<.:.>.a.a.h.F.G.I.P.Y.Y.Y.T.E.E.E.+XE.E.E.E.E.E.W.W.W.Y.P.P.I.G.V.g.p.r.q.<.....] ' ' ^ ! ! ] / Q Q Q ) ",
") ) ) Q ! ! ! ' { { | ..<.>.>.a.a.z.G.I.I.Y.Y.OXW.T.T.T.E.E.E.E.E.E.E.E.1XW.OXY.Y.P.L.J.F.g.a.p.e.q.=...| ] ' ^ ^ ! Q Q Q Q Q Q ",
") ) ) Q Q Q ^ ' ] | ..<.-.e.t.a.g.V.G.I.P.P.Y.+XW.W.R.R.+XR.E.+XR.+X+X+XR.R.+XW.OXP.L.L.G.z.g.a.t.-.q...| ] ' ' ) ) ) Q Q Q Q Q ",
") ) Q ) ) ) ' [ | | X.<.>.t.p.g.z.G.G.I.{.$X$X+X+X+X+X+X+X+X+X+X+X+XR.+X+X#X+XOX$XOXP.L.G.C.b.a.t.e.-.<.X.| ] ' ) Q ) Q ) Q Q Q ",
"Q Q Q ) ) ) ) ' ] | ..<.>.r.a.g.H.G.J.P.@XOX+XOX+X+X+X+X+X+X+X+X+X+X+X+X+X#X#X+XOXOX{.L.G.F.z.a.p.r.q.<...o.{ { ) ) ) ) Q Q Q ) ",
"Q Q Q ) Q ) ) ' | ..<.-.e.p.a.h.H.J.L.P.OX#X1X+X<X#X<X#X9X+XqX+X+X<X<X#X#X+X#X#X#XOX{.{.L.J.z.g.a.p.q.-... .] { [ ) ) Q Q Q Q Q ",
"Q Q ^ ^ ^ ' ' ] | ..-.q.r.p.g.b.J.J.{.{.OX<X3X0X9X3X0X9X9X9X<X3X9X#X#X#X#X#X#X%X%X#X%X$X[.[.F.z.d.s.e.q.....| ] [ } ^ ! Q Q Q Q ",
"Q Q ) ' ^ ' ] ] X.<.-.e.p.a.z.H.J.L.{.OX@X3X5XaXgXhXhXpX0XpX0X9X9X9X9X9X%X%XqX%X#X#X%X@X{.L.H.z.l.a.r.e.w...| { ' ' ^ ^ ) Q ) ) ",
"Q ^ ! ! ' ' ] o.=.w.q.e.p.a.z.J.[.{.{.@X<X0X0XlXmXmXmXzXhXpX|.Z.D.#X9X9XaXpX9X5X%X#X@X@X|.[.J.H.l.a.r.e.e... .| ] ' ' ^ [ Q ) ) ",
"Q Q ! ^ ' {  ...=.w.r.r.a.g.b.J.[.{.,X3X5XpXxXvXBXNXNXBXmXgX7.P S.0.K E W oXpXpX%X%X%X@X|.{.[.H.b.g.f.r.e.=...| ] ' ' [ ) Q Q Q ",
") Q ) ) '  . .| =.q.r.t.d.g.F.J.[.{.@X3X7XpXlXmXBXNXNXNXBXxXp.C S.6.R S.B.E W 4XpX%X%X%X%X|.}.`.b.l.a.u.q.-...o.{ ] ' ^ ^ Q Q Q ",
") ^ ^ ' ' {  .o.=.q.r.f.g.b.G.[.{.|.2X3X8XpXlXiXdXMXMXMXvXpX#.B S.6.S.hXpXB.K L %XpXyX%X%X|.{.).H.b.d.s.e.q.=.X.| ] ' ' ) Q Q Q ",
"Q ^ ) ' { | | ..=.e.r.f.g.F.J.[.|.@X2X3X5X0XXX%. XhXhXhXhX'.%.P S.B./.|.oXR p # U 7X5X%X4X%X}.[.J.b.l.f.r.e.q...| ] ' ' ^ ^ ) Q ",
") ) ' ] ] | ..=.-.r.s.g.z.H.J.}.@X@X%X5X0X5XY a L.qXqXwX|.4.4.,.XXx.E L L b - . # 0.aXyX5X4X|.XX`.F.v.d.p.e.q...X.{ ] ' ^ ^ [ Q ",
"[ ) ' ' { | ..w.>.r.s.n.C.H.L.-X,X2X%X5XpX0.q w 2.<X#Xx.%.,.b.(.uX.XU K c i - X # b %XuXyX4X2X-X&X_.b.g.s.r.q.q.o.| { ' ' ^ / ! ",
"^ ^ ' ' | X...e.e.u.d.b.H.J.[.-X2X2X5X0XpXk.P n n Y Y _ ,.k.-XpXmXjX9.E K c l T T l !.aXyX3X2X|.}.`.b.v.d.u.e.w.w...{ ' ' ^ / Q ",
"' [ ] | X...=.q.r.p.d.z.H. X{.|.<X3X0X0XtX~.c.Z e n F _ 7.m.-XgXmXzX/.4.E K T .X.XK %.uXyX5X4X-X}.`.H.b.d.s.r.q.....| ] ] ' ! ! ",
"' ' ' { | <.<.q.u.f.b.b.J.[.|.,X2X5XyXpX'.%.I n w A #.H P *.k./.jXtX!.7.c i 0 B K d B yXuXyX4X2X-X}.J.m.v.s.u.q.=...| ] { ' ^ ! ",
"^ ' ' | | <.q.e.u.g.b.F.J.}.|.2X3X0XpXaXXXL.I d &.Z.8.R L U #.E |./.x.7.c 0 8 5 ; > d XXpXpX5X2X-X{.'.H.m.j.u.e.q.o. .{ ] ' ^ ^ ",
"^ { | | ..w.q.r.s.g.b.H.[.|.2XyX5XpXpXlXzXyXY Y B.V.Z.8.6.*.*.E x.4.%.5.%.B 6 6 1 > 8 ].aXyXyX4X-X-X}.H.b.l.f.e.q.w.w. .] ' ' ^ ",
"' ] ] | X.q.e.p.f.g.F.J.[.|.@X4X5XyXpXaXtXl.D M S W 1.L p 7 R S.tX'.Y l i c z @ u 9 5 k.gXpX7XyX4X-X[.).m.l.d.u.q.<.o.o.] { ' ' ",
"' ' ] X.<.q.e.t.d.z.H.J.}.@X2X3X5XyXuXgX(.d g s * 7 u p - + u H.xX].z 7 & @ & # X s q ` gXuXyXyX4X-X-X`.H.v.v.i.e.q.=.o.{  .' ' ",
"' ] | X.=.e.u.f.g.b.`.[.|.2X2X5XyXpXpXgX9.> f + . # u p u = k 8.:XA.p - u * & # X @ u B tXhXyX7X4X-X-X[.H.b.j.s.r.q.q...| { } ' ",
"] | | ..e.e.u.a.g.H.J.[.|.2X3X5XyXpXaXaXP d < X # 6 b W W R R W *.R R L S S b u # X * f .XgXaXyX7X4X-X}.`.H.v.d.u.e.e.w.o.{ O.[ ",
"' | ..<.q.e.u.g.b.H.`.{.@X2X5X5XyXaXgXXXn f - & - h 8.1XR.V.3.N.$.I W V.OXOXD.S 7 # @ 8 9.lXgXyX7X4X-X-X[.(.b.j.p.e.e.w...|  .} ",
"] | ..q.q.u.d.v.b.`.[.|.|.3X5X0XyXaXlX9.g 0 u i i b 8.V.B.E.D.N.B.$.a.A.h.1.W b * . . % T dXgXyX7XyX2X-X}.`.b.l.f.u.q.w.o.| { ' ",
"| ..o.-.e.r.v.v.H.J.[.|.2X3X5XpXaXaXgXT g 6 v K E 6.8.P.1XE.V.W W &.F.fX3XD.a.G & . . + f XXlXuXyXyX4X-X}.`.H.b.d.u.e.q.w.| { ] ",
"| o.q.q.r.p.g.b.H.[.|.@X4X5X5XyXaXgX.XN i 0 c L x.pXxXhXOXV.V.V.A s H ,.P.qXwX&.& X . . 8 k.lXaXdXyX4X2X|.[._.m.v.s.e.q.=.o.o.] ",
"..w.q.e.r.s.M.b.`.=X|.2X2X5XyXpXgXlX4.n s c L 5.J.xXBXvX,XG.Z.7.Y C B H 2.9XqXW & X X . o T aXgXgXuXyX2X-X&X`.H.l.d.u.e.w.o.o.{ ",
"..=.q.e.M.j.b.H.`.{.-X,X5X7XpXpXgXyXK l l K E 7. XaXzXvX:XL.*.%.#.P +.F #.P.D.u + . . . X y .XlXgXyXtX4X-X-X>X_.b.d.s.r.q.=. .{ ",
"o.q.e.u.f.l.b.H.}.@X%X%X5X0XpXaXlX9.r - - v b U 6.(.fXtX>X6.U U U U B C D >.#.+ . . . . . < 5.lXaXyXyX5X%XXX}.`.m.n.s.i.e.=.o. .",
"w.q.e.i.d.v.H.`.}.XXXX4X5X0XpXgXuXJ 5 # & - v b K %.m.x.g.7.E L L R L M F t.:.u + . . . O & Z eXlXaXcXyX4X:X=X`.H.z.j.s.y.-.o. .",
"q.q.u.j.v.b.H.[.|.XX4X5XpXpXaXgX!.q @ X @ # - - 0 A Z.W B K b i - = < u S OXV.k * + . . . + h k.lXaXaXyX4X2X-X}.(.m.j.s.y.q.=.o.",
"q.y.i.j.m.m.`.[.|.%X%XyXpXpXgXgX` : . . . + + @ & 6 b i - - 6 - + . . + < S b u X . . . .   u I uXgXuXyXyXtX:XXX`._.v.d.i.y.-.o.",
"y.i.s.v.b.(.[.=X%X%XyXyXpXaXgX;Xf X     . . . . + + . + * - # @ + + . . X X + # X . .   .   + k ].lXlXyXyXtXtXXX'._.n.v.s.i.q.=.",
"i.i.j.n.~.`.}.-X:X4XyXyXaXgXlX5.%         . . .   . . . @ & # . . X . . . . . . . . . .   .   & 5.lXlXaXyXyX%XXX=X`.m.n.c.i.y.-.",
"i.j.c.~._.}.|.XX4XyXyXuXaXgXcXJ .   .   . . .   .   . . . + + . . . . . . . . . . . . . . . .   - .XlXcXyXyXtX:X-X'._.m.c.i.y.q.",
"j.c.n._.'.XX:X:XyXyXuXaXcXlXiX0 . .   .     . . . . . . . . O + . . O . . . + @ + .   .   .   . O E lXlXlXuXtXtX:X>X_.~.~.j.i.y.",
"c.~.~.>X>X=X6X6XyXuXaXlXlXlXcXv   . . .     . . . # # + . . O . . . . . X + 2 S b & X . . . . .   l uXlXlXdXtXcX6X=X>X_.n.v.j.y.",
"n.~.].*X;X:X:XfXuXaXlXlXlXzXbX^.+   . X @ # X . @ A $.R A k u < 7 u 7 u u x W 2.$.7 . . . . .     v iXzXlXgXuXdX6XtX:X].~.n.j.i.",
"~.*X*X*X;XiXsXfXcXlXlXjXbXbXbXbXT X 5 8 6 ; X . 6 +.*.8.Z.V.$.8.$.h.8.N.V.2.a.#.B 7 . . . . + .   T zXzXlXjXjXuXsXtX;X=X~.~.c.s.",
"~.*X*XeXeXsXdXjXjXlXzXbXzXbXbXeXP 5 o o X . . . 6 i f B Y R #.#.#.:.#.,.&.I Z h < . . . . . & : 0 ^.cXzXzXzXlXjXsXtX;X=X>X~.~.c.",
"*X*XeXrXsXsXjXzXzXbXbXbXnX*X%.r o X X o o X   .   + # # < x S 1.R Z n 0 7 6 @ . . . . + $ % @ @ % 8 l T ^.cXzXuXfXsX:X;X>X>X~.j.",
"*XeXrXkXjXzXkXcXrX;X^.%.J 8 o @ & - % % X   .   . + & & * h &.L.#.M w . . . . . . . . + : d B K l & X o & P .XzXdXsXsX:X*X>X~.n.",
"rXrXrX*X^.5.` J N B ` T z 0 9 g : . . . .     . . + & p b U 8.fX2.G f # X . . . + X X X : z 4.sX].Y z l z z J ^.jXjXsXeX:X*X~.~.",
"rX^.` m r q r e n _ '.iX7.K d q q @ . .   . . . + # - l E 7.`.xXz.%.B = @ @ % + + # # @ * i %.sX~.Y B P x.eX0.K %..XsXsXeX*X*X*X",
") r 5 t n D P D D P 7._.%.0 > > > 3 X . . .   + + - p A E /.7XgX_.p.#.Y ~ ~ m m e < < 7 7 7 R 2.K M a K {.xXk.P j f 5.eXeXeX*X.X",
"; 5 t y C *.z.k.%.F C +.z - o > > 4 , . . + + # - v b E 9.2XxXMXxX6X:X8Xu.C g 2 G #.A A A b *.F a u - a a.4.Z n 4 w ; P eXeXeX*X",
"t q r J %.k.7XlX/.%.P a 0 & @ > > 3 f u & .   . @ - b 6.|.gXxXvXhXwXb.-.N 3 4 M _ &X&X,.,.3.3.Y k u * 9 X.M & 1 > 4 4 , @.kXrXeX",
"> 5 q N Z 4.fXsX(.4.R u # # 6 9 w n $.3.R c s & & h E %XqXx.0.9X&Xm.=.~ w 3 2 n I d.&XM.L.8XP.h.R b h a f < & @ : : 4 3 r ~.rXeX",
"> > 3 q U oXk.*.f.:.#.W R S 3.2.7.*.2.{.qX9X Xz b k 6.OX6.W I.I.h.F.;.C 4 4 4 w n B H $.G.wXhXI.$.b s = n n 2 F F M M 4 t 5.kXrX",
"> > r U $X&.M N C C G +.A $.N.9X1XI.$.Z.3XwX{.R 1.8.R 6.L S.9X-Xg.-.X.V 4 > > 4 w g f B H *.[.[.$.H s s F F A R S 2.,.Y D 4.nXnX",
"> r %.2X*.e z < B f C n C Z ,.$.,.,.#.%.a.[.D.1.0.%X6.L W @X3XC.,.e.=.V 2 4 M s A H k x k k F #.#.2.h.P.V.W $.G.3.L.1XL.C.&XnXnX",
"> > 4.(.m e & + h l D N m ~ 4 m C P B C | F U E 8.9.6.!.XX X8.8.K.K.M.P g g 3.3.1.U.2.2.a.h.8.,.g.1X8XwXqXU.H $.Z.#.8.:.H %.`.kX",
"w h Y.2.q w . O . . X & : 5 o : % : % % 0 i c U 7.(.6XfX4XA.).{.M.1X&Xq.n g k f s k F _ | p.Q.P.&XhXwXQ.z.C.P y Y D y q e y M 5.",
"h x.qX%.y 4 . . . .       . . . + + # - i z L &.x.8XxXvXmXxX6X8.7.K.M.=.n g R F.:.Z k A M V >.N.h.2.L.g.G +.V r y 3 3 > > t 5 0 ",
"U 7X8X#.C * + . . .     . .     . . . X # 0 l K %.(.tXMXmXtXx.Y -...( ~ d 7 A #.h.z.U.h.#.h M W $.N F :.m 3 r y , t o o o o ; . ",
"k #.#.H 2 . . . .   . .     . . . . . X @ 6 a B U %.f.H.fXxX}.8._ N V m < x S.E M R Q.Q.r.C 4 M ( 3 : M V $ . 5 q o X X . X X . ",
"& w g N # O . O         .   . . X o X o % 5 q a z B P ,.[.2X0.R z 9 @ + & x 7.D.Z N x P ..' #.M y o O $ y %   . X . . . .   . . ",
". > q s + X X X $ . X X X o % ; : , $ , ; : : 5 q w d z &.6.L x 6 X   + * &.S.U h t y & 4 m #.k X O . O 5 X   . . .       . . . ",
"  > 1 < o ; 2 g g 1 1 1 t 3 t 5 , , , , ; ; , : : 5 : & & 7 7 & @ @ .   + p 8.U 3 . 3 V 4 @ & < . . O .   . . . . .   . . . .   ",
"  < 1 X X o & 2 j 9 1 > > ; ; ; ; ; ; ; $ ; $ ; % o X . . # - # X X + .     i &.V 3 o y Q V q % . . O . .   .   .   . .     . . "
};
