/* XPM */
static char *_cc0d2056b26462a9ad8434fae54ed9azSk5726MGuQ1crga[] = {
/* columns rows colors chars-per-pixel */
"64 64 256 2 ",
"   c #020102",
".  c #0B0100",
"X  c #0B0A02",
"o  c #01010B",
"O  c #09020B",
"+  c #010A05",
"@  c #130100",
"#  c #1B0200",
"$  c #1C0B00",
"%  c #130A06",
"&  c #1B1303",
"*  c #000111",
"=  c #080415",
"-  c #071518",
";  c #240100",
":  c #2C0300",
">  c #220C01",
",  c #2B0C00",
"<  c #330300",
"1  c #330C00",
"2  c #3C0D00",
"3  c #241300",
"4  c #2C1300",
"5  c #2A1807",
"6  c #341301",
"7  c #3B1402",
"8  c #341A02",
"9  c #3C1A01",
"0  c #3A1B09",
"q  c #36190B",
"w  c #2C1911",
"e  c #3B2401",
"r  c #372604",
"t  c #392B12",
"y  c #372B2A",
"u  c #430C00",
"i  c #441502",
"p  c #4B1401",
"a  c #441B03",
"s  c #4B1C02",
"d  c #461D0B",
"f  c #541C01",
"g  c #5B1C00",
"h  c #551600",
"j  c #631E00",
"k  c #721D00",
"l  c #4B2302",
"z  c #4D2B02",
"x  c #4C250B",
"c  c #4C2A0D",
"v  c #442506",
"b  c #542401",
"n  c #5B2403",
"m  c #532B02",
"M  c #5C2C01",
"N  c #57260B",
"B  c #4B3505",
"V  c #5C3302",
"C  c #583706",
"Z  c #4A2B14",
"A  c #442814",
"S  c #522C15",
"D  c #4A3616",
"F  c #5A3716",
"G  c #622400",
"H  c #6B2500",
"J  c #622C01",
"K  c #6C2C02",
"L  c #682B0B",
"P  c #742B02",
"I  c #7A2801",
"U  c #633301",
"Y  c #6C3401",
"T  c #6C3B01",
"R  c #673809",
"E  c #733303",
"W  c #7B3402",
"Q  c #733C01",
"!  c #763808",
"~  c #673917",
"^  c #783913",
"/  c #503825",
"(  c #6D3F24",
")  c #5A4304",
"_  c #58461A",
"`  c #4C4913",
"'  c #694605",
"]  c #734402",
"[  c #7A4401",
"{  c #744901",
"}  c #7C4B02",
"|  c #79480C",
" . c #785407",
".. c #684718",
"X. c #774714",
"o. c #755417",
"O. c #6A5213",
"+. c #746109",
"@. c #524929",
"#. c #6B4625",
"$. c #774923",
"%. c #795724",
"&. c #6A552E",
"*. c #7D632A",
"=. c #6F6335",
"-. c #862B00",
";. c #8B3401",
":. c #863704",
">. c #953C01",
",. c #963B04",
"<. c #873E13",
"1. c #834402",
"2. c #8B4401",
"3. c #834C02",
"4. c #8B4C02",
"5. c #87490B",
"6. c #9C4401",
"7. c #974705",
"8. c #845203",
"9. c #8B5401",
"0. c #885908",
"q. c #935303",
"w. c #9B5903",
"e. c #965706",
"r. c #894815",
"t. c #964B15",
"y. c #8A5816",
"u. c #965916",
"i. c #A34B01",
"p. c #A84704",
"a. c #B44D07",
"s. c #A35B01",
"d. c #AA5703",
"f. c #B55B08",
"g. c #A95815",
"h. c #B65B18",
"j. c #A54918",
"k. c #9A6506",
"l. c #986616",
"z. c #906A12",
"x. c #A46B01",
"c. c #A86607",
"v. c #B36301",
"b. c #B76706",
"n. c #AB7705",
"m. c #B97707",
"M. c #A76917",
"N. c #B56815",
"B. c #A6751C",
"V. c #B87A17",
"C. c #885A25",
"Z. c #8D552C",
"A. c #B35B22",
"S. c #8A662B",
"D. c #976726",
"F. c #987729",
"G. c #996937",
"H. c #896F2F",
"J. c #A96928",
"K. c #AB7927",
"L. c #B57827",
"P. c #A46C35",
"I. c #A67934",
"U. c #B6732E",
"Y. c #C36C07",
"T. c #C57805",
"R. c #C46811",
"E. c #C37917",
"W. c #D2760D",
"Q. c #C37923",
"!. c #C45408",
"~. c #93764B",
"^. c #BB8409",
"/. c #B98619",
"(. c #B9991E",
"). c #A88627",
"_. c #BA8727",
"`. c #AC8436",
"'. c #B78637",
"]. c #B89A36",
"[. c #978138",
"{. c #C68407",
"}. c #D78809",
"|. c #C78917",
" X c #D68914",
".X c #CA9819",
"XX c #D99718",
"oX c #D89507",
"OX c #E68D02",
"+X c #E89505",
"@X c #F49B07",
"#X c #E28A14",
"$X c #E59818",
"%X c #FB9E13",
"&X c #D4A61D",
"*X c #F7A609",
"=X c #F8AA15",
"-X c #FEB61A",
";X c #ECA714",
":X c #C98825",
">X c #D58A26",
",X c #C79528",
"<X c #D79727",
"1X c #C68737",
"2X c #CA9537",
"3X c #D69837",
"4X c #D18D39",
"5X c #E69926",
"6X c #E59B37",
"7X c #CBA53B",
"8X c #D9A536",
"9X c #D8AB2B",
"0X c #E9A525",
"qX c #FAA927",
"wX c #E9B327",
"eX c #FAB825",
"rX c #E7A836",
"tX c #F4A734",
"yX c #E6B639",
"uX c #F7B939",
"iX c #FDC529",
"pX c #FBC839",
"aX c #F2CE3D",
"sX c #FFC61D",
"dX c #B89744",
"fX c #B58F4E",
"gX c #B5A161",
"hX c #D29848",
"jX c #E19D47",
"kX c #DBA846",
"lX c #D9A752",
"zX c #DCB657",
"xX c #C9A44D",
"cX c #E7AA46",
"vX c #E8B647",
"bX c #F6B747",
"nX c #EAB957",
"mX c #F8B858",
"MX c #EDAB4E",
"NX c #D1B16B",
"BX c #F1B96B",
"VX c #DB9E67",
"CX c #ECC34B",
"ZX c #F8C546",
"AX c #FECB54",
"SX c #F9C559",
"DX c #FED15B",
"FX c #F6CD4F",
"GX c #FBC966",
"HX c #FED768",
"JX c #FFCB74",
"KX c #FCDB74",
"LX c #E5C66D",
"PX c #ECD460",
"IX c #FBD182",
"UX c #D6BB90",
/* pixels */
"    o o       .     + +   o O , Q d.}.=X*X*X=X+X%X@X@X@X>X2X] F.> UX) ).CXaXsXsX=XoX}.*X*X+XT.i.7.Y : .   +     o o o o         ",
"    o o       .             @ m c.{.$X=X*XoX@X@X@XOX%X XN.p 0.zX# =.S.) yXiX-XiX-X;XOX+X%X*XoXb.d.5.l #         O o o o         ",
"    o o     .   .         . 9 y.^.wXqX$X-X+XOX=X X>XK Q l.Q ZXDXl @ =.e /.oX*XsXeX-X@XOX+X=X=XXXE.M.| 8 .       o   o           ",
"          o   .         @ 6 { (.wXwX0XpXsX*X=XXXs.h s G.'.J 0XnXC.@ e v k.^.*X+XeXeX*X+XOX*XpXeX{.c.y.C >                     o ",
"          o .   .   O . # V n.<XDXaXpXFXiX=X{.:X4.| g I.MX} i { fX8 r 1 } Q.%X%X*X-X*X*X*X-XiXiX}.v.c.[ z .               o o o ",
"        o o         O . 6 0. XXXDXDXAXpX9X8Xk.] P.X.L j vXz.1 xXfXB %.; b V.#X%X+X*X=XsX-XiXiXeX0XT.V.e.R 4 .         .     o * ",
"          o     o   . $ U V.XX0XZXHX(.].z 6 `.T VXg Z.2 m ].B gXH.e S.p n N. X XOX+X*XeXiX-XeX;X;X}.T.s.| z @               o * ",
"        o             5 z.,X<XuXSX7X) +.B # m ' P.Z.~ u C dX' $ ' m 9.l.V.:XXX5X}.}.+X=X-XeXeX+XT.W.b.i.:.X.3 .           o o o ",
"    .   o       o     _ )./.8XJXI.' ' O.C # 3 &.8 _ #.N y.0.).0.lX0.x.vXvXrXn.wX0X}.+X{.oX0X$X$Xf.p.d.6.2.| c .         .     o ",
"                  . r +.z.' '.n H.c o.O.%.5 ` @.3 $ v F ' I.z.GX,XuXtXuXpXk.8.AXuXXX{.oXm.}.$XY.f.d.p.d.7.y.' 4     o           ",
"        o         . _ H.].{ S.7 ( ( ..F gXr _ D t 3 $ H.; p i.XX0XeXwXpXuX9XHXDXpX9XXX{.T.T.Y.R.b.d.6.d.b.M.X.z @   O o         ",
"    o             3 o.C ].dXF 0 ( *.&.e gX5 . D ` ) 5 F.D.e.5X$XqXDXeXiXpXpXAXHXCX^.k.XXm.Y.v.v.E.v.6.d.N.M.0.C > . o o   +     ",
"    O           . c D.N S.S.D =._ o...C ~.H.@ ~ ..T 0.x.kX<X{.;XAXuXoX-XpXpXZXAXZX8XK :XQ.E.W.|.Y.N.N.2.v.c.e.' 8 @ o   +       ",
"                $ R I.I.s z r =.r *...C # o.R G.l.] <X<XXX XXXuXAX5X0X=XiXwXZXAXbXMXE g 9.c.T.n.m.V.M.>.w.c.M.0.x #       + o O ",
"  o         o O 4 | hXBXi ~.&.` . &.B %.T `.hX|.>XW. X0X$XXXuXAXZX<XqX$XwXaXvXyX<X5XMX1.J } m.T.{.^.2.4.w.w.V.e.~ >   + +   O = ",
"o             . z y.Q.BXM ~.+.` ` ` D ..'.B.c.$XW.}.5X XXXpXuXAXDXvX<XXXbXAXyXyXtXtXmXmX3X,Xn.{..XV.p 5.w.9.c.4.X.4 .       O = ",
"o     +       # R M.:XMXy.R S.C @.@.=.5 : 2X{. X XW.XXXXwX&X.XSXGXSXyX<XZXZXuXuXtXtXSXMX|..X^.&XvXnXn u.4.:.q.0.Q z @ O       o ",
"O     + + + . : r.N.|.8XK.U dXm ` _ F z '.8X X$X X|.m.<XcX2XK.K.F.IXGXGXvXHXZXtXtXtXbXbXqX$XXX9XzXD.a J.w.1.9.[ ] z # .         ",
"        +   . 9 y.Q.{.8X'.m D.] F ~ y.hX:XXX<X$XoX{.,XlXC.s , # $ *.LXLXzX0.AXuXuXtXbXbX0XrXmXkXxX< } hXM.q.3.[ ' C 5 .         ",
"            @ c u.:X|.|.).M 8.lXG.D.JX8XrXrXXX0X0X.X:X} ; # # . . . B gXC z DXyXuXZXvX,X5XuXjXT p f nX2X_.M.E { ' c t .         ",
"            @ ..K.m.|.x.B.V V 2X].BX9XaXbXnXbXrX0X X/./.].F.O.. . % . 3 $ o.7X8X9XyX8X/.{.bX4XJ J _.mXcXL.k.Y M C c A . .       ",
"    o +     @ %.L.b.m.n.0.0.k.2XnX9X&XaXvXCXSXbX5XE.|.rXCX].xXO.  O X . # I.V.|.8X7X,Xn.d.5XjXhXhX2X3XcXV.3.Y n z A D . .       ",
"    o   o   3 H.hXV.c.x.l y.k.2XvX&X&XCXFXzXSXmXjX>X<XrXSXGXNXB .     . o.`.w.n./.(./.n.v.{.3X3XV.Q.3X/.k.} b V l A / @ .       ",
"    o     . 3 I.3Xm.E.q.M z.k.,X,X.XCXFX7X2XkXGXJXjXcX3XnXdX8 # X .   . %.l.c.w.T F._.x.v.b.8X,X2X|.V./.9.{ U M s A D & .       ",
"      o O   z I.2Xb.L.M.i 3.B.4X X<XJXSX,X(._.vXJXJXBXlXfX; # . . .   . o.u.w.u.b 1 P.U.L.Q.2X_.:XQ./.k.9.3.U V v A D 5         ",
"            B F.|.V.4XJ.J J 1XjX>XjXJXMX|.^./.8XGXJXJXBXz . = O   .   . o.u.e.t.~ ; Z.fXI.U.} u.M.c.c.q.8.} Y R a d D q . O   o ",
"+     o   . ) l.E.3X4XJ.8.7 9.jX>X6XmX>Xm.n.|.3XDXnXKXNX@ . +   o     . ..u.5.y...7 1 7 L ~.< ; y.w.w.[ [ [ ! ~ s a Z r @     o ",
"          . O.z.:X5X4XL.J.9.4.MX>X6X6Xm.m.x./.kXyX7XLX) . X     o o   & o.y.3.} ..F ; ; # ; ; X.y.e.9.[ T ] ] ] f s S A @       ",
"  +       @ O.B.,X>X3XL.V.vX_.3X4XrX3XV.m.x.^.<X8XzXfX@ @ o o   o   + r y.8.8.{ C O.O.V 6 4 %.y.y.e.3.Q Y ] } } J l m c .     o ",
"          # O.).>X>X6X_.,X8X<X<X,XrX8X:X:Xm.^./.kXxXx O % o o o   +   r y.8.0.8.' ' { | *.o.D.Y 3.3.[ Q T [ z.0.T m m Z @ .     ",
"o o     . $ ' _.,X.X3X_.9X.X:XrX.XyX8X<X4XV.|.|.'.y.$ y O           . 6 Q u.e.y.5.} } [ o.X.| 5.[ [ [ } | y.B.k.] b m F @ .     ",
"o o o   . $ ) `.rXT. X|.,X&X/.|..XyX2XxX:XM. X3X'.%.&.@..           . @ f u.r.l.9.3.[ y...X.5.1.[ } 9.y.y.l.K.l.Q b l F @     + ",
"o o o o   & r  .yXm.<X,X|.^.|./.9X7X0.T K.c.V.cX`.&.~.X . X   o %   . . # %.r.7.s.q.8.} {  .4.4.5.] 4.9.0.k.l.| T M s Z %       ",
"    o     5 r 5 kX.X<X<XV.V.M.l.).dXe S.lXN.|.vXF.[.` + y @ @ ~.t .   X . A y.Q 4.M.} { { Q u.g.5.} c.k.k.l.D.M J n l Z %       ",
".         & y # K.cXm.|.:Xe.u L x , 7 IXnX].kXAX7X].*.&.5 # dXBXF .   + o   ..| 3.e.3.{ } 3.e.e.5.3.9.x.k.B.y.n f n m Z @       ",
"    + + + + / > NXlX XXX|.hXS.# < i P.IXGXGXGXHXCX7XfX~.8 8 xXdXB @       & > ..T 8.8.} Q y.J.u.5.4.4.x.k.l.] s h n l Z .       ",
"        + X @.# C.fX3X{..X9X7X .1.1X,XrXHXHXKXKXDXHXLXgXNX+ F.dXt . @ . t ` O 3 ..C.T W 4.3.D.5.p 3.q.k.k.l.] n f J l A . .     ",
"          X / 4 # V 2X^.iX9X&Xn.m.V.x..XvXCXKXHXKXPXPXKXLX+.3 ~.8 . @ 4 %.O.e # ; X.] K t.u.U 2 Y l.c.w.k.9.n n n M l t . +     ",
"+ + o   . @ F #.# c xXK.7XCX&X{.b.v.x.n.,XvXvXcXGXJXLXnXCXnXv v > @ @ m C.| X.V < : M ' X.M i { u.u.w.q.u.[ U U n n l A .       ",
"+ + o . O @ B C.z # l : 0.vXwX$X}.c.x.x.^..X<X:X4XJXGXAXZXmX~.# @ . . #.C.y.5.y.G.b 1 : ; n u.D.y.u.g.9.1.T U m m n l t .       ",
"+     . @ # m  .+.C , : u lXbX XV.f.s.x.b.{.m.T..XMXSXAXuXcXS.; . @ . e m X.| C.S.%.A ; F C.y.3.1.D.u.Y E ] V V b m x q         ",
"+     . . @ z } ).)._.M.U.hXbX|.b.f.s.w.s.m.{.XX^.bXtX3XcX0.# . .   O @ @ # , m ~ a 0 / $.T Q r.E 5.2.K J R M M n n Z q .       ",
"      . . . v  .B./.|. XjX>X0X{.m.v.2.t.P.J.K.,X8X,XkX).B & X o o o   X     .   . ; d ( Y Q 5.K J Q | K J L m l m m c 5 .       ",
"O o         8 X.B.n.v.T.5XtX{.{.n.k.s.t.g 2 8 8 C ' B > X +   o o o     o o       . 1 ( G K 5.G n M ! ! M N l a m l Z > X       ",
"O o         > #.G.h.N.Y.5X$XT.|.^.z.[ < ; # . . . . . . X +   o o     o o o o O % . # F L J W E n b Y L N N l 9 b l A @ O       ",
"O o o       @ / Z.h.a.f.#XT.{..X/.k.u u.~.# . o   o . + o o o o   X . .   w y y   @ > c V G P E J b L N d d d 9 m l A @ O o     ",
"    o     . @ Z X.g.d.T.}.Y.T.T.m.3.V.3Xl.V @ o +       O = O   + X @ 1 ~ Z.y . . . 6 R L f n ~ n m n p 2 7 6 9 m x A .   o     ",
"    +     . . v r.2.v.v.W.d.d.b.W.}.0X0XV.U @ = o +     O O   + & r s r.Z.! # @ . . l V L g N S l s f i 7 0 7 7 z x 0 .   o     ",
"      o     + 3 | 4.7.s.E.f.d.d.T.qXeX$XV.] . * * o +   + o   . ; b J.7.X.s # . O $ l L G g d x s a a 0 0 8 9 a l S ;   o o     ",
"        o o   $ U 2.7.6.N.N.Y.v.T.}.uXuXE.{ @ o * -         . @ C D.>.2.$.# @ @ . t ~ L j j N d a i 0 0 8 4 7 9 x A @   o o     ",
"      o o o   @ m 5.4.7.f.f.f.v.v.0XuXqX#Xq.; @   o O   - o . # Z.u.5.| m @ @ . > S ^ H j g N 7 7 7 q 0 8 6 6 9 F 0 . o o o     ",
".       o o   @ a | 1.d.N.d.a.Y.d.T.qXqX+Xb.M @ O o     o + . l J.t.Z.M ; 6 5 . S F H G j g a q 7 7 6 6 4 1 7 s F > .           ",
".     o o     . > ~ :.7.f.f.f.R.N.s.b.}.#XQ.o.3       .     > $.t.g.~ ; < Z > # ( ^ H H G f d a 7 7 7 6 1 1 9 l Z $     o o     ",
".         +   . @ c ] 2.i.R.R.f.N.d.f.T.1X0.,     . . . @ @ ~ ^ Q r.C # N $.# q ~ I ! G g f s s i 6 1 6 2 7 a Z r .             ",
".     +       . . 6 ~ Q i.R.f.p.Q.g.s.9.U >       @ # x < N X.E r.X.~ 7 $.~ ; f L ! L G s s f i 9 6 6 2 7 i d A &   +       .   ",
".   o   +       . @ ~ E 6.h.p.,.6.N.g.0.#.5   + . @ ~ $.G ^ <.E K r.s 7 ( < u ^ ^ ! L N f b g f 9 4 6 7 i i d A @   +     o . . ",
"              o   . v R 7.g.p.;.,.a.Q.t.0 . o   @ ~ r.:.P I :.! H ! n s 7 ; G t.I ^ N g N f f p 9 6 1 7 d d S 5 .             . ",
".               o   $ R 1.7.>.;.,.6.h.t.1 @ 3 $ N Z.j.-.;.I P :.! <.L n 9 : ^ t.I ^ L N f d s i 6 , 7 d i S A $                 ",
"              o o   . c ! W W -.,.-.a.h.5.L R n t.g.h.,.-.I H P :.5.:.f q ; ^ <.I ^ L g f p d 7 6 , 7 N d S q O                 ",
"                o   . > F Y E -.-.,.a.!.g.t.:.2.7.p.A.j.-.I P P :.:.W h q @ L I P P P j f d 0 7 6 6 a d d S > .             o   ",
"o                     . A ~ E W W >.a.!.a.;.;.i.p.a.A.t.j.,.I 4.,.-.P f d ; g j k k g h i i q , q 7 d a c q .   o               ",
"        .             . # F K ! E W a.R.a.,.,.,.,.,.;.-.j.j.j.j.t.-.P g f 2 g N j g h p i i q q 7 d x a c >   +   o .         o ",
"o o . .                 . 0 M Q ^ K ;.,.<.t.t.7.,.-.k I -.,.h.6.,.,.P j H g N N g g h i 2 7 7 2 i d x l 6 @     o o   .         ",
"      . .           o o . @ U ! X.r.-.-.;.<.<.t.:.,.k k -.>.6.>.,.<.^ L -.k L S g j N p 7 7 7 7 d d d x # .     o o . . .     o "
};
