/* XPM */
static char *result[] = {
/* columns rows colors chars-per-pixel */
"64 64 256 2 ",
"   c #010201",
".  c #0B0201",
"X  c #020902",
"o  c #0D0A03",
"O  c #01030B",
"+  c #0A030A",
"@  c #020A0B",
"#  c #0A0A0B",
"$  c #120401",
"%  c #130B02",
"&  c #1B0C01",
"*  c #190808",
"=  c #0D1308",
"-  c #1C1203",
";  c #13120B",
":  c #1B130B",
">  c #1A1707",
",  c #010412",
"<  c #020B14",
"1  c #0D0B11",
"2  c #040219",
"3  c #140D14",
"4  c #160814",
"5  c #071217",
"6  c #1B1416",
"7  c #230D01",
"8  c #250804",
"9  c #330D00",
"0  c #241402",
"q  c #2B1301",
"w  c #2B1A02",
"e  c #2A1C0C",
"r  c #251808",
"t  c #341304",
"y  c #351C04",
"u  c #3B1B02",
"i  c #311A0B",
"p  c #3B1D0B",
"a  c #371505",
"s  c #271717",
"d  c #321B14",
"f  c #361E17",
"g  c #3B2202",
"h  c #3E240E",
"j  c #392608",
"k  c #282219",
"l  c #3B2414",
"z  c #372716",
"x  c #292209",
"c  c #221A22",
"v  c #352222",
"b  c #411600",
"n  c #421A01",
"m  c #481D06",
"M  c #571F00",
"N  c #442304",
"B  c #4B2302",
"V  c #44240C",
"C  c #49280D",
"Z  c #562808",
"A  c #59350A",
"S  c #4C2C14",
"D  c #472916",
"F  c #542C11",
"G  c #552A14",
"H  c #5B3414",
"J  c #5A3716",
"K  c #4B3414",
"L  c #632D02",
"P  c #6A2E01",
"I  c #652E0D",
"U  c #6A3406",
"Y  c #62330B",
"T  c #6C350C",
"R  c #683708",
"E  c #7B3B05",
"W  c #72360A",
"Q  c #7C3C0C",
"!  c #743907",
"~  c #6D3C14",
"^  c #683716",
"/  c #743C15",
"(  c #7C3E12",
")  c #753A17",
"_  c #752F0D",
"`  c #452A23",
"'  c #553326",
"]  c #663924",
"[  c #794308",
"{  c #6B441B",
"}  c #6B4413",
"|  c #7D4414",
" . c #73421A",
".. c #7B491A",
"X. c #784318",
"o. c #6C430D",
"O. c #5E4429",
"+. c #784724",
"@. c #6B4423",
"#. c #823D0B",
"$. c #853D07",
"%. c #8C4B0C",
"&. c #894309",
"*. c #96480A",
"=. c #94530C",
"-. c #844215",
";. c #8B4C13",
":. c #8C4B1B",
">. c #874619",
",. c #934B14",
"<. c #994E18",
"1. c #8E521B",
"2. c #885112",
"3. c #945113",
"4. c #9B541C",
"5. c #9A5718",
"6. c #A34806",
"7. c #AA540E",
"8. c #AE5D0D",
"9. c #A3580B",
"0. c #B45E0D",
"q. c #B8570A",
"w. c #A44B13",
"e. c #A95C14",
"r. c #A3541A",
"t. c #A35A1C",
"y. c #AC5C1B",
"u. c #A95514",
"i. c #B35C1C",
"p. c #B65916",
"a. c #B8670C",
"s. c #AF6418",
"d. c #BB621C",
"f. c #B76618",
"g. c #874B24",
"h. c #9A4E23",
"j. c #9A5826",
"k. c #8E5635",
"l. c #A85826",
"z. c #AC5E2C",
"x. c #9F6128",
"c. c #AE6225",
"v. c #BA6627",
"b. c #BA702A",
"n. c #AA6430",
"m. c #C8590B",
"M. c #C35A17",
"N. c #E25F00",
"B. c #C2610C",
"V. c #CA680E",
"C. c #D76C0D",
"Z. c #DB720E",
"A. c #CA6512",
"S. c #C4651C",
"D. c #C26A1C",
"F. c #CA6C1C",
"G. c #C96816",
"H. c #D46413",
"J. c #DC6E15",
"K. c #D26C1B",
"L. c #D66B16",
"P. c #DB731C",
"I. c #DA7518",
"U. c #CB7311",
"Y. c #E56D0D",
"T. c #EC7A0C",
"R. c #EA7509",
"E. c #F57806",
"W. c #FC7B03",
"Q. c #FB760D",
"!. c #F57B0C",
"~. c #FD7C0C",
"^. c #F57505",
"/. c #E36D18",
"(. c #ED7614",
"). c #E47B14",
"_. c #EC7C14",
"`. c #E4751C",
"'. c #EC771B",
"]. c #E57A1C",
"[. c #EC7D1B",
"{. c #E27210",
"}. c #F47614",
"|. c #F47C14",
" X c #FC7C14",
".X c #FC761B",
"XX c #F47D1C",
"oX c #FC7D1B",
"OX c #F87517",
"+X c #C56B23",
"@X c #CC6C23",
"#X c #CB6727",
"$X c #D26E23",
"%X c #DA6A20",
"&X c #CB7323",
"*X c #C47229",
"=X c #CD722C",
"-X c #C67524",
";X c #DC7324",
":X c #DC7B2A",
">X c #D87527",
",X c #D67A32",
"<X c #CB7537",
"1X c #E27622",
"2X c #E37B23",
"3X c #EC7D23",
"4X c #E47D2A",
"5X c #EB7C2B",
"6X c #E7752A",
"7X c #F47D22",
"8X c #FB7E23",
"9X c #F77D29",
"0X c #E77D33",
"qX c #ED6B20",
"wX c #EB810D",
"eX c #FD8302",
"rX c #F6820D",
"tX c #FE830C",
"yX c #FD8B0E",
"uX c #ED8215",
"iX c #EC821D",
"pX c #E9861C",
"aX c #F48215",
"sX c #FD8314",
"dX c #FF8B13",
"fX c #F5811D",
"gX c #FC831C",
"hX c #F48B1B",
"jX c #FD8A1B",
"kX c #F48C14",
"lX c #FE911E",
"zX c #F99318",
"xX c #FF980A",
"cX c #E58223",
"vX c #ED8224",
"bX c #EC8A25",
"nX c #EC842B",
"mX c #EC8B2B",
"MX c #E4862A",
"NX c #F38323",
"BX c #FC8323",
"VX c #F48924",
"CX c #FE8B23",
"ZX c #F3842A",
"AX c #FB852B",
"SX c #F48A2B",
"DX c #FD8B2B",
"FX c #FD912B",
"GX c #F89224",
"HX c #E88734",
"JX c #F38C34",
"KX c #FB8C32",
"LX c #FA8533",
"PX c #F99436",
"IX c #D68833",
"UX c #F08E43",
/* pixels */
"  .   Z fXHXtX|.XX|.|.fXXXXXiXNXT.VXgXsXaXoXcX XNXoX|.oXoX XfXNX9XwXfXF . O   X                         #         o r BXjX3XbXOX",
"  X . X r.CX;XgXvXfXgX!.XXBXgX|.9XcXXXOXvXSX3XoXXXXXaXaXuXfXNX7X[.sXuXf.< .   .                         + # .   .   U DXR.oXfXNX",
"5 <.r   . f.AX_. XXX3XZXNX|. XgX(.BXBXfXXXgXlX|._.vXNXnX3XvXfX|.fXoXcXVXB O   .                         X # #   @   q.gX X3XoXfX",
". j.DXp     d.DX|.VXnXiX|.sXNXnXpXT.XXgXFXg.W DXjXjXgXoXoXgXaXrXfXgX3XiXY.@ O .                             X # O k ,X2XoXnXBX!.",
"&.7 sXZXZ   1 7.gXXX|.fXBXfXXXNXXXdXAX=XW $ r i U <.&X[.gXgXCX9X|.ZXoXXXCX&.2                                     Z P 9.6XjXoXNX",
"ZX- 4.jXNXC     s.mXCX X(.iXfX XoXgX@.  C %XdXp.{ u 8 K @.&.7.].VX_. XoX].jXF                                 . o P.e.%.l.J.oXaX",
"DX[ e VXDXoX .    S y.'.CXDXvXmXDXjXm u VXgX_.hXVXVXZX/.H.H.L.].BXfXNXoXXXXXcXb o                           . . ..CXaXG.*X`.BXaX",
"oXJ.  d.VXQ.PX;..     w >.A.Y.(.P.s.# 7 4X8XsX5XXXXX|.fXCXCXNXXX~.NXvXXXBXhXaX6X* o                         . k  XZXuXBX~.gXvXVX",
"iXsXF @ F.DX].SXs.a   O O . @ O     X   O [ CXBXgXjXgXsXCXNXnXXX|.sXfX4XoXgX'.CX1XB   O . . .     @   . @ O 9 4XfXfXfXfXoXfXfXBX",
"5X XS.  r a.dXuXoXsXd.N . . . y N F C w . o % H 5.+X:X;XA.4XoXsX].iXZXXXNXsXnX3XE.ZX|   O @   <   $ . <   n ,X XfX7XfXXXNXXXfXXX",
"aX~.*Xk m.u j.BXfXbXfXSX1.U @XoXKXtXDX5X< H #.u 0 % > . X # / CXCXcXQ.fX(.).~.7XAXaXjXJ.P .   . .   @ 3 :.BX~.nXfXfXoXNXBXXXXXfX",
"iXsX).l 4X6XW #.J.BXNXvXgXsXCXnXR.bX'.kX[ r tXSX X1X@Xe.R $ . p d.CX[.~.VXBXDX~.aXXXZXgXgX:Xc.%.} ,.m.NXCXNXNXsXfXfXNXoXXXfXXXBX",
"vX8XgXa a.JXsX&Xb.fXW.sXBX].ZXoX8XhX7XgXM.c 7XOXZX|.gXDXCXNXj.    [ DXuX[.HXQ.HXNX X XiXvXgXsXsXjXKXBX~.~.(.cXjXfXXXfXoXfXXXBXXX",
"vXQ.CXY n.sX]. XsX5XZX XfXDX!.aXfXuX7XdXo.H DXeXZX XjX`.fXQ.SX[ 7 i V gXsX4XBX XXXVXNXXXoXaX[.nX3XvXvX3XNXDXBX_.fXNXfXNXfXfXfXfX",
"aX_.CXe.;.DX}.AXfXeX|.mXXX!.BXXX^.BXrXmXr.0 PXR.vX|.!.gXgX[.ZX].> 3X:.H gXCX|.sXfXXXXXsXNX4X6XgXfXQ.sXoX|.XXXXNXoXNXfXoX7XfXfXXX",
"|.nXBXG.p uXZXaX7XZX3X XXXfXfX'.7X3XMX X(.  *.PXgX_.JX2XXXsXDX0.3  XCXt.P z.I.).XXfXNX7X|.sXsX_.[.uX|.NXNXfXgX XfXXXfXfXfXfXXXBX",
"cXgX~.;X) J &./.NXfXfXfXfXfXNXfX8X|.tXhX#.J a ( AX7X XBXMX XVXH . l.GXoX_.3.W 2.D. XgX3XgXaX|.XXfXfXfXfXXXXXfXXXBXXXfXfX7XfXfXoX",
"8XXX_.jXjXvX$Xv.fXfXfXfXfXfXXXiX2X[.gXv.^ PXP.e F CX XnX~.gX$Xq.a.4 =.kXgXoXDXfXfXXXcX7X XsXZX3XXXfXfXXXXXfXfXXXfXfXfXXXfXfXoXNX",
"~.gXNXNX|.~.oXAXfXfXfXfXfXfXXXfX!.sXVXw.K.fXjXFX3.%.HXsX XXXNXXXlXF &.SX0XZXaXvX|.aXVXCXZX9X XXXXXXXfXXXoXNXNXfXfXXXfXBXoXfXfXNX",
"XXXXfX[.NXNXgX!.[.fXfXfXiXXXfXfXfX4XfX8XsXfXR.NXsX,.%.fX|.VXfXXXCX| -.xX8XoXcX XpXiXeXL.*XhXoXaXfXfXXXfXfXXXXXfXXXBXfXXXNXfXfXXX",
"nXvXNX|. X_.NXmXfXfXiXfXfXfXfXNX8X|.fXZXaXCXaXoX|.CXVX1XNX7XVXfX7XT.c =.R.8XoXsXoXl.m 3 O ) KXOXfXXXXXfXNXoXfXoXfXfXXXfXXXBXXXXX",
" X|.fX|.gX XfX[.fXfXfXfXfXfXfXfX8XVXfXgXCXNXR.AXmX}.oXgXBXXX_.fXcXBXH.[ z.l.;XaX&X$ . O   $ Z SXBXfXXXfXfXfXXXfXfXXXBXfXfXfXfXfX",
"8XoXsXaXuXuXXXoXfXfXfXfXNXfXfX[.3XrX/ $ i.oXvX6X}.mX2X XW.|.KX|.oXXXBXmXrXK.BXCXX.  1 : r O   A.BXfXXXXXXXoXfXXX7XfXBXXXfXXXBXXX",
"fXfX7X3XNXBXfX|.fXfXXXfXBXfXXX_.Z.GX) $ ] SXtXsXsXXXVX[.7XNX|.fXpXoX!.|.7XBXwXjXZ   o d F V s r.BXfXXXfXNXXXXXNXfXfXXXfXfXBXXXfX",
"fXfXfXfXfXfXfXNXoXuXaX7X7X[.lXQ N hXl.U.#XH l ^ J.jX].NX[.vXsXZXiXsXfX).iXfX XBXl $ B JXT V X.D.gX|.hX[.XXNX7XXX XiX8XNXZXvXSXoX",
"fXfXfXfX7XfXfXoXgXNXaXvXfXfX[.e O &XM.%.$ . X   r ,XgX~.gXfXE.BXLXoXoXNX7X|.CX*XO   > ^ Z l i.G.BXXXXXXXfXfX7XoX2XmX|.aX XoX8XfX",
"NXoX7XfXXXfXfXfXfXNXoXvXfX X[.e . *Xm.A , O X     7.sX!.nXZX~.BXNXaX(.aXNXsXgXL O   z 0 + H m J.CXoXXXXXBX|.|.VXoX_.8XvXgX X!._.",
"oXfXfXfXBXXXfXXX8XuXaXoXXXuXCX-.. kXA.z 2 t 8 1 X ,.DX[.XXsX XnXQ.VXZXgX|. X=X2 . .     l ~ p c.BXfXBX|.fX|.gX4Xh % ` $ A b.SXoX",
"fXfXXXfXBXXXXXBX8XuXsXoXXX_.jX|   a.4.  d $.7.,X:.6.vXmX5X3XbX3XoXBX3XXXvXCX{.B O   . . V D + *.jXwXfXaX[.7XCXy..   . X , . +XsX",
"XXNXXXBXXXfXfXfXNXNXsX[.XXfX3X: . ^ h.    $ . U.e >.BXE. X XiXgXfXfX_.sXvXSXjX&Xr   O : ` ;.O T VXwXgXaXvX9XjX! O   .   O   %.jX",
"fXNXXXfXfXfXfXXXfXNXXX[.fXNX;Xo , u /.0 O . X 9.f ,.sXuX9XoXiXsXfXfX[. X Xr.Z ,   $ . 6 I W Y 3.BXT.oX|.bX7XjXR     O l p # $.CX",
"fXoXfXfXBXXXXXBXoXfXaXoX7XvXfXB O A DXA .   . l.+ #.jXpX5XoXfXfX3X XgXgX4.    . O     . ~  XcXCX9XfX8X|.nXoXjX .. X O 0 8 # t.dX",
"fXXXfXfXXXBXXXfXVX[.gXE.5X~.2Xz   % A zXL   2 =.Z G.ZX|.BX|.oXfXNX_.9X Xs   X         X   @XBX_.NX XfXaXXXoXfX$X.   X   - K BXXX",
"fXBXXXfXfXfXfXfX|.iXoXfX7XgX;.. @ . O { 6 . G I.DX~.nXuX'.bXZXgXXX|.CXL.o               . K.gXgXNXaXoXaXXXZXfX].P.:.O . q j.gXXX",
"fX7XBXXXXXBX8XfX XVX7X[.XXDXS   . .   .   . . 8 0.jX7XgXoXXXBXfX|.fXCX%.            .   d 3XoX|.fXaX7XgXfX3X XgXhXC.. 3 * Y.W.mX",
"fXfXXXfXfXXXfXfXsX3XBX]. XsXC O   .         O O w JXoX|.8X|. XfXfXuXBXV   +             D DXXX|.BXaX7XoXuX7X|.gXn.y   *.IX3XLX_.",
"fXNXoXfXfXoXNXfXgX2XfX_.oXdX) O       O         F fX X[.0XSXXXcXXXuX].o   .         O   Z jX7XNXXXfX7XoXfXNXgX[.3 O . e.gXoXBX7X",
"fXoXNXfXfXfXXXfXNXNXaX|.8XhX#.# +   .   . X @ . [ jXXXgXXXfXoXfXXXsX#XO   +       X     #.CX7X[.fXpXXX|.fXfXCXc.    . J AX XE.aX",
"fXfXXXfX8XfXfXXX7XaXXXhXVXS.t .     + + +     . V JX7XaX XE. XCX3XjX,.  .             . v.BXXX_.fXNXXX|.nXoXfXK .   . o 5XsX!.NX",
"fXXXNXoXfXfXfXXXBX!.7X_.AX&.X + .   + X   X   ,   A.oXuX5XjXOX5XvXsXR   . .     .     o >XoX|.fXaXNXoXaXZXQ.wX+ O X . X 5.SXOX].",
"BX_.7XZX X~.|.7XVXQ.3XiXaXH.% O       O .     : X a AX_.sXcXBXXX~.ZXr + O   o O , .   o.sXnX3XoXnXaXfX2X8XhX;.+ .       & HX~.vX",
"uXjXVXNX7XZX X4XBXiX XsXXX:X- O             : Z   . ,XXXoXfXoXuXaX&Xo . O   .   o   , M  XZXXXtX9XsXiXpXQ.sXz   O     @   N DX|.",
"^ #.gXaXHXT.jX|.fXvXoXZ.CXj.  .         .   e ,.    $.CX7XoX XpXjX*.  .         . O X , N 5XsXMX X|.NXiXeXL.O   O     0 # # E JX",
"1.. A jXW.DXoX.XgX!.oXZX~.+X| y X . +   @   u I.$ X &.eX4XBXOXiXgXA   o .             $   l I.fXyX6X X7XdXg.  =   . O ! L   . m ",
"d.  , *.JXv.I.hXoXcX|.|.BXAXdXS   $ .       C jX..  ..zXvX8XAXiXXXp O .         . O   O . . - F.bXZX X_.NXs . j $ .   ! q.X < O ",
"_.$ . $ 6 * & :.VXJXLXR.[.3X2Xo X h + X + . ' GX;X= 7 f.AX X8XpXXX-     . O     O . w @ .   .   i.jXXXkXD.  $ ^ . O . K DX3   . ",
"oX>.O     O     <.mXgX7X|.gXR     N +   .   : C.sX% . Z 8XgXXX_.].o     .   .   X = BXK.^ X + . 7.sX7XhXT   d /     . ` CX{ B W ",
"nXgXu.  o 4.1..   i q.uXiXgXl X & u O X . O . a.sXs   } DX).BXjXL..   X X   .   + . {.zXp.  2 + iXNX_.qX% . A I       m sXgX4.5X",
"[.gXK.  , & V O C B s.'.8XvXq . i a X     .   3XA.D.K.j.P.AX(.gXt.  O .   O .   . O K.NX<.W Z { D.iXZX0.+   r.e   O . i JXe.U 4.",
"cX XNXk   O . i d P.sXXXBXv.X     ,.t O   + w i.! g.&.! E oXNXCXQ     .   O     <   A.$.#XOX;X1X( &XjX-.O m p.$   .   0 gXg.t.C.",
" XgX;X=.8 X 7 B 1 K.jX[.~.).o O X 6X:.o @   w *.~ c.d.&.l.4.jXoXB   O . X O     .   K W W Y } T W -.FX( i HX7.O O     % Y.j.>.n.",
"^.ZX0 @ 1 X . < a.fX_.XXgXBX>.o M >XS n O .   b.K.w.:.G.MX1.Q.mXq O   .     .   X   l '.$X2XnXgXNX:.Z.tXCXFXK     @ . X A.y.H.*.",
"PXY + .     +.CXzXDXSX|.4X}.CXH.NX..   .* . O ;.M.s.+Xi.3XE '.J.$ O             .   X.NX].J.u gXO.L =XpXZXT.0 X X   O O 0.5.u.v ",
"q.  3 h *   $ ,.,X*.t.fX[.nXNXgXfX:   j ' .   u =.s l R fX^ DXm.                .   w.aXgX<XH i.p.6.+XsX X+XO . .   .   i.p.d.d.",
"G   j v J .     + . . P.W. XfXjX,.  o t Z X   % BX4.&.Q.<...gXr.                #   p.jX~.K.VXh.v.;.D.KXgX3.+ X X O .   :.CXW -.",
"u.x 6 T E @ 8 > 0 l l a.fX7XXXVXw     { Z O   o D a.F.~ j nXLX[       O         . X ) NXjXp.Z k.) g _.'.CXY         . .  .dXNXt.",
"p...T h 8 @ ;XCX=.+ j.BX}.|.DXa.. +   9.:   . F 5.U B >.cXVX Xs                 O   q @X8X[.&.^ F ;. X XvXc X .   @ .   H BX[.dX",
"i.i.0.:..   a.DXA X U.sXNX'.AXU O X r y.  o   C CXhXSXfXoXgXt..                 .   + p r.f.cXm.E ;XVXoXA.O   . . O . , A CXR.|.",
"L.I.( <X.   X.yXh., '.!.NX|.jXK . X W 6.+ .   / DXE.OXgXgX Xz                     X   k <.| g.| K.CX|.VXX.. . O   . @ . i AXT.0X",
"8.j.&XP.$ O o NXS.& OXoXjX[.BXH     ,.S.O O   8.VXbXhX`.jXs.  .                 .     r CX~.gXAXAX).gXNX> O X   . .   X Q vXCX~ ",
"E ^ 2X .o 8   }.=.j jXMXXXP.5XP < $ :XpX% . p DXBX3XfX$X=X`   #                 . X   # 1XDXXX8X~.vXZX|.% O U | s.1.+ ; cXzXG.+ ",
"r.e.I   D % 6 fXH B ].%.A.G.e.H . / fXsXJ . ] c.`.8.7.=.~   .                   O O   . u.*.=X2X7XV.CXs.  P ZXCXDXE.$ . &XSXu . ",
"O . X & A , ! L.+.G l.G ( ( y 3 . w %.c.0       Z h f w .   *                   O     . S H [ :.4.;.9X- * :X*.A.+Xd.g   -.S o   ",
"  X O - ;   n 6 q = 0 # . . < .   , + l   + .             O                     .   O . : e . D S j I   m :.6 B a 0 s   + O # X "
};
