/* XPM */
static char *YmxhY2tJTUdfOTM2Ny4_[] = {
/* columns rows colors chars-per-pixel */
"64 64 256 2 ",
"   c #010102",
".  c #0A0102",
"X  c #030A02",
"o  c #02020B",
"O  c #0A030B",
"+  c #020A0C",
"@  c #0A0A08",
"#  c #130201",
"$  c #1A0502",
"%  c #041702",
"&  c #171804",
"*  c #020313",
"=  c #010B14",
"-  c #0B0B14",
";  c #02041B",
":  c #010B1B",
">  c #0B0818",
",  c #021617",
"<  c #141217",
"1  c #371803",
"2  c #271203",
"3  c #08270D",
"4  c #312F05",
"5  c #000322",
"6  c #000C24",
"7  c #070B27",
"8  c #011324",
"9  c #01132B",
"0  c #011B2C",
"q  c #071626",
"w  c #000A38",
"e  c #031836",
"r  c #131628",
"t  c #023627",
"y  c #022639",
"u  c #02373A",
"i  c #132A2D",
"p  c #2C332D",
"a  c #553606",
"s  c #482E02",
"d  c #50290D",
"f  c #024B2A",
"g  c #02473B",
"h  c #135334",
"j  c #2E5133",
"k  c #0B6D33",
"l  c #296432",
"z  c #185214",
"x  c #494B0C",
"c  c #685309",
"v  c #6F6F12",
"b  c #4B4D2F",
"n  c #6F572B",
"m  c #4E6835",
"M  c #6F702E",
"N  c #031745",
"B  c #021C57",
"V  c #032848",
"C  c #033645",
"Z  c #032954",
"A  c #053857",
"S  c #17294B",
"D  c #0A3369",
"F  c #2F3B5A",
"G  c #473C40",
"H  c #02444A",
"J  c #045549",
"K  c #044757",
"L  c #055957",
"P  c #184F4F",
"I  c #28504C",
"U  c #046857",
"Y  c #166756",
"T  c #0D724E",
"R  c #2B6B50",
"E  c #084665",
"W  c #005965",
"Q  c #135869",
"!  c #095A76",
"~  c #125775",
"^  c #18456A",
"/  c #265367",
"(  c #016766",
")  c #07776A",
"_  c #066876",
"`  c #057876",
"'  c #176C72",
"]  c #2A7171",
"[  c #57594B",
"{  c #4A6B4D",
"}  c #6F704C",
"|  c #52736E",
" . c #646961",
".. c #85560D",
"X. c #9B6909",
"o. c #AC7905",
"O. c #957639",
"+. c #A67A32",
"@. c #9B5F23",
"#. c #8E7448",
"$. c #07B63A",
"%. c #0E8D3A",
"&. c #7C8514",
"*. c #028A57",
"=. c #0B8F55",
"-. c #05B849",
";. c #02AA59",
":. c #09B759",
">. c #08AD4C",
",. c #048976",
"<. c #089678",
"1. c #0E8F6E",
"2. c #298874",
"3. c #05A669",
"4. c #07B46A",
"5. c #05A97A",
"6. c #0AB676",
"7. c #15B977",
"8. c #18AA75",
"9. c #2CB275",
"0. c #21935F",
"q. c #748A52",
"w. c #5B896F",
"e. c #09C749",
"r. c #0BC855",
"t. c #18D753",
"y. c #12CB56",
"u. c #14C96F",
"i. c #22DC62",
"p. c #8C9312",
"a. c #968F33",
"s. c #B69036",
"d. c #ACB02F",
"f. c #A79B1C",
"g. c #D79915",
"h. c #D0920F",
"j. c #E39B15",
"k. c #E79E0F",
"l. c #D8A418",
"z. c #D2AC18",
"x. c #E5A517",
"c. c #E9B518",
"v. c #CB942F",
"b. c #D9A726",
"n. c #D8B728",
"m. c #CBA63A",
"M. c #D2AF31",
"N. c #E6A829",
"B. c #E7B725",
"V. c #E4A935",
"C. c #E7B536",
"Z. c #F3B930",
"A. c #E59D2F",
"S. c #D8CE1B",
"D. c #E3C71A",
"F. c #DADC2A",
"G. c #D4CF2E",
"H. c #E9CF2F",
"J. c #D6E62B",
"K. c #D9E737",
"L. c #CAE13B",
"P. c #E5E331",
"I. c #8F934B",
"U. c #AE9349",
"Y. c #9DA84E",
"T. c #B3B151",
"R. c #B2B46A",
"E. c #BA9F68",
"W. c #C69347",
"Q. c #CFAD4D",
"!. c #E6AF4B",
"~. c #C9AA68",
"^. c #B9C64E",
"/. c #D5CF52",
"(. c #E9CE4D",
"). c #D8E846",
"_. c #D7EB54",
"`. c #E3E549",
"'. c #E7EE54",
"]. c #CFD96E",
"[. c #DBF263",
"{. c #E7EE6F",
"}. c #E6D066",
"|. c #BCCB34",
" X c #10528F",
".X c #097684",
"XX c #10718E",
"oX c #29748F",
"OX c #0B5AA8",
"+X c #0D73A7",
"@X c #2575A6",
"#X c #0E7EC8",
"$X c #028888",
"%X c #158884",
"&X c #049687",
"*X c #17968C",
"=X c #0A8A93",
"-X c #168895",
";X c #039795",
":X c #179799",
">X c #2D8B91",
",X c #05A986",
"<X c #19A785",
"1X c #05A896",
"2X c #18AB9A",
"3X c #04B799",
"4X c #10BB8B",
"5X c #28AD95",
"6X c #0787A6",
"7X c #1899A3",
"8X c #1396B7",
"9X c #0992AD",
"0X c #2792AF",
"qX c #09A8A7",
"wX c #15A8A6",
"eX c #0ABAAA",
"rX c #18B9A8",
"tX c #13AAB7",
"yX c #0DB8B8",
"uX c #15B7B8",
"iX c #06A7B5",
"pX c #24A6A7",
"aX c #2DAFB3",
"sX c #48AFB0",
"dX c #51A09E",
"fX c #09C695",
"gX c #12C78A",
"hX c #2ACB8C",
"jX c #09C6A5",
"kX c #15C7B7",
"lX c #1AD8B9",
"zX c #12C7AB",
"xX c #29CAB6",
"cX c #28E2AD",
"vX c #20E3A7",
"bX c #46C89A",
"nX c #1096CC",
"mX c #2894CA",
"MX c #12B0CA",
"NX c #2BB1C9",
"BX c #19CAC7",
"VX c #19D3C8",
"CX c #24C9C8",
"ZX c #2FD3CE",
"AX c #30E2D7",
"SX c #41D4D1",
"DX c #48BFD3",
"FX c #92B3B5",
"GX c #CAD290",
"HX c #95CACB",
"JX c #ABCECE",
"KX c #B0E6E3",
"LX c #CEEDEC",
"PX c #ECFBFA",
"IX c #CCDEDC",
"UX c #95C9BC",
/* pixels */
". .                                                 .                 X       O   X X     . .             .                   . ",
"                                .                                   X X                                 . .             X       ",
"                                                .         X       o       O O         o o o       o . .         o o   o         ",
"                                  X       .   .                       o   .     .   o   o                   X       o           ",
"                .   o             X     .         o   +     O .         . . .     o       X               .   X         . .     ",
"          O     o o     o o o o       o   o * * * o * o o * o o   .   .     o o * * * o     o   o   o O           o     . .     ",
"    o o o - + o o > > > ; > 6 8 = * = 8 = = = : : ; ; 8 6 9 e e = * > 7 : > ; 9 V N w w 5 : : * + o > * * o   + * o O . . .   o ",
"        O < = * * r r r 7 q y y V 9 e C C H H g u u y C K L ' ' u = : 9 F C A A D D D ^ E A A V y 8 6 5 6 7 = * = *   .     o o ",
"        o r : ; ; 7 5 5 7 V V E ~ ~ XX_ _ 2XaXxX5X<.1.5X5X<X4X1.f t - : P ] dXdX>XoXoX0X7X6XnX9X8X XD B w 5 r O o - O         X ",
"  .   o   > : 6 5 ; e N S ~ oX' ( -X,.&X1XrXfX4X4XgX4X6.gXgXu.hXhX9.t , , , u L u u ( :XrXkXMXBXMXMXmXOX XN 5 ; > - * o o       ",
".       o > : i 9 e S V E ! K _ 2XzX3XgXgXgX6.3.4.4.u.6.9.gX4.gX9.9.5X] 3 t , H t 3 f *.5.fXvXcXBXMXtX8XmX XN N : = *     X     ",
"      . > 6 y S V N A oX! ! =XxXzXfXfXfXfXgXgX7.3.T =.=.T k T %.%.%.=.T J dX] | dXh bXi.i.u.vXvXcXZXNX8XOXOX XD 9 = +           ",
"  X   . > ; e C V Z ~ .X_ $XZXZXVXlXjX3XjXrXrX<XU Y Y f R k h l l l z l P h I Y ] 0.1.9.hXhXi.bXf H y V +XnXXXZ 9 = @   .       ",
"X   .   > 7 7 S Q _ E -X:XtXAXVXzXeXjXxX5X1.) U l R { m q.I.a.q.a.a.I.q.q.w.w.R P 2.2.U T 8.9.f % , o H ZXCXaX! 9 * + . .       ",
"X   O . > i 5 V >X-XW .XqXAXVXjXkX2X<XU f l m M a.Y.Q.M./.M.M.b.G.M.m.Q.M x p , , i I P t , , + : C T f 5.lXVXaXy * o   O       ",
"X X . . 7 r 5 9 XX-X=X$XyXBXzXkX2X,.g l } q.Y.s.m./.z.o.o.V.C.N.b.l.g.X...n $ . # . @     O + : : ] bXzXjXlXVXaXV : =   O       ",
"o       o r w V _ =XBXVXVXyXpX,.J l q.a.Y.v.v.b.h.l.h.o.a s a.~./.!.z.g.M.!.O.# s O.1 $ 1 $ $ < P Q :XyXkXBXAX*X0 7 >     . X   ",
"o o     o i e A -XuXBXVXyXwXY f m q.s.M.h.h.j.c.x.l.B.(.E.# . 2 4 a.(.z.z.M.m.c v.}.W.v W.+.d [ I P 7XyXiXCXBXL 9 * *   .     X ",
"  O . X   r K XXqXBXZXkX*XT t m U.Q.v.g.k.k.Z.x.B.B.H.}.4 # O < # c /.S.G.n.z.M.b.b.M.C.C.V.v.O.#.[ Y sXtX1XMX=X0 * + X   .     ",
". .     + 0 ' mXqXyXMX&X1.f m T.Q.b.l.k.k.c.H.D.D.F.M.4 4 x < < + 4 /.`.`.`.G.n.z.l.z.B.j.N.A.v.s.I.h U aXtXtX0XV = o X     .   ",
".     o : y XXaXMXCX=XL P l T.m.M.B.D.c.D.D.P.P.J.P.S.G._.{.GX& , O 4 x M /.'.`.'.G.M.N.h.k.A.N.s.+.I.t ( NXDX8Xy = + X     . . ",
"    + o ; A XXtXZXxX` P l Y.m.l.H.H.B.D.D.H.P.P.K.J.J.K.J.).a.X X o = o @ x I.a.O.v c v.!.j.A.N.N.o.#.b Y pXaX0X0 = = o     .   ",
"    o o 7 K .XtXAX*XE I } Q.v.j.j.x.B.H.H.P.P.F.J.J.K.K.J.K.L.^.M @ @ + @ @ . . . . . $ n @.v.V.b.V.+.n R >XaX0X0 = o   X       ",
"    o o ; u 0XZXsXY u i b s.!.g.h.j.c.D.D.F.P.J.J.K.K.K.J.J.K.[.GX% X 4 &   & m p X < . 2 1 d o.N.C.A.O.j oXXX! 0 = * o         ",
"    .   + g :XSX2.Y I = = $ W.!.j.k.B.D.F.J.J.K.K.K.K.P.K.K.K._.|.v ^._.].x d.[.].4 % M T.n.o...g.C.A.U.b ] >X] y * * o     X   ",
"        + u :XaX) R t I p $ a @.+.(.(.M.`.'.`.J.K.K.K.K.K.J.J.K.L.)._.L.)._._.L.[.p.v {./.S.j.j.g.j.N.W.b / oXQ y ; ; o         ",
"  O o o = 0 ' <XT 0.h w.b $ $ $ 1 d 2 & 4 &./._.).`.`.F.P.K.K.K.K.K.)._.).K.L.L.K.L.[.'.`.H.N.h.k.c.x.m.} / ] K q : *           ",
".   o o > q %X>XR l h } ~.#.$ 1 $ 1 b % & &.&.L.`.).`.K.K.P.K.K.K.K._.[.[.[.[.{._.^.d.p.p.p.j.N.k.k.g.s.b P / C y : *           ",
"  .   o r 8 >XaX] { h q./.s.X.W.s.v.}.c d.'.).G.L.K.J.J.J.K.K.K.K.)._.Y.R.Y.I.M 4 @ % 4 &.f.z.j.k.N.g.U.j C Q ( / 9 * X     .   ",
"      O : 0 oXsX' | l M m.C.Z.g.j.c.B.H.P.P.F.K.K.K.J.J.J.J.K.K.).[.^.% % % X     & R.{.T.p.Q.M.h.v.W.U.j L oXoX^ 9 = o     .   ",
"X       o 8 Q sX] R R m d.C.b.N.h.j.j.H.H.S.F.F.K.J.J.J.J.J.K.K.L.[.x   < O - - X M {.G./.c # 1 W.!.Q.M i L -X0XZ 6 : O         ",
"    .   > 8 H >X2.R Y l a.(.n.l.j.j.A.!.M.`.H.K.J.F.K.K.)._._._.{.M X - * O - X   x (.H.d.c d $ s #.#.b j ' 7XDXK e >           ",
"    .   > 9 ( :X2.T Y j m /.C.H.x.V.!.+.a I.{.'.K.)./.|.].^.v GXm X . > O # . % % @ v (.z.M.+.1 $ O < < = u -XaX~ 7 * . O o     ",
"O     O * y ' :X=X( Y h j I.}.!.s.@.d # # . s &.T./.].x 3 & X & @ o > > O [ R.T.Y...x h.l.h.v.E.d r q y y _ .X8XoX8 * O     @   ",
"  X     ; Z XXtXwX2X*X] j p b 2 $ # O O + @ . . X & & & X   O O * : * O & R./.`.P.P.H.h.h.h.b.Q.n I Q ' -X=XCXuX~ 9 = o         ",
"X   X . : C XXwXtXeXpX,.q : =     - 7 5 = @ O - > o o * * ; > > > * # $ $ c G.D.D.z.h.h.l.Q.U.v b P L =XiXBXCX$XK y :   X X   . ",
"X       8 u L rXlXzXzX,.,.U H I { p ; 5 * X . . O 7 * * > O > * > $ s v.v.h.z.c.l.h.h.!.a.M x p C K wXCXeXuXqX7X' y = +         ",
"      o i u ` xXkXjXzXzXxX2X( Y I { r ;   & #.#.1 . . . $ 2 $ $ # 1 W.A.B.B.l.l.l.b.T.v b h f J _ =XyXjX3X3XqX$X' 0 o +     o   ",
".   . o > 0 >XxXyXjXzX3XfXlXrX*XU P S   & I.~.!.~.1 $ ..W.W.@.1 $ a v.h.g.h.V.m.s.M b j p L XX$X9XqX&X3XjXeXVXqXW : =           ",
". .     O > K pXuXeXVXlXjXfXeXrX-X>XP + { } v s.U.M M ~.+.W.W.U.d ..W.v.v.W.a.M m j R ] ] W ` qXrX3XeX3X3XzXBXNX! 9 : o         ",
"      O * o 8 ' :XqXlXcXzXgX6.,X2X*X' J 2.T R R { w.q.q.q.q.I.q.q.q.#. .[ I p t g P ' _ =X:X&X,XfX3XfXqXqXBXMXNX@XZ ; O     X   ",
"X X   o o = : C $X$X1X1X5.4X5X5X<.,.U 2.) U U L g g f k R Y I h g u C V C C y K W ' %X$X&X,X5.6.gXcXlXxXqXyXyX6X! V ; o         ",
"    O * = , , C wX1XwXpX<X4XbXT % % U 5XrX<X,.,.` ( U J L L L C K ( ! _ _ .X%X&XsX5X<.4.3.4.u.gXvXfX,X&X&XqX9X+X XZ >           ",
"X     o o = C >XNX;XL W ) J f % 3 T *.4.7.6.8.<X<X<X8.8.<X&X*XpX2X2X2XrX2X4X<Xk f ) 9.7.:.:.;.4.gX3X1X$XqXuX9X+XXXN ; O         ",
"        ; 6 A aXXX_ e , , , , , =.9.u.>.e.e.-.:.e.r.e.e.:.4.6.7.u.hXu.u.u.r.e.9.3 % f T >.0.3.5.1X1X,.$XiXMXMXnXOXN ; O         ",
"X       O 5 E mXNXNX! oX] U ] J 1.6.;.:.-.y.e.$.t.t.e.e.$.e.y.r.t.y.e.e.e.e.t.%.3 + X % =.8.1.&X;X&X;XyXMXnXnX#XOXZ r   X       ",
"        > 7 ^ 0XnX8X8X7XpX5X2XxXrX5.*.3.4.4.y.y.i.t.t.i.t.e.e.e.-.-.r.y.t.t.%.z 3 , + + J 8.,.&X;X9XiX9XnXnX#XOX XN q         o ",
".     .   5 Z  X XOX6X6X=X;X&XeXCXkX$X*.3.3.=.>.r.r.t.e.-.-.-.>.>.>.:.:.-.$.0.0.0.t o = q H ' >X:XpX8X8XmXnXOX XD w q   X     o ",
"          * 7 9 w e Z  X0XnX9XMXiXMXkXeX1X1X5.1.5.3.3.3.3.*.3.*.<.3.*.*.5.*.T ,.U y : 7 * : , / Q ]  X@XmX#X@XB N 5 o o         ",
"          O O * ; 5 N oXXXXXmXMXiXtXMXtXtXqXrXwX,X&X<.&X,.,.,.,.,.,.` ,.-X:X:X=X:XdX^ 5 ; ; = : , 6 w w D OX XN ; > o           ",
"          o O o * * 5 9 e N A oX@X@X0X0X6X9X8X8X9X9X9XpX7XpX:X:X_ ` oX@X>X0X@X.XXX@XD N Z w w N e 5 5 w w N S e o   o O .     . ",
"        O @ + O o o * * * 6 9 6 e e B ~ E  XXX-X.XXX.X0X>X' K A E E D V V Z Z V N D F B F S N F S ; 7 S S S N 9 o   O O .   .   ",
"o O o     o   X @ +   @ o = i o = : = : 6 8 6 y 0 y 6 y 0 = = = = 8 : = 6 6 = 6 7 9 7 > ; * i : 7 O > : ; 8 : o o o o o         ",
"O       X                 X   X   o           o     o   o o o o o o o   o   o o O O O   O o o   o O     o o +   o +             ",
"                                  o   @   X X           X     o                 .   O .           o   X o       X   o       . . ",
"            o     . .       X   o                     X                                     X       X       . .       o o   . . ",
"              . . O   .         .     .                                                         X   . . o * > G [ [ p * * o . . ",
"                                                              .             X                       .   + | IXPXPXLXLXFXr o   . ",
"                                                                . .                                 X o P KXKXJXIXKXLXPXJX, X X ",
"  .                   X     X               o     o o           .                                     + | DXHXHXUXFXUXHXHXi X X ",
"                                                o     o   o     O . .   .     O   o                 @   / PXPXLXIXJXIXKXFX,     ",
"                            .                               o                                     O     : | LXPXPXPXPXHXi o +   ",
"                                              .                   X                                         ,  . . .G *         ",
"                        o   o                   . . .           X                                     X X       + O o o O .     "
};
