/* XPM */
static char *_3e86b6e1fa34481c734c2b65fa4c022Tslc4R5YOoYbQ8q0[] = {
/* columns rows colors chars-per-pixel */
"64 64 239 2 ",
"   c #040100",
".  c #0B0403",
"X  c #0D0905",
"o  c #04040B",
"O  c #0E0A0A",
"+  c #080808",
"@  c #120303",
"#  c #1B0200",
"$  c #130B03",
"%  c #1B0D04",
"&  c #120709",
"*  c #130D0B",
"=  c #1B0C0D",
"-  c #180009",
";  c #001305",
":  c #0C1205",
">  c #0C120C",
",  c #0E1A0E",
"<  c #051705",
"1  c #131302",
"2  c #16110E",
"3  c #1A110D",
"4  c #171905",
"5  c #0C0E14",
"6  c #060816",
"7  c #140C13",
"8  c #1A0D13",
"9  c #18081B",
"0  c #0E1A13",
"q  c #081616",
"w  c #161211",
"e  c #1A1413",
"r  c #151B16",
"t  c #1D1916",
"y  c #131419",
"u  c #1C141B",
"i  c #1E1A19",
"p  c #161A19",
"a  c #240203",
"s  c #290109",
"d  c #221303",
"f  c #22140C",
"g  c #281807",
"h  c #311706",
"j  c #220B13",
"k  c #231413",
"l  c #211A14",
"z  c #22151A",
"x  c #221C1B",
"c  c #2A1A16",
"v  c #37171B",
"b  c #3E0D09",
"n  c #18220C",
"m  c #192216",
"M  c #05261C",
"N  c #252204",
"B  c #312808",
"V  c #24221D",
"C  c #2C201E",
"Z  c #362919",
"A  c #190727",
"S  c #191822",
"D  c #071424",
"F  c #241826",
"G  c #341F22",
"H  c #250B30",
"J  c #1B2326",
"K  c #262321",
"L  c #2B2524",
"P  c #2C2925",
"I  c #2D2B2A",
"U  c #322C2B",
"Y  c #37262A",
"T  c #35302E",
"R  c #3A312C",
"E  c #353332",
"W  c #3A3433",
"Q  c #3C3936",
"!  c #3E3B39",
"~  c #30323F",
"^  c #3B2F33",
"/  c #420000",
"(  c #461B1B",
")  c #4E1207",
"_  c #6C161A",
"`  c #532D11",
"'  c #423C3C",
"]  c #553830",
"[  c #74292C",
"{  c #374D39",
"}  c #7E4000",
"|  c #44413E",
" . c #484A38",
".. c #4E523A",
"X. c #754C2A",
"o. c #342B46",
"O. c #41395E",
"+. c #793E40",
"@. c #364341",
"#. c #464342",
"$. c #4A4543",
"%. c #4D4946",
"&. c #4E4B4A",
"*. c #404B45",
"=. c #514C4A",
"-. c #524745",
";. c #48514A",
":. c #55514E",
">. c #565352",
",. c #5A5553",
"<. c #5C5956",
"1. c #5D5C5A",
"2. c #565958",
"3. c #625C5B",
"4. c #665A57",
"5. c #765E54",
"6. c #596D5B",
"7. c #61605E",
"8. c #79605C",
"9. c #575066",
"0. c #5C6466",
"q. c #666362",
"w. c #6A6564",
"e. c #6C6966",
"r. c #6D6B6A",
"t. c #6B6968",
"y. c #726D6C",
"u. c #6B7169",
"i. c #74716E",
"p. c #79766E",
"a. c #757371",
"s. c #7A7473",
"d. c #7B7977",
"f. c #7E7C7B",
"g. c #717D73",
"h. c #6A7075",
"j. c #705E78",
"k. c #950813",
"l. c #913500",
"z. c #B02D35",
"x. c #932529",
"c. c #DF1E2F",
"v. c #E81B22",
"b. c #C7212B",
"n. c #A35E10",
"m. c #9A6A3C",
"M. c #95591B",
"N. c #D43B4F",
"B. c #926E4C",
"V. c #A86D46",
"C. c #A15F61",
"Z. c #817C7B",
"A. c #877577",
"S. c #917170",
"D. c #C15964",
"F. c #D67472",
"G. c #F56D61",
"H. c #778271",
"J. c #BD872D",
"K. c #CB841C",
"L. c #EA9917",
"P. c #FAA113",
"I. c #EC982F",
"U. c #D79530",
"Y. c #84807E",
"T. c #8E847E",
"R. c #858567",
"E. c #BE817E",
"W. c #EBAA46",
"Q. c #ECBA6D",
"!. c #CFB471",
"~. c #FFC667",
"^. c #706381",
"/. c #8A7E80",
"(. c #7A8781",
"). c #868382",
"_. c #8A8583",
"`. c #898987",
"'. c #8C8C8A",
"]. c #8D828B",
"[. c #928D8B",
"{. c #968783",
"}. c #96918E",
"|. c #98938F",
" X c #969392",
".X c #9A9594",
"XX c #9E9996",
"oX c #9D9B99",
"OX c #999597",
"+X c #8F8F8D",
"@X c #A19C9C",
"#X c #AE9B9F",
"$X c #B58C88",
"%X c #9EAD9A",
"&X c #A5A09D",
"*X c #AAAB8E",
"=X c #A59FA1",
"-X c #B49FA4",
";X c #9BA7A3",
":X c #A5A4A2",
">X c #AAA4A3",
",X c #AEACAA",
"<X c #A9A9A7",
"1X c #B2ACAC",
"2X c #B3A5AF",
"3X c #B4B3AD",
"4X c #B6B4B3",
"5X c #BBB5B4",
"6X c #BCBBB9",
"7X c #B0AFB7",
"8X c #C4BDB7",
"9X c #D5BFAA",
"0X c #CA9A96",
"qX c #BEC0BD",
"wX c #CBC9B0",
"eX c #F5D2B2",
"rX c #CEBCC9",
"tX c #BEC8C4",
"yX c #B4CCC9",
"uX c #C6C4C2",
"iX c #CDC9C7",
"pX c #D3C6C9",
"aX c #D3D4CA",
"sX c #CBD7D2",
"dX c #D8D7D6",
"fX c #CED1CC",
"gX c #E5DBD9",
"hX c #E2C9C5",
"jX c #FFF1CB",
"kX c #FDEDD4",
"lX c #EEDAE8",
"zX c #D9E4E5",
"xX c #E9E7E6",
"cX c #ECFEF6",
"vX c #FEF6FF",
"bX c #FDFDFD",
"nX c #F7F9F8",
"mX c #F8EFEB",
"MX c #D4E0CC",
/* pixels */
"2 2 2 2 2 2 2 2 e e = 2 2 e 2 e e e 2 3 w e e 4 > 2 2 > w e u F * w 2 2 e 2 2 e 2 2 e 2 3 w 3 w 2 2 2 2 2 2 2 2 w 3 3 r 2 2 3 2 ",
"2 2 2 2 2 2 2 2 * = e 3 3 = 2 = 2 2 2 2 e 2 e e r w t r e e 8 * 2 2 2 e 2 2 2 2 2 2 2 2 e 2 2 w 2 2 2 2 2 2 2 2 2 w 2 w 2 3 2 w ",
"2 2 2 2 2 2 2 2 & * e e 2 = 2 e 2 2 2 w e e e 2 w 5 O w 3 e 3 * e 2 2 2 2 2 2 e 2 2 2 2 2 2 2 3 2 2 2 2 2 2 2 2 3 w 2 3 3 2 3 w ",
"2 2 2 2 2 2 2 2 = 2 3 3 e 3 e k 2 2 2 3 2 2 2 2 w * * * 2 2 % 3 2 2 2 2 2 2 2 2 2 2 2 2 2 2 2 2 2 2 2 2 2 2 2 2 2 2 2 2 2 2 2 2 ",
"2 2 2 2 2 2 2 2 e = * * = e k e 2 2 3 2 2 2 2 * e e e t 3 $ * 3 2 2 2 2 2 2 2 2 2 2 2 2 2 2 2 2 2 2 2 2 2 2 2 2 2 2 2 2 2 2 2 2 ",
"2 2 2 2 2 2 2 2 3 = * * * 2 2 * e 3 w 2 * 2 2 2 @ @ % t e * & e * 2 2 * 2 2 2 2 2 * 2 2 2 2 * 2 2 2 2 2 2 2 3 2 2 2 * 2 2 2 2 2 ",
"2 2 2 2 2 2 2 2 * e l k 2 * = 2 2 2 2 2 2 2 e l g % $ % 3 = 7 y 2 2 2 2 2 2 * 2 2 2 2 2 2 * 2 2 2 2 2 2 2 2 2 2 2 * * 2 * 2 2 2 ",
"2 2 2 2 2 2 2 2 & l P L k * = e 2 2 * * 2 e t c ..( % $ 2 8 7 7 * 2 2 * 2 * 2 2 2 * 2 * 2 2 * 2 2 2 2 2 2 2 2 2 2 2 2 2 2 2 2 2 ",
"V 2 2 . 3 * t 2 ; ( W.} & q D > O 2 e S o x @ B.I.) A q l j * 1 N . A f 4 y 5 4 1 2 K + % d 2 q < F = ; a 9 ; g 2 2 2 2 2 2 2 2 ",
"2 X 2 2 2 2 e X 4 ( I.n.s y y 1 y * * i . x # M.I.) 6 0 2 j 7 , 1 8 z $ O S . ` h   > O e % 3 w , j + Z m.] q 1 2 2 2 2 2 2 2 2 ",
"2 2 e t O 2 e * 4 / K.J.( $ 2 % p O @ x O z % ] I.` . , 1 8 u w X i 3 1 y F s n.X.# w y i $ 3 4 e f o ` W.l.A ; 2 2 2 2 2 2 2 2 ",
"e 2 2 2 . 2 2 e 4 a J.Q.A.1 $ d w $ 3 e 7 y @ B.W.R.2 : 4 9 z X 9 2 . 4 S 9 ) L.V.h t D y $ f % 7 g D B P.l.H q 2 2 2 2 2 2 2 2 ",
"2 2 . 2 l 3 * e 4 9 !.jXlXI o t > $ c . y y . 9XjXmXo.. V O S X S e 1 4 6 A B.L.M.- 2 q 5 O c % 8 g 6 Z P.l.A 0 2 2 2 2 2 2 2 2 ",
"3 2 2 m <.U $ w < o.wXkXvX0.o p 2 3 c . 7 7 x mXmXbXj.  V 6 x 1 * u l : + j.eXW.` @ w y p 3 f $ x @ D R.~.V.9 O 2 * 2 2 2 2 2 2 ",
"e 2 e P XX%.* e X O.*X*XvX).  y > e % = 7 o  .wX:X7X].. 4 6 y d 1 9 z % 1 dXvXeX] 1 i p l % * 5 4 . o.MXjXpXJ $ 2 2 2 2 2 2 2 2 ",
"t * * C 4X:.X 2   9.R. .rX}.  x 2 l # c y o <.p.{ Q T.+ 1 S 6 f N & 9 c n bXnXmX-.e > . f % $ J < 9 1.cXvXvX{ % 2 2 2 2 2 2 2 2 ",
"e * u . w.P u e $ P zX,XY {.O q ; V * @ k * i 4Xs.>Xg.: 2 = c 8 j * i   { aXs.p.r.  V w + r 5 O u . Z.wX4X/.A.. x   V   X l t * ",
"x . e x Z.* . x 1 P fX2XpXw.  = 2 * t = * * m dXxXsX;.: = k = @ 8 w *   i.A.' _.u.  p > O i 2 w =   ^.q.0.>.y.@ e . R W * 2 2 & ",
"w 7 e i [.F * & q   2XxXsXQ 3 v r + $ 2 * 2 X f.vXrX+ O = F , M r : w . -.pX_.mX&.p   i w + q.Q x $ 7.<X`.wX>.+ e X %.Z.t * e 2 ",
". t 2 w ).i * . y   +XbXo.O = d + V . 2 2 e X 3 dX=X  i 8 = . , r . x - . 7XzXzXe + r t + i H.h.  e W nXdXzX: w t . =.>Xx 2 e 2 ",
"V u & u w.. . L F + ;.*X+ F   n + i r 2 $ x e c H.6.; i z s s s 2 * l L V J cX(.  I + 7.#.  <Xt.2 X $ |.bX[.  2 t   | [.2 O e 2 ",
"w .   L @X5XuXgXa.3 g d c S > n V : 2 2 O V . k x.) a . y t r 0 u &     e @ iX7.+   O a.1.  >.P m 2 . R mXA.f = e   :.3.$ 2 2 2 ",
"i e * & >.4X}.Z.%X` k./ G 6 0 @ ! { + , w = = G v.z.[ f ; q ; ; w + | 2 - ( [ _ r I +  Xf.  f.I   n t C A.4.a k 2 $ s.W 2 w e e ",
"e * x *   U     { x.v.b.Y M q / !  X> V r   A.A.G.F.S.| > L a ( + I xX8XS.[ x.k.  i + 1.#.  ).#., e l . Z ] - @ X 2  Xt * * 1 e ",
"7 2 * 2 2 3 w 2 U A.rXS.rXj $ + &.uXL q.&.i 4Xu.OXu.'.7.  | ,.e   r.(.w.gX+.F.z.$.= 7 >Xx   r.' . 1 & / N.k.C.6.2 L }.. 3 t . t ",
"2 2 2 2 2 2 2 2 '.>X#X- -X3.p +  X>.w  X*.K <Xr.dX4X<Xd.  O.,Xx $ e.;.   .8.0X$XdX$.T y.7 * | 3.i +XaX` F.D.$XcXdXgXy.. 2 X V e ",
"e 2 2 * 2 2 2 2 <.iXpX_.Y 5X  1.@X> P 4X! P a. XdXuX`.a.  w.,Xt   Z.C O 2.uXdXr.s.3.3.,.*   3.rXcXtX3X5.$XS.-.r 7.&Xx 2 L 2 3 X ",
"e 3 2 2 2 2 2 X r.iXdX1X   Xg.<XI + O I K t.#.2.qX4X{ t.$. XQ u O r.T X J uXtXyX=.s.1XL . L e q.h.  . {.3XaX<X*   P . 2 2 t   t ",
"t 3 2 2 2 2 2 X ).dX<Xu.i I xX'.+ r O &.'.d.i oXdX,Xm f.=Xi.  i m `.  x E OXdXh.  _.y.  . X F   0   R .X<XsXh.8 V 3 w 2 X x $ t ",
"e 2 * 2 2 2 2 * m qX,X&.  w y.'   K   p oX6XI p :Xf.O +XuXi * * 0 t.e $ @ .XlX7X& y.[.u w t X i . k j 3.fXtXt.- e . * x e 2 x X ",
"w 2 2 2 2 2 2 2   f.`.  O i . * O r w > f.).>   2.2.  t.f.  F . t.}.  : . q.OXY   P K 7 i . *   f l   1.dX#X3.  2 e * e $ X e t ",
"2 2 2 2 2 3 e 2 + f.I + i e 7 8 r w t   r.).2   7.d.  E i i O X A.y.. r ; 6.*.o F . t * * x & x d + ; *.5XrXu , 2 e * X 2 P   t ",
"x . x O . U   $.=.>XV . t . P & X 2 2 2 L U   T 1.'.y.+ e @ L . #.r.5 m e `.#.  . V X O t 2 x $ . L i   * d.  8 * e X x X e e 2 ",
"e t u . x   . y.,X`.%.1 & 8 . z 2 2 2 2 * * 2 }.`.t.1X* x x   e O   + I 4X`.oX1.. x $ 2 e 2 t X K     e ' >X3.L . e X t $ e 2 2 ",
"* * u * e & e >.2.{ fXO.. & U . 3 2 2 2 2 2 * T.q.f.u.O 7 z $ z K r K i +Xt.).H.+ 3 1 2 2 * e 2 .   P &   '.pXa.. 2 * e 2 e O e ",
"e . e w 7 i u Z.d. X_.' * t   l 2 e 2 X e x   | H.uXi.w * & F . > O     0.1Xq.Q 2 * 2 e 2 2 3 2 L O 7 L <.w.].3.X 2 e * 2 e X t ",
"u e * 7 x   =.pX1X,Xr.L   u l e . t t 2 X 2 X i.:Xd.4X#.. u x $ O w i #.@X,XOX(.x X 2 e $ 2 2 2   P   E iX|.3.3.V 2 e X 3 e X t ",
"e O t w & . 1Xq.O r.oXO U e @ F 2 2 2 e 2 . 2 XXq.  f.@X  x = u > r   `.w.  >.1XU . 2 t O 2 2 * L =   I ' /.xX5X:.2 t 2 3 w $ e ",
"e   z *   3.@X  O   2.Z.. u   e e X . e t 2 . Y.Q + S ,X' = * * r w   oXE   O a.' . 2 t * 2 2 *   F   y.1Xs.W y.Z.2 t 2 2 2 2 w ",
"e x * & L :Xx p i   <.oX  8 P @ 2 t 3 : * e O i.P w . ! 1X. z e O w E r.  I + &.$.. 2 t X e 2 2 + x * .X].=.  t XX$ e 2 2 2 2 2 ",
"x   i . r.OX. 8 e O . Z.F 2 u O * t 2 O 2 t   p.e e t 2 }.`.  e w   %.7.  x   =.<.  l x 2 X e e x . T 4Xe   L   f.! O 2 * x . t ",
". F 2 O ' w.  x & 7 e y.$.. w * * 3 2 2 e x X Y.t 2 . . r.<.  t i X r.=.X t   W r.. X & 2 e e X e   a.,.  i * e P '.O O . u * u ",
"2 i . & L ).& i w * * U w.  e w 2 3 2 2 2 . . d.i w t . Z.=.. x e 2 T.R X 2 $ t `.3 2 2 2 w w $ . ' [.7 * * t e w 6XI p = e & @ ",
"L   7 * F >X'   e * 7 L 1Xx x & * O 2 e x 2 L XX$ $ t t T.T X $ 2 $ _.L X 2 w e _.t x e * $ e 2   ].s.  K   F . > t.P . * u t & ",
"i   F w . 3.y.  i 7   e .Xe x 7 2 2 2 w t . L _.e * . e i.e 3 * 2 + Z.R $ t 2 C p.X w 2 * 2 r 2 * [.$.  x e & * V 7.r . e e e 8 ",
"w e e e X t >Xe = e . E >.  * i 2 2 2 $ 2   P s.t t . T i.* V e e . e.' X e X I Z.. X 2 e e 2   $.OX. u t . u X { :XO V u * & = ",
"e t & * u & @X=.  t x @X=.u X O X * 3 2 x 2 :.[.  2   -.i.  t . t   e.T X * . U Z.* 2 3 e e 2 . Z.a.  i u   L   $.a.  i . e w u ",
"e . K . e . ,.Z.. u . @X* e * t 2 e e . 3   ' 7.  t . 3.e.  V e l   i.U 2 2 2 T 7.. 3 3 2 X 3 e XX* x   7 L + & `.L + F . z t @ ",
"* w t   e 2 e P t X %.y.. x . e * e 2 2 2 . $.e.. e   i.:.  L $ e   a.Q & e   ' w.. e 7 u x   >./.. 2 e x X 2 2 _.l t & 7 w e e ",
"e . 2 x x   ,.uX  * ).'   u e 7 2 2 2 2 2 .  .3.. e   [.$.  t 2 e . w.W * e * #.y.. e 2 & x * 5X$.. t 2 . . V :. Xw . * i * & e ",
"e 2 e e $   e.&X* T 5Xz e 7 e . 2 2 2 e t + <.<.. 3   1X| . X t * 7 T.$.& O z w.w.  t u & i   s.V X e e X e X | y.. & 7 t 7 O 7 ",
"X i 2 $ 2 x i.,.  U a.  x * w e e $ 2 e 3 . e.4.  3 2 ,X| 2 X 2 u   7.L + F   W <.  i t O x ' #.2 2 X x 3 V   | T   K * & e t * ",
"e 2 . t e   $.' . <.$.. e 2 e t t 2 t 2 $   p.=.. 2 t i.U 3 e X e . 1X=.  x   q.a.  t 7 . x rX@X. 2 X x X 3 2 &XU   L * . y t * ",
"t 2 X e e   2 $ 7 @X<.u . 7 e * w * t * * 3 XX%.X * 2 I t $ t 2 x   .X' . K   $.1X* & t e . 1X).. e X x . 2 2 5Xq.. e * e * * e ",
"X 2 e X L V x X   _.3.. . w z y 2 * t $ e U 3X' * 3 2 2 2 2 2 e e 7 [.$.& y O %.@Xi & i x . T O 2 e * e e e . i.w.. * 7 t 7 & 7 ",
"2 e t   e 3 * e = a.y.  x e e & t 2 e   2 P &X2 X t * 2 e e . 2 7   ' x * e 8 8 <.e e * O x . w 2 3 * X e t   >.%.  x e * e e * ",
"2 2 2 2 2 2 2 2 t x V e 2 2 2 2 X e e . 2 T ! U 2 * 2 * * 2 2 2 2 2 * 2 2 2 2 * 2 2 2 2 2 * 2 2 2 * * 2 * 2 2 2 7 = * 2 2 2 2 * ",
"2 2 2 2 2 2 2 2 2 e e 2 * 2 2 * 2 e 2 X $ t t * 2 2 2 2 2 2 1 2 2 * 2 2 2 * 2 2 1 2 * 2 2 2 2 * 2 2 2 2 2 2 1 2 2 2 2 2 * 2 2 2 ",
"2 2 2 2 2 2 2 2 & 2 2 * 2 2 2 2 * 2 2 2 2 2 2 X 2 * 2 2 2 * 2 2 2 2 * 2 2 2 2 * 2 2 2 2 * 2 2 2 2 * * 2 2 2 2 2 2 2 * 2 2 2 2 * ",
"2 2 2 2 2 2 2 2 2 2 2 2 2 2 3 2 2 X 2 3 t w 2 2 2 2 2 2 2 2 2 2 2 2 2 2 2 2 2 2 2 2 2 2 2 2 2 2 2 2 2 2 2 2 2 2 2 2 2 2 2 2 2 2 ",
"2 2 2 2 2 2 2 2 e e 2 2 2 2 2 e e 2 2 2 w * 1 2 2 2 2 2 2 2 2 2 2 2 2 2 2 2 2 2 2 2 2 2 2 2 2 2 2 2 2 2 2 2 2 2 2 2 2 2 2 2 2 2 ",
"2 2 2 2 2 2 2 2 e 2 2 w e 2 2 2 w 2 2 2 * * * e 2 2 2 2 2 e 2 e 2 e 2 2 2 3 2 2 2 2 e 2 2 2 2 e 2 2 2 2 2 2 2 e w 3 2 w 2 2 2 2 ",
"2 2 2 2 2 2 2 2 t 2 1 w e 2 2 2 $ w e 2 2 2 e t w 3 w 2 2 2 2 e 2 3 3 w 2 2 2 3 e 2 2 2 e 2 w 2 3 2 2 w 2 e 2 2 2 e 2 3 w 2 2 3 ",
"2 2 2 2 2 2 2 2 e 2 2 e t e 2 2 2 e e 2 * 2 2 * 2 2 w 3 2 e 2 2 2 w 2 2 e w 3 2 2 2 e 2 e 2 3 2 w w 2 3 2 e 2 e 2 2 w 3 2 3 w 2 "
};
